<mxfile host="app.diagrams.net" modified="2024-01-22T18:47:50.720Z" agent="Mozilla/5.0 (X11; Linux x86_64) AppleWebKit/537.36 (KHTML, like Gecko) Chrome/120.0.0.0 Safari/537.36" etag="kXF8smlPfzFhwLvuUI_7" version="22.1.16" type="device">
  <diagram name="Page-1" id="NOcBiOD12t5dbD4Zr43-">
    <mxGraphModel dx="2074" dy="779" grid="1" gridSize="10" guides="1" tooltips="1" connect="1" arrows="1" fold="1" page="1" pageScale="1" pageWidth="850" pageHeight="1100" math="0" shadow="0">
      <root>
        <mxCell id="0" />
        <mxCell id="1" parent="0" />
        <mxCell id="8nX6-_hQsfc3MMxlzyIy-28" value="" style="rounded=1;arcSize=10;dashed=0;fillColor=none;gradientColor=none;strokeWidth=2;labelPosition=center;verticalLabelPosition=top;align=center;verticalAlign=bottom;" vertex="1" parent="1">
          <mxGeometry x="142" y="215" width="156" height="150" as="geometry" />
        </mxCell>
        <mxCell id="8nX6-_hQsfc3MMxlzyIy-1" value="" style="rounded=1;arcSize=10;dashed=0;fillColor=none;gradientColor=none;strokeWidth=2;" vertex="1" parent="1">
          <mxGeometry x="90" y="150" width="860" height="540" as="geometry" />
        </mxCell>
        <mxCell id="8nX6-_hQsfc3MMxlzyIy-2" value="" style="dashed=0;html=1;shape=mxgraph.aws3.virtual_private_cloud;fillColor=#F58536;gradientColor=none;dashed=0;" vertex="1" parent="1">
          <mxGeometry x="130" y="130" width="52" height="36" as="geometry" />
        </mxCell>
        <mxCell id="8nX6-_hQsfc3MMxlzyIy-3" value="us-west-2a" style="rounded=1;arcSize=10;dashed=0;fillColor=none;gradientColor=none;strokeWidth=2;labelPosition=center;verticalLabelPosition=top;align=center;verticalAlign=bottom;" vertex="1" parent="1">
          <mxGeometry x="120" y="420" width="200" height="200" as="geometry" />
        </mxCell>
        <mxCell id="8nX6-_hQsfc3MMxlzyIy-4" value="" style="dashed=0;html=1;shape=mxgraph.aws3.permissions;fillColor=#D9A741;gradientColor=none;dashed=0;" vertex="1" parent="1">
          <mxGeometry x="140" y="400" width="30" height="35" as="geometry" />
        </mxCell>
        <mxCell id="8nX6-_hQsfc3MMxlzyIy-5" value="us-west-2b" style="rounded=1;arcSize=10;dashed=0;fillColor=none;gradientColor=none;strokeWidth=2;labelPosition=center;verticalLabelPosition=top;align=center;verticalAlign=bottom;" vertex="1" parent="1">
          <mxGeometry x="350" y="420" width="200" height="200" as="geometry" />
        </mxCell>
        <mxCell id="8nX6-_hQsfc3MMxlzyIy-6" value="" style="dashed=0;html=1;shape=mxgraph.aws3.permissions;fillColor=#D9A741;gradientColor=none;dashed=0;" vertex="1" parent="1">
          <mxGeometry x="370" y="400" width="30" height="35" as="geometry" />
        </mxCell>
        <mxCell id="8nX6-_hQsfc3MMxlzyIy-7" value="us-west-2c" style="rounded=1;arcSize=10;dashed=0;fillColor=none;gradientColor=none;strokeWidth=2;labelPosition=center;verticalLabelPosition=top;align=center;verticalAlign=bottom;" vertex="1" parent="1">
          <mxGeometry x="580" y="420" width="200" height="200" as="geometry" />
        </mxCell>
        <mxCell id="8nX6-_hQsfc3MMxlzyIy-8" value="" style="dashed=0;html=1;shape=mxgraph.aws3.permissions;fillColor=#D9A741;gradientColor=none;dashed=0;" vertex="1" parent="1">
          <mxGeometry x="600" y="400" width="30" height="35" as="geometry" />
        </mxCell>
        <mxCell id="8nX6-_hQsfc3MMxlzyIy-9" value="us-west-2a" style="rounded=1;arcSize=10;dashed=0;fillColor=none;gradientColor=none;strokeWidth=2;labelPosition=center;verticalLabelPosition=top;align=center;verticalAlign=bottom;" vertex="1" parent="1">
          <mxGeometry x="120" y="190" width="200" height="200" as="geometry" />
        </mxCell>
        <mxCell id="8nX6-_hQsfc3MMxlzyIy-10" value="us-west-2b" style="rounded=1;arcSize=10;dashed=0;fillColor=none;gradientColor=none;strokeWidth=2;labelPosition=center;verticalLabelPosition=top;align=center;verticalAlign=bottom;" vertex="1" parent="1">
          <mxGeometry x="350" y="190" width="200" height="200" as="geometry" />
        </mxCell>
        <mxCell id="8nX6-_hQsfc3MMxlzyIy-11" value="us-west-2c" style="rounded=1;arcSize=10;dashed=0;fillColor=none;gradientColor=none;strokeWidth=2;labelPosition=center;verticalLabelPosition=top;align=center;verticalAlign=bottom;" vertex="1" parent="1">
          <mxGeometry x="580" y="190" width="200" height="200" as="geometry" />
        </mxCell>
        <mxCell id="8nX6-_hQsfc3MMxlzyIy-12" value="S3" style="outlineConnect=0;dashed=0;verticalLabelPosition=top;verticalAlign=bottom;align=center;html=1;shape=mxgraph.aws3.s3;fillColor=#E05243;gradientColor=none;labelPosition=center;" vertex="1" parent="1">
          <mxGeometry x="1120" y="519.5" width="76.5" height="93" as="geometry" />
        </mxCell>
        <mxCell id="8nX6-_hQsfc3MMxlzyIy-14" style="edgeStyle=orthogonalEdgeStyle;rounded=0;orthogonalLoop=1;jettySize=auto;html=1;" edge="1" parent="1" source="8nX6-_hQsfc3MMxlzyIy-13" target="8nX6-_hQsfc3MMxlzyIy-12">
          <mxGeometry relative="1" as="geometry" />
        </mxCell>
        <mxCell id="8nX6-_hQsfc3MMxlzyIy-13" value="S3 Endpoint" style="outlineConnect=0;dashed=0;verticalLabelPosition=bottom;verticalAlign=top;align=center;html=1;shape=mxgraph.aws3.endpoints;fillColor=#F58536;gradientColor=none;" vertex="1" parent="1">
          <mxGeometry x="830" y="530" width="69" height="72" as="geometry" />
        </mxCell>
        <mxCell id="8nX6-_hQsfc3MMxlzyIy-15" value="Nat" style="outlineConnect=0;dashed=0;verticalLabelPosition=bottom;verticalAlign=top;align=center;html=1;shape=mxgraph.aws3.vpc_nat_gateway;fillColor=#F58536;gradientColor=none;" vertex="1" parent="1">
          <mxGeometry x="830" y="430" width="69" height="72" as="geometry" />
        </mxCell>
        <mxCell id="8nX6-_hQsfc3MMxlzyIy-19" style="edgeStyle=orthogonalEdgeStyle;rounded=0;orthogonalLoop=1;jettySize=auto;html=1;" edge="1" parent="1" source="8nX6-_hQsfc3MMxlzyIy-16" target="8nX6-_hQsfc3MMxlzyIy-15">
          <mxGeometry relative="1" as="geometry">
            <Array as="points">
              <mxPoint x="450" y="660" />
              <mxPoint x="800" y="660" />
              <mxPoint x="800" y="466" />
            </Array>
          </mxGeometry>
        </mxCell>
        <mxCell id="8nX6-_hQsfc3MMxlzyIy-16" value="EMR Serverless" style="sketch=0;points=[[0,0,0],[0.25,0,0],[0.5,0,0],[0.75,0,0],[1,0,0],[0,1,0],[0.25,1,0],[0.5,1,0],[0.75,1,0],[1,1,0],[0,0.25,0],[0,0.5,0],[0,0.75,0],[1,0.25,0],[1,0.5,0],[1,0.75,0]];outlineConnect=0;fontColor=#232F3E;fillColor=#8C4FFF;strokeColor=#ffffff;dashed=0;verticalLabelPosition=top;verticalAlign=bottom;align=center;html=1;fontSize=12;fontStyle=0;aspect=fixed;shape=mxgraph.aws4.resourceIcon;resIcon=mxgraph.aws4.emr;labelPosition=center;" vertex="1" parent="1">
          <mxGeometry x="411" y="481" width="78" height="78" as="geometry" />
        </mxCell>
        <mxCell id="8nX6-_hQsfc3MMxlzyIy-20" style="edgeStyle=orthogonalEdgeStyle;rounded=0;orthogonalLoop=1;jettySize=auto;html=1;" edge="1" parent="1" source="8nX6-_hQsfc3MMxlzyIy-17" target="8nX6-_hQsfc3MMxlzyIy-15">
          <mxGeometry relative="1" as="geometry">
            <Array as="points">
              <mxPoint x="209" y="660" />
              <mxPoint x="800" y="660" />
              <mxPoint x="800" y="466" />
            </Array>
          </mxGeometry>
        </mxCell>
        <mxCell id="8nX6-_hQsfc3MMxlzyIy-17" value="EMR Serverless" style="sketch=0;points=[[0,0,0],[0.25,0,0],[0.5,0,0],[0.75,0,0],[1,0,0],[0,1,0],[0.25,1,0],[0.5,1,0],[0.75,1,0],[1,1,0],[0,0.25,0],[0,0.5,0],[0,0.75,0],[1,0.25,0],[1,0.5,0],[1,0.75,0]];outlineConnect=0;fontColor=#232F3E;fillColor=#8C4FFF;strokeColor=#ffffff;dashed=0;verticalLabelPosition=top;verticalAlign=bottom;align=center;html=1;fontSize=12;fontStyle=0;aspect=fixed;shape=mxgraph.aws4.resourceIcon;resIcon=mxgraph.aws4.emr;labelPosition=center;" vertex="1" parent="1">
          <mxGeometry x="170" y="481" width="78" height="78" as="geometry" />
        </mxCell>
        <mxCell id="8nX6-_hQsfc3MMxlzyIy-22" style="edgeStyle=orthogonalEdgeStyle;rounded=0;orthogonalLoop=1;jettySize=auto;html=1;" edge="1" parent="1" source="8nX6-_hQsfc3MMxlzyIy-18" target="8nX6-_hQsfc3MMxlzyIy-13">
          <mxGeometry relative="1" as="geometry">
            <Array as="points">
              <mxPoint x="680" y="660" />
              <mxPoint x="800" y="660" />
              <mxPoint x="800" y="566" />
            </Array>
          </mxGeometry>
        </mxCell>
        <mxCell id="8nX6-_hQsfc3MMxlzyIy-18" value="EMR Serverless" style="sketch=0;points=[[0,0,0],[0.25,0,0],[0.5,0,0],[0.75,0,0],[1,0,0],[0,1,0],[0.25,1,0],[0.5,1,0],[0.75,1,0],[1,1,0],[0,0.25,0],[0,0.5,0],[0,0.75,0],[1,0.25,0],[1,0.5,0],[1,0.75,0]];outlineConnect=0;fontColor=#232F3E;fillColor=#8C4FFF;strokeColor=#ffffff;dashed=0;verticalLabelPosition=top;verticalAlign=bottom;align=center;html=1;fontSize=12;fontStyle=0;aspect=fixed;shape=mxgraph.aws4.resourceIcon;resIcon=mxgraph.aws4.emr;labelPosition=center;" vertex="1" parent="1">
          <mxGeometry x="641" y="481" width="78" height="78" as="geometry" />
        </mxCell>
        <mxCell id="8nX6-_hQsfc3MMxlzyIy-21" style="edgeStyle=orthogonalEdgeStyle;rounded=0;orthogonalLoop=1;jettySize=auto;html=1;entryX=0;entryY=0.5;entryDx=0;entryDy=0;entryPerimeter=0;" edge="1" parent="1" source="8nX6-_hQsfc3MMxlzyIy-18" target="8nX6-_hQsfc3MMxlzyIy-15">
          <mxGeometry relative="1" as="geometry">
            <Array as="points">
              <mxPoint x="680" y="660" />
              <mxPoint x="800" y="660" />
              <mxPoint x="800" y="466" />
            </Array>
          </mxGeometry>
        </mxCell>
        <mxCell id="8nX6-_hQsfc3MMxlzyIy-23" value="Internet" style="html=1;verticalLabelPosition=top;align=center;labelBackgroundColor=#ffffff;verticalAlign=bottom;strokeWidth=2;strokeColor=#0080F0;shadow=0;dashed=0;shape=mxgraph.ios7.icons.globe;labelPosition=center;" vertex="1" parent="1">
          <mxGeometry x="1120" y="190" width="70" height="70" as="geometry" />
        </mxCell>
        <mxCell id="8nX6-_hQsfc3MMxlzyIy-25" style="edgeStyle=orthogonalEdgeStyle;rounded=0;orthogonalLoop=1;jettySize=auto;html=1;entryX=-0.057;entryY=0.514;entryDx=0;entryDy=0;entryPerimeter=0;" edge="1" parent="1" source="8nX6-_hQsfc3MMxlzyIy-15" target="8nX6-_hQsfc3MMxlzyIy-23">
          <mxGeometry relative="1" as="geometry">
            <Array as="points">
              <mxPoint x="1040" y="466" />
              <mxPoint x="1040" y="226" />
            </Array>
          </mxGeometry>
        </mxCell>
        <mxCell id="8nX6-_hQsfc3MMxlzyIy-26" value="EC2" style="outlineConnect=0;dashed=0;verticalLabelPosition=middle;verticalAlign=middle;align=left;html=1;shape=mxgraph.aws3.ec2;fillColor=#F58534;gradientColor=none;labelPosition=right;" vertex="1" parent="1">
          <mxGeometry x="130" y="197" width="56.5" height="63" as="geometry" />
        </mxCell>
        <mxCell id="8nX6-_hQsfc3MMxlzyIy-27" value="Postgres - Data" style="shape=image;verticalLabelPosition=bottom;labelBackgroundColor=default;verticalAlign=top;aspect=fixed;imageAspect=0;image=data:image/png,iVBORw0KGgoAAAANSUhEUgAAA+EAAAQACAYAAACOBlhPAAAABGdBTUEAALGPC/xhBQAAACBjSFJNAAB6JgAAgIQAAPoAAACA6AAAdTAAAOpgAAA6mAAAF3CculE8AAAABmJLR0QA/wD/AP+gvaeTAACAAElEQVR42uzdd5hU1cE/8O/UnZ3tvXe2Aktn6U2KIliwJGrsRo2xRGN8Td73l2gS85pmi10TeywgghSlF2lLW1hgF7b33tvMTv39MQsvGgUWdu+5c+f7eZ59Fgt7zj1n7uz9zmkqEBERERG5FxWAIADB3/nyBeAHQAcgEIAegA8AIwAvAAED/81/4J+NA39HN4iyvQEYAFgB9Az8u/aB790AbABMAMxn/T9OAB1n/T/dA3+nbeD72X9uG/h7RKTgNzAiIiIiIpG8AEQCiDnre9h3AvZ3Q7eS9XwnlJ8O6i0A6gFUA6gDUAWgEYCdLyEihnAiIiIiIgCIAJAEIPo7Ifvs76FspotmA9AwEMhrB76qBkJ6zUBgrwdH14kYwomIiIhIEUIAJA58JX3nz0lwTd8msRxwjZiXAigGUPKdry42ERFDOBERERHJRyCAdAAZA9/TAYwYCNv+bB631wigCEAhgAIAJwa+17FpiBjCiYiIiGh4aOAauT4dttMG/pwJIJzN45HaB8J4AYDjAI4MfHHknIghnIiIiIgGIQjASABZA98nABgL107iROdTD+DQwNeJs4K6k01DxBBORERE5Mm0AEYBGANgNIDsge+RbBoaYg0AcgHsB7APwEFwxJyIIZyIiIhIwTRwTR2fOPB1enTbwKYhARxwrTHfPxDOd8M1as7RcmIIZxMQERERuaVUAFMGwvZEcDo5yV/rQBjfCWAXXNPZbWwWYggnIiIiT+IDQP8D/80CoJdNJAvGgaA9DcDUga8wNgu5uV4AewF8A2ALXCPmDOXEEE5ERETCqQGEwnUe89nfwwa++8J1hJQOgN9AYPMCEDDw7/zhOqv5UqYldw88HNsG/gwAPQCscE077TwrtHcMfO+Da01o18Cfz/5vXQDaBr762cX/IRrA7LMC91i41ncTKVk3gO0ANgHYDNd0diKGcCIiIhpSwQDiAcTBdeZy/MBX7HdCt5L1nhXI2+A6Fun0n1sBNANoguvM4saBPytttCx+IHTPBjALrqnmRJ6udiCQbwKwEUALm4QYwolosHzhmvYZ+J1//0PTQTUA7N/5d+3f+efTo1J94GgSkRxp4Tp7OXPgK2kgcCcMfPmyiQbNORDEzw7mDXAdm1QLoBpA5cC/k+smUFEAFgKYOxC6k9itROdkh2u6+loA6wEcZZMQQziRsmngGokKgmvUKvgcf/YZeKg+HayDBr5LtVnO6Smh3QBMAMwD/84E1zTQjoF/7jjrq/2sf9808J2IBscIIANAOlxnL2cMfKXhh9dc0/DqB1ADoGrgq/I7f64YeL+UgheAmQPBexFcx4TxOYzo4lUDWDfwtRWuwQgihnAiNxEB13mpsQPfY+AaoTj9PXrg/9F42INrC1xTQBsGvrcMBPTTI07VcI06tfIlRB4oCP+3I/VEAOPhmkrO36vuxT4QxkvO+ioe+CofgoCeMRC4FwKYA9cHNUQ09PoAfA3gc7hGynk+OTGEEwnmNfBwnAwg5Xu+e7OJLokZrpGm+rOCefXAV8XAVxubidyY/0DInnjWVwqbxSMCetVAMC+A63zj0987fuDvBAK47KzgncBmJJJcP1xryD8H8CWfQYghnGh4BQEYBWAkgGy4RiBS4BrhVrN5hOo6K5CXn/Xn4oEHXK5lJzmJgWvUctbAVzp/X9J31H4nmPsCuAau48O4gzmRfFgBbAOwYiCUM5ATQzjRRdLDtWts1kDgnjDw5yS+pt1W/cDDbNlZD7ZlA4HdyeahYRYNYDqA+QBmDLyfEBGRstgHAvkHA4G8l01CDOFE308L1+j25LO+suBZ67M9WReAooGvwrP+fAqujeaILkYEgCvg2pV6NjhlmIjIE58vVgL4aCCY29kkxBBOniz5rLA9Ca51mNzIhr7LCddazSIAx+E6puQIXKPoVjYPfc/vugkArhz4mgAuUSEiIpd6AB8D+BdcM/GIGMJJ8TLhGo06fU5qOJuELoFl4Bfo6VB++nsHm8bj+ANYAGDxwFckm4SIiM5jH4B/AvgUrqNeiRjCSRFGnBW658B1BBjRcKv4nmBezmZRnDAA1wG4Hq7zmHk2NxERXYweAJ8NBPI9bA5iCCd3fCi+Aq4jW+YCiGOTkEx0DoTxIwD2w/Xpdxmbxe0EA1gG4EYA88D9IoiIaGgVDITxdwC0szmIIZzkKhnAUgBL4Brt5nEt5E7B/ACA3QAODXzncSbyEwDgagA3wHUWM0e8iYhouPXDNTr+HFwf4BMxhJNQerh2GD4dvJPYJKQQDrg+Ac+Fa6Q8d+CfuYuqmPeZqwDcCmARAC82CRERCbILwMtw7bDODWGJIZwk4wvXSNTVAw/E/mwS8hDdAA4C2DsQyvcCaGazDJtMAHcDuA2u5S1ERERyUQ/gDQBvDvyZiCGchpwGrnXdtwG4diCIE5FrLflmuKavb4fr+DS6eAa4ZtbcC9d+EvxdRUTn5OXlhYCAgDNfgYGBCAwMREBAAPz8/ODl5Zo8ExQU5HqTMRjg7e0NAAgICIBarYZer4ePj8+Z/242m3+wvL6+PvT39//Hv+/t7UVfXx+6u7vR1dWFvr4+9PX1ob29/cyfu7q60N3djb6+PvT29qKjowNOp5Od6N4scO2o/he4jk4lYginS6KG6+iwm+HadTiYTUJ0XqcA7ACwcyCU17JJLkgOXKPePwbgx+Yg8kwGgwHh4eGIjo5GeHg4IiIiEBkZifDwcISFhSE4OPhbYTsgIAAGg8Gtr7m7uxv19fVobm5Gc3Mz6uvr0dTUhObmZjQ2NqKxsfHMn9vbuTeYjDkBrAfw14HnACKGcBqUkXBtenQbuMab6FLVw7V+7PRo+Qk2yRk6ANcAeBTAVDYHkYIfOlUqREVFISEhAQkJCYiPj0dcXBwiIyMRERGB8PBwREVFwd+fK9zOxWKxnAnk9fX1qKysRFVV1ZnvFRUVqK+v5+i6eHkAXgDwbwA2NgcxhNMP8QfwEwD3AchmcxANmyq4Rsg3A9gEoMED2yAErunmDwKI5kuCyP1pNBokJCQgMTHxTNA+HbYTEhIQFxcHvZ6HGUgV1KuqqlBSUoKSkhIUFRWhuLgYxcXFqKyshM3GTCihUgB/B/AvuHZYJ2IIJwDAhIGH4ZvBdd5EIpxeU74ZwAYAXQq+1tSB4H03AB92PZH7iYqKQlpaGtLS0pCamorU1FSkp6cjJSWFIdsNWK1WlJeXo6CgAIWFhTh+/DgKCwtRWFh4znXwdMma4Dre7CUAJjYHQzh5Jh8AN8E16j2RzUEkG2a4pqxvGvg6AtdRae5uIYDHBr7zdw+RzGk0GiQnJyM7OxsjR45EZmbmmdDt58ctG5TIbrejvLwcx48fx/Hjx5GXl4e8vDyUl5ezcYZWPVwbuL3BMM4QTp4jA8AdAH4KbrJG5A5aAGzD/42SV7pZ/ecD+CNcm64RkQzFxMRg1KhRGD16NEaNGoVRo0YhKyvrzO7h5Nk6Ojpw+PDhM6E8Ly8PJ0+ehMPhYONcmmYAr8I1Ot7F5mAIJ2WaD+C/Br4Tkfs6BmDdwNdeAHaZ/m65CsBvAYxnlxHJg1qtRlpaGsaPH48JEyZg/PjxGDNmzJlju4guVFdXF3Jzc7Fv374z31tbW9kwF6cJrt3UXwFHxhnCSRm/bwFcCeC/wVEoIiVqA7AFrlHy1QAaZfA7ZclA+OYyFyKBNBoN0tLSMGHChDOBe9y4cZxKTsOmqKgIubm52LNnD3bs2IHCwkI2yuDUAvg9XBu4cec8hnByQwYAtwN4HMAINgeRR7AD2IP/GyU/LmHZagDXA/gfAKPZFUTSCwkJwZQpUzB16lRMnToVkydPhq8v91olcRobG7Fz507s3LkT27dvx4kTJ3hs2oUpHPh9+gVc544TQzjJXACAnwF4BEAkm4PIo1UMhPEv4VpTbh2mcuYD+DM47ZxIMhqNBiNHjjwTuKdMmYL09HQ2DMlaS0sLdu7cic2bN2Pjxo0oLS1lo5xbLoAn4TrSlBjCSYaCADwB4AG4zvomIjpbB4C1AFYB+BpA7xD8zOyB8H05m1daer0eoaGhCAsLQ0REBEJDQ+Hr6ws/Pz8YDAb4+fnB19cXBoMB/v7+8PHxgcFgQEBAwPf+PF9fX+h0uv/49yaTCWazGWazGSaTCRaLBb29vbDZbOju7obD4UBnZyccDgc6OjrQ0dGB9vb2M38++8tqtbLjLjF0jx07FjNmzMD06dNx2WWXITiYe6uSeysrK8PmzZuxefNmbNq0CR0dHWyU7/f1QBg/yqZgCCd5MAJ4CK4N17irChFdCDOAXQOh/BMMfh15DFxrvu8GoGFzDh2dTof4+HgkJSUhKSkJcXFxCA8PPxO0T4fuwMBAt7u2np6eM4G8vr4eDQ0NaGhoQH19PRobG1FbW4umpibU19fzQRyuD1pycnIwZ84czJw5E9OmTYOPjw9vElIsm82Gffv24auvvsKaNWtw7NgxNsq3OQB8BOBXEL//CzGEe+6z2sAD8P8DEM3mkA+j0YiQkBD4+PjAx8fnP0amvLy8EBAQAKPRCC8vr289fH937Z63tzdMpv/cJNNqtaKnp+dbD7dWqxWdnZ2w2Wzo7Ow88/+YzWb09PSgq6sL7e3tZ0atiE4/9wDYCde6s1UAas7x/wbA9Un8IwB4btFFCgoKQmZmJlJSUpCUlITExMQzoTs2NhYaDT/XMJvNaGhoQFVVFcrLy//jq66uTpHvY8nJyZg/fz7mz5+PhQsX/uDMBSJPUFlZiQ0bNmDt2rXYsGEDLBYLG8WlE65jP18CwEZhCCcJ++tHAP4AbrgmCW9vb8TGxiIqKgpxcXGIiIhAeHg4QkJCEBwc/B/fDQaD7K+pu7sbnZ2d6OzsRFdXFzo7O9Hc3IyWlha0tLSgsbHxW//c1NTEkSnP4ITryLPPAKyAa5dWwLXp2r0D7zuhbKYL4+Pjg8zMTIwePRojR4488z0mJoaNc4n6+/tRWVmJiooKlJeXo6SkBCdOnMDJkydRWVnpNgE9PDwcixcvxsKFCzFv3jxERESwc4m+R0dHBzZs2IDVq1dj7dq16O7uZqMAxQB+CWANm4IhnIbX5QD+BGAcm2LoREZGIiUlBSNGjEBycjISEhIQFRWFmJgYREdH8+zUsx56GxoaUFtbi/r6etTW1qKuru7MV319PSorK9Hb28vGUgYHgN1wber2I/C4sXM6vSt1Tk4OsrOzMWrUKCQlJUGtVrNxJNbX14eTJ0/i5MmTKCgoOPO9pKREFuvSR44ciSVLlmD+/PmYM2cOtFotO41oEMxmMzZv3ozly5dj1apV6Orq8vQm2QTgUQAn+OpgCKehNQ7AcwDmsCkuTmhoKLKzs5GamooRI0YgJSXlzBfX2A2tlpYWVFZWfuuroqIClZWVKC8vR2dnJxuJ3JpWq0V2djamTp2KnJwc5OTkIC0tjQ0jc1arFSdPnsThw4eRl5eHw4cP48iRI8M+omYwGDBjxgwsXboU11xzDeLj49kZRMMQyL/44gtPHiG3AXgFrv1auvjKYAinSxMA4PcAfg5ufnRB9Ho9UlNTkZWVhZEjR2LChAnIyspCcnIyG0cm2tvbUVZWhrKyMhQUFODEiRMoKytDYWEh+vr62EAkO0ajEbNmzcLcuXMxdepUTJgwAUajkQ2jAA6HAyUlJWdC+emvtra2S/q5ISEhWLZsGZYuXYrLLruMrxciCZhMJnz55Zf44IMPsGHDBthsNk9shnq49m55n68IhnC6OEsBvAoglk3x/by9vTF+/HhMnjwZOTk5GD9+PJKTk7mpkZuy2WyorKxEUVERTp06haKiojNf1dXVbCCSzOmjoE5vkDVjxgy32OuBhvAptr4eu3btwu7du7Fr1y7k5eWdd525v78/rrnmGvz4xz/G/Pnzv/fINyKSRmNjI/7973/j/fffx5EjRzyxCbYC+BmAIr4aGMLpwqQBeBnAAjbFWS9SlQrp6enIyck5E7qzs7P5kOMh+vr6zgTyo0eP4ujRo8jPz2c4pyEzYsQILFiwAPPnz8fcuXO5FwR9S0dHB/bu3Yu9e/di9+7d2L9/P3p6eqBSqbB06VLccccduOKKK/hhDZEM5efn4/3338e///1v1NfXe9KlmwD8BcD/AujnK4EhnL6fEcATAH4NQO/pjaFWqzF69GjMmzcP8+bNw4wZM9zyXFwaXm1tbd8K5UePHsWJEyfQ38/fNXSeX3wqFcaPH49ly5bh2muvRWZmJhuFLpjNZkNxcTH8/f252z2RG923a9euxZtvvokNGzZ40nGtRQAeALCFrwKGcPq2G+HaeM2jf5OfPh91xowZmDdvHh9s6KJ/yVZVVaGgoACHDh3CoUOHzqw7J8+mVqsxbdo0LFmyBMuWLUNqaiobhYjIA1VUVODtt9/Gv/71L08ZHXcCeAOuAT+e78YQ7vEiAbwFYIknXnxAQAAuv/xyXHnllbjssssQHR3NVwQNm8bGRhw+fBi5ubnYv38/cnNzL3nzJZI/rVaLhQsXYtmyZbj66qsRGspjzomIyMVqtWLNmjV48803sWnTJk8YHa8EcA+Azex9hnBPdQNcG6951BNhQkICFi1ahKVLl2LhwoXQ6/V8JZAw9fX1OHTo0JkNmA4ePAiz2cyGUYCRI0fi1ltvxe23347IyEg2CBERnVNpaSneeustvPHGG+jo6FDypTrhGgT8FXicGUO4BwmAa5OEez3pYfiGG27AkiVLMH78eKhUfMmRPNlsNhQVFZ0J5YcOHUJBQQGcTicbxw1ERUXhxhtvxG233Ybx48ezQYiIaNC6u7vxzjvv4Pnnn0dFRYWSL7UewH0A1rDXGcKVbgGAf8EDjh0bO3YsbrnlFvz4xz9GbCxPWSP31draiv3792P37t3YuXMn9u/fz43fZMRgMGDZsmW49dZbsWDBAh5RSEREQ8Jut2PVqlV48cUX8c033yj5UpcDuB8A1+gxhCuOL4C/wvVpk2LbOy4uDsuWLcPtt9+OcePGsddJkWw2G44ePYrNmzefCeadnZ1sGIlFR0fj3nvvxQMPPICwsDA2CBERDZtDhw7h2WefxcqVK5W6brwKwO0AtrO3GcKVYgqA9+A6/1txgoKCsHTpUtx666247LLLONWcPI7dbseRI0ewe/du7Nq1C1u2bOGGb8NoxowZePjhh3HttddCq9WyQYiISDJlZWV46aWX8MYbbyhxDxkngH/AtVbcwt5mCHdXagC/A/DfABQ1P1KlUmHevHm47777cM0110Cn07G3iQY4HA7k5+dj586d2LlzJ7Zv347W1lY2zCXw9fXFrbfeigcffBBZWVlsECIangTiBLpNruVGFqsN/VbbWQ/LKvgavX7w7+q1Ghj0/GDQU1RVVeHvf/873n77bfT19Snt8g4AuAVAMXuaIdzdhAD4CMAiJV1UQEAAfvSjH+Ghhx7CqFGj2MtEFxjK8/LysHnzZmzevBm7du3iDuwXKDIyEo899hjuvfdeBAQEsEGI6P/eW51OtHeb0GPqR4/Jgh5TP7r7+tFt6kd3n+Vb/77HZEGPuR8msxUmixVWmwNOpxM9A4HbbLHBYrMPWd2MXjoY9Fp4e+nh662HQa+FQa+Dn9EL3gN/Nhp08DG4/pu/0YAgP2+E+BsR7G9EkK83dFrub+EOmpub8eKLL+Lll19W2tK0HgCPwLWXFTGEu4XxAFYASFLKBU2YMAH33nsvfvKTn8BoNLKHiS6ByWTC7t27z4TyvLw8TziXdFASEhLw2GOP4ac//Sm8vb3ZIEQewukE2rr70Nbdh5bOXrR3m9DW1Yfm038+69+3d5vgUPDJFf4+BoT4GRHk541gfyOCB/4c4m888xUZ7IfQAB++cGSgra0Nf/vb3/CPf/wDPT09Srq0lXCd6MQpfQzhsnYfgBcBeLn7hej1etx666146KGHMGbMGPYs0TBpbm7Gli1bzoTyyspKj22LjIwMPPnkk7j55pu5zIVIgaw2O5o6etDQ1o361m7UtXahoa37W19DOSLtCfQ6DSKD/RAZ7IeoYH9EBfshLjwQcWEBiAsPhJ/Ri40koaamJjz77LN47bXXlDTrrQbATwDsYA8zhMuNAa6NDO5x9wvx8/PDvffei0cffRQxMTHsWSKJFRUVYd26dVi/fj127twJi0X5e6NkZ2fj8ccfx80338wjxojcXL/VhqqmDlQ3daCy0fW9qqkDdS1daOnsVfTotRwF+nojPjwQceGBSIgIRGJkMEZEhyA2LABqNSPAcKmtrcUzzzyDf/7zn0r5PW4H8EcAvwfA6XsM4bKQAtf087HufBGhoaF48MEH8dBDDyE4OJi9SiQDfX192LNnD9auXYuVK1eiurpaUdeXnp6OP/zhD7j++ut5sgKRm6lr7UJ5fRsqG9u/FbYb27vBnC1/eq0GiVHBSIoMQkp0CEbEhCA9LgwRQX5snCFUUVGBp59+Gu+//75Slp6tBXAbgHb2LkO4SEsBvA8g0F0v4PTay3vuuYfrvYlkrqCgAGvWrMHmzZuxY8cOWK1Wt7yO6Oho/O53v8Ndd93FY8aIZK6z14zimhaU1beipLYVJXWtKK1tRa+ZJxgpUaCvN9LjwpARH+b6HheOuPBA8HPSS3PkyBE8/vjj2LJliyI+WwBwA4CD7FmGcBGeBPAnd22/pKQkPPXUU7j55pv5EEzkhlpbW7FhwwasXr0aX331Fbq7u2VfZ19fX/z85z/Hf//3f8PPj6MtRHLidALVzR04WdWEk1VNOFXdgpLaFrR29bFxPJyf0QujEiMxOjkSoxIjMSopAv4+BjbMRVi3bh2eeOIJFBQUuPul9AN4FMBr7FWGcKloALwE4AF3rHxISAh+9atf4ZFHHoHBwDdQIiWw2WzIzc3F8uXLsXz5ctTV1cmqfnq9HnfccQf+8Ic/IDw8nB1GJANdvf3IK6nFkZI6FA4E7x4TR7fpAoKDCogPD8KopEiMT43G+LQYxIUFsmEG8Tv77bffxlNPPYXGxkZ3v5x/w7UxdQ97liF8OPkA+BiuaejuVXEfHzz44IP49a9/zfN2iRTs9Lnka9euxaefforCwkKh9bn66qvx/PPPIykpiZ1DJDMWqx1fHziFj7ccQXFtCxuELlpYgA8mpMdifGoMxqfGIDEyiI1yHt3d3Xj22Wfx3HPPuftO6gUArgVQxF5lCB8OIQC+BDDNnSqt1+tx//3343/+538QFhbGXiTyMMePH8eqVauwcuVK5OXlSVZuamoqXnzxRVxxxRXsBCI3sP9kNd7feAj7CqrYGHTJQgN8kJMZjylZ8cjJjEewnzcb5QeUlpbi4Ycfxvr16935MrrgOsZsDXuUIXwopQD4CkCq23SqSoWbb74Zf/zjH5GYmMgeJCKUlJRg+fLl+Oyzz3DkyJFhKcNoNOI3v/kNHn/8cXh58XxauTD1W2G12dFt6ke/xYb+CzyLWaNSwcdbDxVU8B04b9jP24ubNClYQWUT3v36ALYfKeNxYjREz6RAWmwYpmTFY0pWAsakREGv5XGU37V69Wr84he/QEVFhbtegh3AfwP4M3uTIXwoTIFrBNxthpHT0tLwyiuvYP78+ew9IvpeFRUV+PLLL7F8+XLs3r0bziF42L7uuuvw3HPPIT4+ng08DCw2Ozp6TOjoNqGlq8/15x4TWrv60N5tQnu365/7rTb0mq0w9VvQb7UP2y7WPgY9NGoVvL308PXWw8/oBT9vL/gZveDr7QV/n2//c6CvAcF+RoQH+sBo0LNDZa68oQ3vfn0IGw6cgs3OY4Fp6BgNekzNisfsMcmYPioRAdzk7QyTyYT//d//xV//+ld3nqL+bwD3ADCxRxnCL9a1AD4C4BZzaHx9ffG73/0OjzzyCHQ6HXuPiC5IcXExli9fjo8++uiidmxNTEzE66+/jkWLFrExL4HN7kBjezdqW7pQ39qF2pYu1LUOfLV0oaWzVzHXatBrERrggxB/I0L8fRAW6INgPyPCAn0QGeyHmFB/RAT5QatR84UhWF1rFz7YeBir95yAxWpng9CQUqtVGJsSjZnZSZidnYz4iEA2Clwz1x555BF3nqK+D8AyAPXsTYbwwXoIwAsA3OIJ4Prrr8fzzz+P2NhY9pzE+q02dPaa0dlrRlevGZ29/QPfzejqM8PUbz0zGmW2WGGx2tHd149+qw39Aw80JosVtrOmhzoBdPf1f+uB9fumbhn0Oui0Gnh7aaHTaODjrYdarYK/0QC1SgVfbz28vXTw9faCr7f+P777G70Q6OsNH45K0YC8vDx8+OGH+Pjjj1Fff+7fnSqVCj/72c/w5z//Gb6+vmy8C2S12VFe34bS+jaUDpy5XFrfisa2HtgdHHE8TaNWIyLIF9Gh/ogOGfgK9UdMaAASIgIR6Ms1plJq7erDexsOYsXOYwzjNGxSokMwf0IqFkxI5eZuAFasWIEHH3zQXXdRrwFwDYBDfGUzhF+oRwE85w4VTU1NxT/+8Q+OQA3Tg3JDezdaOvvQ2NaN1q4+NA78c1NHD5o6etDa2Yd+q83tr1Wn1SDQx4BAX28E+Xsj2M+IQF8DAn28ERbog9AAH4QH+SLE34ebq3gIu92OLVu24KOPPsLKlSvR0/Pt00eSk5Pxz3/+E3PmzGFjnUNnrxnHyhpQWNV0JnBXNXUwbA+BAB8DkqOCkRQVjMTIoIHvwYgM8uOa9WHU1NGDd746iFW7T8BqYxin4TMiJgTzx6diwcRUJER4biBva2vDY489hvfee88dq28CcCeAT/mKZghXRADXarX4zW9+g1//+tc87/sS9PVbUdPUgZqWTtQ0f/urob0bDgc3pfm+wB7ib0R4kC/CAlxTR6OC/REd6ofIYH9EBfvBz8gNuRR1n/T1YdWqVfjoo4+wefNm3H///fjTn/4EHx8fNs7ZH1w4HCipbUV+WT2OlzfiWHk9qho72DASM3rpkBARhNTYUGTEhyE9LhypsaEwenGZ1lCqb+vG2+v2Y+3eQn6oRMMuLTYUV+Rk4IrJ6QgN8MzfPRs2bMB9992HyspKd6u6E8DvATzFVzJD+A95DMDf5V7JzMxMvP/++5g4cSJ77AJZbXZUNLajtLYVJXWtKKltQWltK+rbutk4w8DXWz8QzP0RHx6I+IhAxIcHIiEiyGN/eSrmXrJauefEAJvdgWPlDdhfWIVDRbUorGqCqd/KhpEhtUqFhIggpMeHISMuDOnx4ciIC+MHhkOgurkDb63dj68PnOIH1zT897JahSmZ8Vick4G541LgpdN61PX39PTgN7/5DV555RU43O/Dr38CuB+Aja9khvCz/RLA3+T9xqPGww8/jD/96U/w9uaU4B9isdpxsqoJxysaUVDZiOKaFlQ2tnN3V5nwMejPBPOEiCAkRASdCelcm05yV1rXitzCauw/WYXDRbXoY+h234cfFZAQEYTs5CiMHRGN0cmRSIwI5lT2i1Te0IZ/rNyDnfllbAyS7HnisvEjsHRaFsaNiPaoa9+9ezfuuecenDx50t2qvgHADQA4CsYQ7h4BPCEhAe+88w7mzp3L3jqL0wlUNbXjeHkDTlQ04nh5A4pqWhi43VSIvxEJkUFICHcF8xExIUiNCeXoOQlj6rdiz4lK7DhahtzCKrR29bFRFMzfx4AxyVEYnRyJsSnRyEqMgEGvZcMMwuGiWrywchcKKhrZGCSZpMhgLJs1CldOyYS/h8xwMZlMeOKJJ/DKK68MyTGjEjoAYCkAj3+T8PQQ/jiAv8q5gnfccQdeeOEFBAQE8F0Wrk/bD56qwYGTNThcXIuOHh5DqHTBft5IjQ1DelwoRsSEIi02DImRQTy+iIZFV68Zu45XYGd+OfYcr+BotwfTqNVIiw3F5Mw45GTEY2xq9PeeVEHf5nQCWw4X4x9f7EFtSycbhCSj12owa0wyls0YhUkZcR4xs2Xz5s244447UFtb61aP8wAWAzjpya9XTw7hTwL4X7lWLjQ0FG+99RauueYaj35DrWvpwsGiGhw4WY0Dp2oUdVYuXTydVoOU6BCkxoQgNTYMqbGhSI8Nhb8PNyqkwWvu6MW2IyXYlleKw8V13GiKvpfRS4fxaTGYlB6HSRlxSI0J5fT1c7DY7Ph021G889UBdJ117CaRFFKiQ3DjnGwszsmAt8I3ZmxtbcX999+PFStWuFW1AVwNYDdDuGd5AsCf5Vq5yZMnY8WKFYiLi/O4jnE4nMgvq8fO/HLszC9DRUM7f5PQBYsI8kN6XCiyEiIwMikCoxIjufkSfS+zxYbtR0qxbt9J5J6s4qZSNGhBft6YmpWAGaMTMTUrge81P6Cr14w31+Vi+fZj/ICLJOdj0OOqaVm4ef44RAX7Kfpaly9fjvvuuw/t7W7z7GyCa434OoZwz3ALgA/keu333XcfXnzxRXh5ec4v875+K/YVVGJnfjl2HavgFHMaujc4FRAfHoSRiREYlRSJUYkRSIsL41R2D1ZY1YQvvjmODQeK0Gu2sEFoSKjVKqTHhmFmdhJmZichMz6cjfIdlY3t+NunO7G3oJKNQZLTqNWYNy4FN102FtnJUcq9zyorcdttt2Hnzp3uUmUbgLsBvM8QrmzzAHwFQHbbMHt7e+O1117D7bff7hEdYeq3YsfRMmw4UITcwipYbHb+hiBJ6HUaZMSFY2RixJlwHhvGPReUrLmjF1/sOo41ewp4NCFJIi4sEDOzEzF7TDLGjYiBWs1566dtOlSMF1bsQmM770USY1RSJG5fNAGzxyRDrcA1JXa7HU899RT+9Kc/uctRZnYAPwPwFkO4Mk0AsB2Ar9wqlpycjM8//xxjx45VdAfYHQ7sK6jC1/tPYcfRMm54RLIR6OuNUUkRGDciBuNGuHZF5mi5+yusasInW49iw4FTPDWBhAnwMWDG6CTMnzACU7MS+N4C13KQ9zcewrsbDsJi5YfwJEZsWABuWzgBV03LUuR9uW3bNtxyyy2or693h+o64Vou/DdPef15SghPArAHQKTcKnbllVfigw8+QFBQkGIbP7+sHl/vP4VNh4rR3s2p5iR/Br32zPnBE9JiMCopEl46HlXkLg/3X+0/ieXb81FU08IGIVkJ9vPG3HEjMH9CKiakcoS8prkTzy3fiZ355XxxkDBRwX64Zf54XDNjpOKOJWxqasJPfvITbNq0yV2q/Ge4Ns9mCFeAUAC7AKTLquFVKvz2t7/Fb3/7W6jVyvv0rddswfrck/h85zGU1LbyHZ7cmk6rwcjECIxPjcHYEdEYmxIFo0HPhpGRtq4+fLQlD198c5w7MZNbCPLzxoIJqVick4FRSZEe3RbbjpTir5/sQFNHD18YJEywvxE/mT8eN87JVlQYt9vtePrpp/HMM8+4y/T0VwE8BEDRU9iUHsKNALYCyJHVA71Oh7feekuR679PVTfj853H8PX+U5xuToqlUauRHheK8WmxmJweh3Gp0Yo/AkWu6tu68e/Nefhi13GYLTY2CLmlhIggLJqUhiunZCAm1DP3qDD1W/H2+v34YNNhnlZAQgX5eeMn88fjx/PGKGoWnJtNT38Prg3bFLteRckhXANgBYBr5FQpf39/rFixAgsWLFBMQ1ttdmw4UIQVO4/heHkD373J4+i0GoxOjsSUzHhMzohDVkIEN2IaZrUtnfhk61F8vvMYN3YkxVCrVMhOicLinAwsmpQGHw+ccXOquhnPfLgFBZVNfEGQUBFBfrh78SRFrRmvra3Fddddh9zcXHeo7mdwnWqlyE/YlfyU+CaAn8qpQlFRUVi3bh3GjRuniAbu67fiy90FeH/TITS1cwoZ0WlGLx1GJUciJyMekzPjeFzRECqrb8Oba3Ox9XAJHE6OlpFyGfRaLJiQimWzRmO0h01Xt9kd+PeWPLy5NpczXEi4mNAA3LtkMq6YnKGID9j7+/vxs5/9DO+88447VPcDAHdCgSPiSg3hvwLwFzlVaNSoUVi/fj3i4uLcvnHbuk34dNsRLN+ez7WXRBcgKtgPkzPjkZMZhymZ8fD3MbBRBqmpvQdvrM3Fmr0FnKpKHic1JhTLZo3C4pwMjxodr23pxB8+2IKDp2r4IiDhkiKD8fB10zFzdJIirufNN9/Egw8+CKtV9stH3x8I4opaI67EED4PwEa4pqPLwty5c7Fy5UoEBga6dcPWtXbhw02HsXp3Afqt/GSa6GKo1SqMSY7C9FGJmD46EakxoWyUc+jq68d7Gw7ik61H+b5DHk+v02BWdjKWzRiFyZlxHnHNTifwxa7jeOHzXegzW/giIOEmZ8bhF9fNRFqs+//+3rVrF66//no0NjbKvarvAbhLSUFcaSE8DsAhAGFyqdDNN9+Md955B3q9+35y3drVh7fX7ccXu47zrF2iIRYR5IfpoxIwY3QiJqXHcYO3ARarHZ9sO4p3NxxEV6+ZDUL0HVkJ4fjxvLFYMCEVOq1G8ddb29KJ37+/BYeKOCpO4qlVKlyRk4GHrp2G0AAft76WmpoaLFu2DAcOHJB7Vd8BcI9SgriSQrgXgB2Q0U7od955J95++223PYKsx2TB+xsP4eOtR2DiTudEw06v02BCaixmjE7E9FGJiA3zzF2SvzlWjr9+ugN1LV18URCdR7C/EdfPGo0b52Qj0Ndb0dd6ZlR8xTc8gYVkweilw+2LJuLWBeOh17nvh2Emkwl33303Pv74Y7lX9V9w7fnl9kFcSSH8dQD3MYBfOqvNjjV7C/H6l3vR1m3iOyyRIDGhAZiVnYT5E1KRnRwFlcI3XK9u7sDfP9uJXccq2PlEg6TXarBgYhpuXTAeI2JCFH2tdS1d+P0Hm7lWnGQjNiwAj984GzNGJ7rtNTidTvz+97/H008/Dae8Nz79J4B73T2IK+WR7g64pijIwl133YW33nrL7QK40wl8tf8kXl29Fw1t3XxHJZKRyGA/zB6TjDljUzA+NRoatVox12bqt+Kdrw/iw02HedwY0aU+2KmAnMx43LZggqLXjTucTny4KQ+vfbkXVr5vkEzMyk7C4zfORnSov9tew7vvvov77rsPFous92D4B4CHGcLFGgdgNwBZzMG6++678eabb7pdAC+ta8WfP96Ow8W1fAclkjl/HwNmjk7C7DHJmDYyAQa91m2vZduRUvzt051obOcHf0RDbWRiBO68fCJmjUmGWqFTaU5VN+N//rkB5Q1t7HCSBS+dFrcvmoA7Fk102ynqW7duxXXXXYeOjg45V/NpAE8xhIsRDOAgAFmcFeCOI+Bmiw3vbzyEd74+yE+Sidz0l/3Dy6bjxjlj3Gq6enu3CX/5ZDs2HSpmJxINs+ToENyxaAIWTUpT1Cyas59lXvj8G3y+8xicPMGQZCI+PBC/vmUeJqXHumX9T5w4gSuvvBKVlZVyrubDcI2KM4RLSA1gLYAr5FCZe+65B2+88YZbBfCteSX4+2ffcASKyI1dNS0L/3PrZW41yrXpUDH+8sl2tHPPCSJJRYf647YFE3DVtCy33kTqh3xzrBx/eH8z97Mh+QQtFbA4JxO/vGEm/H0Mblf/hoYGXHXVVXLeOd0J147p/2IIl85v4ZqGIJy7jYA3tHXjTx9txZ4TlSAi97U4JwNP3bHAbQJ4W1cfnv14G7bmlbLziAQKD/LF3VdMwlXTshR3vFlbVx+een8T9hznMw7JR1iAD568eS5mj0l2u7r39vbipptuwpo1a+RaRRuAZQDWuFO7uus77yQA78M1Gi7UlVdeiY8++ggajXs05eZDxfjFK1+ipK6V74hEbmzhxDT8/s6FUKvdI4BvOlSMR17+Eiermtl5RKIfqs0W7DpWga/2n4KPQY8RMSGKWTPu7aXD5ZMy4O2lw8FTNXLf5Zk8RF+/FRsPFuFkVRPGpcbAx6B3m7rr9XrceOONqKmpQV5enhyrqAZwDYBdANzm0zd3DOHeAL4GEC66Ijk5OVi7di28vLxk32ht3Sb8v3c24u31+9Fv5dpvInc2d2wKnrn7cmg08p9902+14cXPd+GFz3eh32pj5xHJSHdfP3YcLcP6fSfhpdciPS4MKgWEcZUKGJMShekjE5B7shrdff3sbJKFysYOrNlbiPAgX6TGhLpNvdVqNa666iq0t7cjNzdXjlXUwTUavhFAPUP48Pg7gCtFVyI1NRWbN29GYGCg7Bts+5FSPPLyahRWNfHdj8jNzcpOxp/vXQytGwTwoupm/PzFVTz3m0juYdzUj2+OlWNLXinCAnyQGBmsiOsKC/TF4pwMlNe3oaqpgx1NstBvtWFbXilK61oxOSPObU44UalUuOKKK+Dt7Y3NmzfLsYpeA0F8JYB2hvChdRmAlyF4LXtERAS2bt2K2Fh573bYa7bgTx9txcur9sBk4QgUkbubkhWPv95/pezXcDoBfLr1KH799ldo7epjxxG5ifZuEzYeLMaBk9VIjgpGeJCv21+TQa/FoknpMBp0OFRUAwenp5NMlNe3Ye2+QiRFBiM+ItBt6j1jxgyEh4fj66+/luNyDx8AlwP4GICsd2h0pxAeANc0dKGvUl9fX2zcuBGjRo2SdWOV1rXiZy98gQMna/guR6QAWYkRePHBq2X/iXl3Xz+efPMrfLLtCOwOPuwSuaOGtm6s3nMCFQ3tyIgPg7/R4NbXc3p6+uTMOOwrqEav2cJOJlkw9Vux4eAptHT2YmJ6rNtslDhp0iSkpqZizZo1cDgccqteCIBpA0FctqOQ7hTC3wQwS2QFtFotVq5cidmzZ8u6ob7efwq/fG0tWjs5AkWkBLFhAXjtF9fK/niT4toW3P/8Fzhe0cBOI1KA0rpWrNhxDE0dPRiZFAlvL51bX09EkB+unJKBk9XNqG3pYgeTbBRWNWHH0TKMTo5EaICPW9R59OjRGDduHFatWgWbTXZZNx7ACLimpjOEX4JlAP4ksgIqlQpvv/02brjhBtk2ks3uwN+X78Q/vtgNm90BInJ/If5GvPnL6xAR5Cfrem48WIRfvrYWbd388I9ISRxOJwqrmrB69wnodVpkJYS79U7qBr0Ol09Oh6nfimNl/MCQ5KO9x4TVuwug12owJiUa7nCbpaWlYebMmVi+fDmsVqvcqjcKgB7AFobwixMBYD1cc/yFefzxx/HEE0/ItpGaOnrwyCtfYuvhEr6LESmE0aDHq49cg+SoEPk+oDuceHnVHjy/4htYbfzwj0ip+q127D1RiU0HixEfEYi4sEC3vRa1SoWpWQlIjAzCnhOVHLgg2XA6ndh/shqnqpsxNSseXm6waVtCQgJmzJiBFStWwGKR3VKPmQDqAByWW8Xc4aPM1QCuElmB2bNnY/PmzdBq5XkjHCmpwxNvrkcbN0AiUgydVoMXH7wKkzPiZFvHzl4zfvP218gtrGKHEXmY+RNS8YvrZiAy2M+tr6O4tgW/en0dapo72akkK5HBfvjTPZcjOznKLeq7c+dOXHnllejp6ZFb1WwAlgDYIKdKyX0k/FYATwq9ASIjsWnTJgQEBMiygbbmleLx19ehx8QzMImUQqUCnrpjIeaMSZZtHaubO3D/cytRUNnIDiPyQGX1bVj5zXE4ncCoxEho3ODYxO8T4m/E4imZKK5tQXUTgzjJR4/JgrV7T7rN9PSEhIQzU9NlNiKuhmtAdz0A2Ty0yDmEBwL4EoCw8zF0Oh3WrVuHkSNHyrKBPtl6FH/4YDOnUREpzN2LJ+GmeWNlW7/80no88MIqNLb3sLOIPJjN7sDBUzXYcLAICZFBbjtF3UunxaKJ6ejjOnGSmdPT04trWzBtZCL0OnmPnyYkJGDKlClYsWKF3NaIe8E1Gv5vAL0M4ef2FwDzRFbgpZdewvXXXy/DGxL4xxe78dqXe8EDgIiUZd64FDx581yoZPqR99a8EvzytXU84oeIzujq68dXuadwsqoJ41Jj4GPQu901qAbWiUcE+WJvQRUcPGKRZKSioR1bDpdgckYsgvyMsq5rUlISZs2aJccR8QAAUwB8BMDOEP79xgJ4C67pA0LcfPPNePbZZ2XXMBabHb99ZyNWfnOc70hECpMRH47nHlgKvUzPCXXNvtnC2TdE9L0qGzvw5Z4CGHQ6ZCVGyPbDxPO9D09Kj8OuY+UwWWzsVJKNrj4z1ueeQkp0CBIigmRd14SEBEydOhWfffaZ3I4viwcQDmAtQ/h/UgH4FECSqApkZ2dj9erV0Ol0Mrv5+vHQS6uw50Ql34mIFCY80BevP7oMAb7yOwvc4XTiz59sx9vr93P2DRGdk8Vqx54TlThUVIvRyVEI9PV2u2uIDPbDvPEjsP9kDdq7TexUkg2rzY6NB4vQb7VhUkacrD/oSkpKwuTJk/HZZ5/BbrfLqWoT4VobfpAh/NtuB/CIqMIDAwOxefNmREREyCuA95rxwIurcKKCmyARKY1Br8XLj1wjy0+2bXYHfvfuJny5p4AdRUQXrL6tG6t2nYDTCWSnREGtdq9RcX+jAYtzMlBU08wN20h2jpbW42RVM2aMTpL1OvGUlBRkZWXh888/h9Mpq4/xFwHYDkDY8S5y6zV/AKsACDvv4u2338acOXNk1Sjdff148B+rUVjZxHcdIoVRqYA/3LUIOZnxsqubxWrHf735FbYcLmFHEdGg2R1OHCyqwa7jFRidHIkQf6Nb1V+v1WDRxHS0dZv4DEayU9XUgW+OlWPayAT4Gw2yrWdmZibCwsKwbt06OVVLA9eO6csBdDCEA38DcJmowq+55ho888wzsgvgP3/xCxTwzZ9IkW6ZPw63zB8nu3qZ+q345WtrsedEBTuJiC5JS2cvVu8+AZPFivGpMdCo3ec4M5VKhZmjk+BvNGBfQRWX5JCstHeb8FXuKWSnRCEq2E+29Zw0aRK8vLywZcsWOVXLCGAmgA/gOkvcY0P4WAjcjC08PBzr16+Hj48PAzgRSSI7OQp/uHOh7B5Iu/v68dDLq3G4qJadRERDwuF04mhpPXYeLcfo5EiEBvi4Vf1HJUUiOToEO/PLYOfO6SQj/VYbNuw/hdiwQIyICZFtPWfOnAmTyYTdu3fLqVpRAJIBrPTUEK4C8DmABFEV+OSTTzBunHxGo7r6+vEgAziRYoX4G/H6o8vgZ/SSVb26+vrxs+dXooD7TxDRMGjr7sOavYVQq1QYkxLtVjuoJ0cFY+yIaOw4WgaL1c7OJNmwO5zYdsS1dGxCWqxs6zl//nzU19fj0KFDcqrWaLimpO/zxBB+B4CHRBV+zz334PHHH5fNK6HXbMHPnv8ChVUM4ERKpFGr8fzPlyIlWl6fWPeYLHjwpVV87yGiYeVwOHHgVA32FVRhYnos/H0MblP36BB/zMpOxq5j5egxWdiZJCuHimrR1t2HqSMToJbhB1wqlQqLFy9GQUEBCgpkteHrXLiOLWvwpBBuAPAFXJuySS4pKQmrVq2Cl5c8RqNsdgcef30tjpTU8Z2ESKF+cd0MLJqUJqs69ZkteOgfq3G8vIEdRESSaOrowdp9hYgI9kNqTKjb1DvIzxsLJqRhX0EVjzAj2SmobEJhZRNmj0mGTiu/ndPVajWuuuoqbN++HdXV1XKplhbAHADvArB6Sgh/GMANol4EX3zxBdLS5PEw7HQCf/hgM7bmlfIdhEih5o1LwWM3zIKcPqA29Vvx8Mtf4mhpPTuIiCRlsdmxLa8UVU0dmJwRL+vjls7mY9Bj0cQ05JXUobG9hx1JslLd1IF9BVWYOzYF3l462dVPq9Xi6quvxurVq9Ha2iqXaoUCCAewxhNCuC9cW8ML2Z3j8ccfx09/+lPZvCBfXrUby7fn852DSKEigvzw0kNXw6DXyqZOZosNj766BoeLuQkbEYlTUtuKDQdOITMhQta7PJ/NS6/FwolpOFXdjOpmniVO8tLS2YtvjpVj9phk+Hp7ya5+RqMRixcvxieffILe3l65VGs8gIKBL0WH8CcALBFRcGpqKj777DNotfJ4GP5sez5eXb2X7xhECqVWqfC3+69EUlSwbOrkcDjx67e/xp4TlewgIhKux2TBun2FcDqBcakxbrFpm06rwcJJaWhs60ZRTQs7kWSlo8eMbXmlmDEqCQG+8tt7ISgoCHPmzMFHH30Eq9Uql2rNB/BvAF1KDeHBAD6Fa0245D744ANkZmbKoqd35pfjqfc2wckTL4gU654rJ+OqaVmyqY/TCfzxwy3YcKCInUNEsnpvOlRUi7ySOkzJiofRoJd9ndUqFWaPSUFfvwXHyrivBslLj8mCTYeLMTkjTpZHA8bExCA7OxufffYZnPIIQ95wHVv2iVJD+O8AXCai4GuvvRb/8z//I4sXXkFlEx55+UvY7A6+SxAp1JiUKPzu9gWy2qn01dV78Om2o+wcIpKlutYubDhQhMyEcESH+Mu+vioVMDUrAQ6nk8t7SHZM/VZsPFiEMSOiZbncIz09Hb6+vti4caNcqpQBIA/AKaWF8CgAHwGQfKcAb29vfPnllwgMDBTeu129Zjzw4hfo6OHOmkRK5eutxyuPXIsAGR3Bs2LHMby8ag87h4hkra/fivW5J13T00e4x/T0iemxMOh1yC2sYgeSrFhsdmwc+GArLjxQdvWbOnUqWltbsX//frlUaRqAtzBMu6WLCuHPApguouCnnnoKV111lfBedTideOKN9Sio5Hm8REr21B0LMHZEtGzqs+lQMf7w/mZw9QsRuYPT09OPlTdg2sgEGPQ62dd5TEoU/Ixe2FfA/TZIXuwOBzYfLkFabCgSIoJkV79FixbhwIEDKCkpkUN1AuE6umyzUkJ4IoB3RJQ9YsQIfPDBB7LYjO21L/fhyz0FfDcgUrCFE9Nw75Ic2dTnaGk9Hn9tLWwOLn8hIvdS09yJzYdKMC41WpbrWr9rdFIkQgN8sPt4BT/0JFlxOJzYmlcqyyCuVquxePFifP7552hra5NDlSYD+ALAkI+aigjhzwOYIKIV5bIZ2878cvz5k218FyBSsCA/bzz/86tkcz5nXWsXfv7CF+gxW9g5ROSWuk39WLuvEGGBvkiPC5N9fU9P+91xtFwuG04RyT6Ie3t7Y+HChfjggw/Q398vujoaAFkA3nP3EJ4B4A0AaqlbUC6bsVU3d+CRl79Ev9XOdwAiBXvm7suRGR8ui7r0mi144IUvUNfaxY4hIrdmdzix42gZOnrMyMmMh1ot73XiI2JCkRARiO1HyhjEiUH8AoWGhiIrK0suO6YnAsgFMKRz5KUO4X+GgFFwo9GINWvWCN+MzWyx4ecvfoGGtm7e+UQKtjgnA3dePlE2v2T/6831OFpaz44hIsU4UdGIg0U1mD4qEUYvea8TT4kOQVJkELYxiJNMg3hqTCgSI+UVxDMyMuB0OrFjxw45VCcLrk3a3DKERwL4F1wL3CX161//Gtdcc43w3ntu+Tf45lg573giBQsN8MHzDyyFl14ri/o8v2IX1u07yY4hIsVpaOvGhv2nMD4tFmGB8l4nnhwdguSoYGzLK2UQJ9kF8e1HSpERH454me2aPnv2bBw9ehQnTwp/jokCUADghDuG8F8DmCt1i4WEhODTTz+Fl5eX0J7bX1iNv362nXc6kcI9c8/lSIuVx1rFNXsL8fIXu9kpRKRYff1WfLX/JBIjg5AUFSzvIB4VjPjwQGw/WgrmcJITu8OJbXmlGDciGlEh/rKpl0qlwpIlS7B27Vo0NQk/UWosgNcADMnutlKFcB8AHwIwSt1aTz/9NObNmye0x3pMFjz0j9XoMXFDJCIlW5yTgTsWyWMa+qnqZvzq9XWwcyd0IlI4m92BzYeLoVGrB84Tl29dR8SEIDYsEDuOljGIk8yCuAPbjpRiSla8rE4g0Ov1WLhwId577z3RG7WFAKgBcNidQvi9AK6XuqWioqLw4YcfQqcTu1bojx9uQV5JHe9uIgXz9zHguQeWymI39K6+fjzwwhdo7zGxY4jIYxw8VYOKhjbMGJ0ErUYt23qmxrg2wtp2hCPiJC8Wmx1b80oxY3QSgvy8ZVOv4OBgpKSkYPny5aKrMhLAK8ClnzwoRQhXA/gIgORzhP7yl79g2rRpQntq+5FSvLJ6L+9qIoX7r5vmYOyIaOH1cDidePKt9ThR0chOISKPU1bfhv0nqzEzO0nWG7alRIcgIsgPO/PL2GkkK2aLDTuOlmHuuBT4Gb1kU6+RI0eioqICR48eFVmNIADH4FoffskBebhdA2CE1C2UmJiIu+++W+iLpb3bhD99tJV3M5HCjU+LwdKpWbKoy7/WH8CuYxXsFCLyWMfLG3Dnnz9DeUObrOt51bQs/OpHs9lhJDtNHT34+Qur0NrVJ6t6vfLKK0hPTxddjSeG4odIEcJ/KaJ1nn76aej1eqE99IcPtqCtm9NBiZRMr9Xgv2+ZJ4s1iLmFVXhzbS47hYg8Xl1rF+7+6wrZLwe8cc4Y3L90CjuMZKe6uQMPvbRKVnta+fj44J133oFaLXS5ySQAMy71h2gkqOTvpW6Z9PR0vPbaa0I7aGteKd5ev593MJHC/fTKHMwbN0J4Pdq7TXjwpdXoNXMDSCIiAOi32rBh/ynEhAZgREyobOs5Pi0GZosNR0vr2WkkK61dfcgvr8eiSenQqOWxz0JcXBxqa2tx+PBhkdUIBvCpnEP4i3Adbi6pN998EyNHjhT6pv/LV9ei29TPu5dIwRIjg/CHuxYJ/8XkdAJPvvUVTlU3s1OIiM5idzix7UgpDHodxqREybaekzPi0drVi8KqJnYayUp9azdqmjsxb9wI2Zw8MH36dLz77rvo7e0VVYU0AJ8AaJVjCE8C8CqkmfJ+xsSJE/Hcc89BJfBV8ubaXOzML+ddS6Rwf7zrciREBAmvx8dbj+Cz7UfZIUREPyC3sAodPWZMHZkg9Bnxh6hUwPTRiahu7kRJbSs7jGSltK4VKhUwIS1WFvXx9vZGWFgYVq9eLeyWBWAGsOlif8BwBuSHIN0RaGc8+eSTQt9cq5s78OHmw7xbiRRuztgUTMmKl8UvxpdX7WaHEBGdx2fbj+K/3lgPi80uy/qpVSo8dfsCTBuVwM4i2XlrXS7W7C2UTX1uv/125OTkiKzCbQAu+giG4QrJegDvATBK2RJJSUl49dVXha4F/+07G1HR0M47lUjB9FoN/nr/lQjwMQith9lik+XupUREclXR0I5jZQ2YOzYFOq1GdvVTq1WYO3YEDhbVoLG9hx1GsrL7eAWyk6MQExYgvC4qlQrx8fH48MMPRVXBF0AegJMXda8PU6WuAiD5DhiPPvooNBpxb6hb80qx+3gF71AihfvJgvGIDw8UXo8XP98l+yN4iIjkZv/Jajz40mp09ZplWT+DXou/378E8RGB7CySFZvdgV+9sQ7FtS2yqM/ChQsxb948kVW462L/olpuFbpYQUFBuPPOO4X1QL/VhhdWfMO7k0jhwgN9ccflE4XX48CpGqzYmc8OISK6CPll9bjnbyvQJNPR5iA/b7z+i2WICPJjZ5Gs9JotePSVNbI5hvmZZ54RuRT5cgDRcgnhsQAWSt0C9957L3x9fYW9AN7bcAh1rV28M4kU7uFl02H00gmtQ5/Zgt+/twlOJ/uDiOhildW34Z6/r0Bdizyf38KDfPHCg0vh661nZ5GsNLR147/eWAeb3SG8LlOmTMHChQtFFa+Fa224LEL4HZB4QzadTocHH3xQWOd39prx0eY83pFECpedHIVFk9KF1+OFz3ehvq2bHUJEdInqWrpwz99XoKqxQ5b1S40Jxd9/tkSW69fJs+WV1OGvn+6QRV1++ctfiiz+R3II4SoAt0t95TfddBNiY8Vtmf/u1wfRa7bwbiRSuIeXTRd+Rub+wmp8ses4O4OIaIg0tffgnr+vkO3RYBPSYvH0HQsgw5PVyMN9vvMYVn4j/plkwYIFGDt2rKjixwIYMdi/NNQfq80B8JjkIfjddxEZGSmk1Vs6e/HbdzbKYjoGEQ2fOWNTcNvCCULr0Gu24MGXVqPHxA/9iIiGkqnfis2HS5CTGY/QAB/Z1S8lOgRqlQoHi2rYWSQrewsqMT41BlEh/kLrYTQasWrVKlHF1wPYNZi/MNQj4ZJvyDZ//nyRn3zgrXX7YbbYeAcSKZhGrcbPr5kqvB4vf7EHje2chk5ENBw6eky4//mVyC+rl2X97rlyMq6bNZodRbJiszvw5NtfCX8+uemmm4QNygK4frB/YShDeACA66S+4scee0xYZ9e2dGL17hO8+4gU7tqZI5EUGSy0DsfKG/D5zmPsDCKiYdTd14+HXlot2yD+qx/NxuTMOHYUyUpbVx8efXWt0IFJnU6HW2+9VVTxEwCkiArhPwZglPJqExMTsWjRImGd/caaXE5DJ1I4o5cO916ZI7QONrsDf/pwKxzcDp2IaNj1mi14+B+rcby8QXZ102rU+Mu9VyIlOoQdRbJSVN2Mv3yyXWgd7r77bpHHlV0jKoRLPhX9zjvvhFqtFtLKZXWt+PrAKd5xRAp368IJCPY3Cq3Dh5sOo7i2hZ1BRCSRHpMFD760CgUVjbKrm6+3Hs8/sBSBvt7sKJKVL/cUYMOBImHlp6enY9q0aaKKv1xECM8CMFnKq1Sr1bjjjjuEdfJb6/bD4eCoFJGSBfgYcMtlY4XWoa61C//86gA7g4hIQBB/4MUvZBnEo0P98bf7r+TRZSQ7f/lkOzp6TMLKv/vuu0UVPRPABe/qOFQh/Aapr3L+/PmIj48X9lC8Na+UdxmRwt2+aAKMBr3QOjz7720w9VvZGUREgoL4gy+twsmqJtnVbeyIaDx6/Qx2EslKZ68ZL63cLaz86667DgaDQUTRXgDmSh3CJd+Q7a677hLWuf/ekge7g2vBiZQs2N+IG2ZnC63DjqNl2HOikp1BRCRQV18/fv7iKpTWye8c8RvnjME1M0ayk0hW1uwtwAlBM0j8/f0xf/58UZd+wZuVDUUITwUg6XkJwcHBuPrqq4W0bK/ZgjV7Cnl3ESncHYsmwttLJ6x8i82OFz/fxY4gIpKBzl4zfvb8SlQ0tMuubk/eNBfj02LYSSQbTifw4kpxzzDXXXedqKKvlDKEL5P66m655RZR0wywYscx9JotvLuIFCw0wAfXzRoltA4fbjqMqqYOdgYRkUy0dZvw8xdXoa61S1b10mrUePaeKxAR5MdOItk4XFSLA6dqhJR99dVXQ68XspwwCUCyYkO4qKnoNrsDn23P511FpHB3XTEJXjqtsPKbOnrw7tcH2RFERDLT2N6Nn7+wCq1dfbKqV7C/Ec8/sAQGvZadRLLx3gYxzzJBQUGYM2eOqMueJUUIjwUwScqrGj9+PMaOHSukRTceLEJjezfvKCIFiwjyE76+7qWVu9HHzdiIiGSpurkDD764Cl19/bKqV1pcGP7frfMh7phkom/bV1CFoupmIWUvWrRI1GVPlyKEXwdA0ltd5IZsH23O491EpHC3LhgPvcAjX/JL67HhwCl2BBGRjBXXtuAXL38Js8Umq3otmpSG2xZOYAeRbHyy7aiQcq+44gpRlzxTqhAuGb1ej5tuuklIax44VYNTgj7JISJpBPp64+rpWULr8OLKXXA62RdERHKXX1aPJ99aL7sTc35+zTTMHJ3EDiJZ2HSoWMh+WpmZmUhISBBxyWkAwoczhEcAmCblFc2fPx/BwcFCXkArdnAtOJHS3TJ/nNAd0bfmleJoaT07gojITew6VoE/fLBFVh+eqlUq/OGuRUiMDGIHkXCmfis2HSwWUvbChQtFFKvCBUxJv5QQfjUASedsitpuvrPXjG/yy3kXESmYj0GP62eNFla+3eHAa6v3siOIiNzM2r2FeHnVblnVyddbj+d+thRGg54dRMKt2VsgpFyB54UPawiXNBFrNBosXbpUSCuu23cSFpuddxCRgv1o7hj4Gb2Elf/5zuMob2hjRxARuaH3NhyS3d5B8RGB+O9b5rFzSLj8snohm1vPmDFD1CVPHK4QHghgjpRXMnv2bISFhQlpxbWCPr0hImkY9FrcNG+ssPL7zBa8vX4/O4KIyI29+PkubDpULKs6LZqUhqumZbFzSCinE9iWVyZ5udHR0UhKErI/wjicZ/Pyiw3hiwFIOr9l2bJlQl40BZVNKKpp4d1DpGBXTx+JID9vYeV/uDkPbTI7c5aIiAbH4XTid+9ulN3eHk/8eA5SokPYQSTU1rwSIeXOnDlTRLH+AFKGI4RLOsFepVLh6quvFtJxX+45wbuGSMHUapXQUfDuvn58svUIO4KISAEsVjsee3UNqho7ZFMng16Lv953JdeHk1BHSuvQ1WuWvNzp06eLuuTxbh/Cp06ditjYWCFvpBsPFPGuIVKwOWNSEBsWIKz8DzYdRldfPzuCiEghOnvNeOgfq9HWbZJNneIjAvE/P+H6cBLH4XDiwKkaycudOnWqqEseN9QhPB1AnJRXIGoq+pa8Ej4cEyncT+aPE/qg9sm2o+wEIiKFqW3pxKOvfAmzxSabOi2cyPXhJNbegkrJy8zKyoLRaBRxuUM+Ei75Xu/XXnutkBfKl7s5FZ1IyUYlRSI7JUpY+e9tOIQ+s4UdQUSkQCcqGvH79zfL6gzxJ348ByNiuD6cxMgtqJK8TI1Gg1GjRom43JFDHcIXSFn7cePGITk5WfJWa+7oxaGiWt4tRAp2i8BR8PZuE1bsyGcnEBEp2MaDRXjn6wOyqY9Br8VfuD6cBKlv6xZyVNn48eNFXG40XBu0DUkI10Lio8lEjYJvP1oKh5w+uiSiIRUV7Id541KElf/exkPo67eyI4iIFO71L/dhZ365bOoTHx6IJ2+aw44hIY6USH96wLhxQgZdVAAyhiqETwIg6Q5GV1xxhZAXyJbDJbxLiBTshjnZ0KjVQsru7DVj5c5j7AQiIg/gcDrx//61AeUNbbKp0+KcDFwzYyQ7hyR3tLRO8jLHjBkj6nKHLIRLuh48JCREyPSBzl4z8orreJcQKZRepxG6Oc0nW49wFJyIyIP0mi345atrZbXh7+M3zkZiZBA7hySVX9YgeZmZmZkM4YMxb948qAWMVG0/Ugq7w8G7hEihFk1MQ6Cvt5Cy+8wWfMod0YmIPE5VUweefGu9bJ4xDXot/njXImg1anYOSaa0rhVWm13SMv39/REdHS3icjOHIoT7ApgiZa3nz58v5MWxNa+UdwiRgt0wO1tY2ct3HOPRh0REHmp/YTVeWrlbNvXJiA/H3Ysns2NIMlabHWX10i/NEDQaPmIoQvhsAJJupSgihPeZLThwqpp3CJFCZcSHIysxQkjZFqsdH289wk4gIvJgH23Ow2oZHYN71xUTMTopkh1DkjlZ1ST9819GhohLTRiKEC5pIk5MTBRyNNmO/HJYrHbeHUQK9aO5wjbnwJd7CtDS2ctOICLycH/+ZDuOlzfIoi4atRpP37kQ3l46dgxJoqimxVNCuB+A0EsN4fOkrPHChQuFvCi25XFXdCKlCvAxYOHEVCFlO5xO/HtrHjuBiIhgsdrxq9fXoblDHh/MxocH4hfXzWDHkCQqGtolLzMpKUnU5SZeSgj3AyDpOQYipqKbLTbsLajinUGkUFdOyYCXTiuk7F3HylHV2MFOICIiAEBzZy9+9cY6WGzymIG5bOZoTB+VyI6hYSfiuL7ERGGv7UsK4RMAaKSqqVqtxty5cyVvoUNFNTDx2CAixVoq8FiyDzdzFJyIiL7teHkDXlq5SxZ1UamA392+AMF+3uwYGlbNHT3oNVsYwi9AjpQ1HT9+PEJDQyVvof0nuSEbkVJlJ0chNSZUSNknq5pwuKiWnUBERP/hk61HsVUmyyGD/bzxm1vmsVNoWDmdQKXEswN9fHwQFhYm4nLj3SaEizqaLLeQU9GJlOrq6eJGwT/iKDgREZ3DHz7YgtqWTlnUZc7YFCyZmslOoWFVJ+D1Lmg0POpSQrikBwjOmyf9J3BtXX0orWvlHUGkQEYvHRZMTBNSdnNHLzYdKmYnEBHRD+ru68eTb34lm/Xhv/rRbEQF+7FjaPhCeGu35GXGxsaKuNTIiw3hsQBipKqlWq1GTk6O5K2Te7IaTidvCCIlWjAxDUZBR698ses4bHYHO4GIiM6psKoJL6yQx/pwH4Me/++2+VCp2C80PBrauiQvMyoqSsSlXvRIuKSJOCsrC/7+/pK3zn5ORSdSLFFT0W12B7745jg7gIiILshn249iy2F5rA+fnBGHpVOz2Ck0LOpapQ/hkZGRDOE/WJiAUXAA2H+yhncDkQLFhwdidJKQTz6xNa8EzZ297AQiIrpgT7+/GZWN7bKoy2M3zEJ4oC87hYZcQ5v009EFjYQb4True9AhXNL14CJCeEVDOxrbu3k3ECnQkqmZwqbTrdhxjB1ARESD0me24Mk3v0K/1Sa8Lr7eevzyxlnsFBpyLZ19kpcpaCQc+J7R8POFcA1cZ4QrOoRzV3QiZVKpgMsnpQspu6y+DXklPJaMiIgGr7i2BS9+Lo/14ZeNH4G5Y1PYKTSkOntNsEq8EaHAEB402BA+EoBkc1B8fHyQlSX92hOeD06kTONSYxAd6i+k7OXb87nZIxERXbTPtudjs0xO13jix3PgZ/Rip9CQcTqBtm5pR8MDAwNFXa7/YEO4pMPSEyZMgFarlbRFHE4nDhdztIpIiZZMEXPOab/Vhq8PnGIHEBHRJfnjh1uErJ39rrBAHzx07XR2CA0pqaeki9j82y1C+JQpUyRvkYqGdnT39fMuIFIYL50W88aNEFL2poPFfF8hIqJL1mOy4LfvbIRDBlOrrp0xCpMz4tgpNGQ6e8wM4T9gvJS1E7Ee/Hh5A+8AIgWaPSYZvt56IWV/uaeAHUBEREPicHEtPtl6VHg9VCrgyZvnwkunZafQkOgxSztgYTAYoNcLeTYcVAhXA8hgCCcid7RoUpqQcqsaO7ghGxERDamXv9iNktpW4fWIDw/EvUty2CE0JHrNFunTsJjR8EGF8GQA3lLVLDo6GjExMdKH8IpG3gFECuPrrcfUrAQhZa/afYIbshER0ZCy2Oz43bsbJd9N+vv8ZME4ZMSHs1Po0kO4iSH8+0i6TbmI9eBmiw2lMvhUkYiG1uwxKdDrNJKXa7M7sG5fITuAiIiG3KnqZry5Nld4PTRqNX5981yoVSp2Cl2Svn6rp4Rwv8GE8JFS1mzs2LGSt8bJqibYHQ7eAUQKs3BiqpBy95yoRGtXHzuAiIiGxXsbDuFwkfglTyMTI3DV9Cx2CF0STkf/fpLeWSNHjpS8NY5xPTiR4vgbvYTt3ro+9yQ7gIiIho3D6cRT729Cn4Dw8l0PXTsdAT4GdgoxhLtzCM/Kkv7TtBNcD06kOPPGj4BOK/1U9B6TBd/kl7MDiIhoWNW1dOG5Fd8Ir0eAjwH3XzWFHUIXH8I9Z014wIWGcEl3Rtfr9RgxQvrzfLkzOpECQ7ios8EPFaHfamMHEBHRsFu16wR25pcJr8d1M0cjPS6MHUIXF8I9ZyT8gteEJwEwSlWr9PR0aLXSnjnY2tWHhrZuvvqJFMTopcPE9FghZa/bx6noREQknWc+3IquXrPQOqjVKvzXTXPAPdroYvQIGAn39fUVcakXPBIu6QJtEVPRCyo5FZ1IaaaNSoRewFT02pZOHC2tYwcQEZFkWrv68MLnu4TXIzs5CkumZLJDaNDMFul3R1er1SIu1cAQPoBHkxEpz5wxyULK/Xp/Ec8GJyIiya3ZW4Dcwirh9Xho2Qz4Gb3YITQoDgEPT4JCuOpCQ7ikH2eJ2Bm9rL6Nr3wiBdFq1Jg2KlFI2RsPFrEDiIhIck6na1q6iPOWzxbs5437lnCTNhr869dDQrj6QkO4pKmYIZyILtX41Bj4C/gUvqKhHaV1nFlDRERi1LV24a21ucLrceOcbKTFhrJDaBAhXPoUrhKzgcEFhXA1gHSpaqTT6ZCSkiJpKzicTlQ2tvOVT6Qgs7LFTEXfcOAUG5+IiIT6aEseCiqbhNZBrVbh8R/NZmfQoDKZ9K9T+U5HTwDgI1WN0tPTodPpJG2F+tYumARP2yGioQ7hSULK3XyohI1PRERiw4zDiT+8vxk2u0NoPcanxmDu2BR2CDGEnydzf18tJH2SFTEVvbSOU9GJlCQtNhTRodKf+3iquhnlDXw/ISIi8YprW/D+xkPC6/HQtdOh1ajZIXR+AtaEy3k6eryUNRKxM3o514MTKcosQbuibznMUXAiIpKPt9fvF77kMj4iEMtmjmJn0Hk5uCb8WxKkrFFqaqrkrcBN2YiURdTRZNuPlrHxiYhINixWO55+b7OQcHO2e5fkwNdbzw4h2YVwua8Jl0xCQoLkrVDGnYyJFCM80BfpceGSl1vT3Mn3EiIikp38snqs3VsotA6Bvt64fdFEdgadG48o85wQ7nA6UcGd0YkUY87YZIiYWbSDo+BERCRTL36+C529ZqF1uOWycYgM9mNn0DlzmdQETUeX10i4TqdDZGSkpC3Q0NrNndGJFGSmoF3Rd+aXs/GJiEiWOnvNeGPNPqF10Os0+NlVU9gZJCsajUZEsecdCVcDiJWqNnFxcZI3RGUTR8GJlEKv02B8aozk5Xb1mnGkpI4dQEREsrVi5zEUVTcLrcMVORnIjA9nZ9D38tJpJS+zv79fliE8AoCXVLURsR68vrWbr3gihRg7IlrIG/g3x8phdzjYAUREJFsOhxPPfrIdIvdoU6tU+MX1M9gZ9P0hXC/9M5zJZBJxqeedji5pKo6Pj5e8BRraGMKJlCInI15IuZyKTkRE7iC/tB7rc8Vu0jYhLRbTRyWyM+g/GHQeE8L7ZRXCxYyEd/EVT6SUEJ4ZJ3mZFpsdewuq2PhEROQWXly5G919/ULr8NC106EWsyEWyTmEe85IuMnjQzhHwomUIcDHgLS4MMnLPXCyGn1mCzuAiIjcQltXH95alyu0DiNiQjBnbDI7g77FS8cQfpqkcztFTEevZwgnUoSczHghn6rzaDIiInI3n27LR1FNi9A63L90CkfD6dshXMBIeF9fnyxDeKKUtZF6JNzucKC5o5eveCIFmJwh/VR0pxP4huvBiYjIzdgdDvztsx1C65AcHYIFE1PZGXSGB01H7ztfCJdsaFqlUiEuTtqH6KaOXu5oTKSUEC5gPXhhZSOaO/lBHhERuZ/DRbXYmlcqtA73LsmBWs3RcHLhdPT/I9kZ4RERETAYDJJePTdlI1KG+PBARIf4S17uvkJuyEZERO7rxc93wWqzCys/ISIIV0zOYEcQADEj4XKcjq4DECjZQzSPJyOii5STKeZoMoZwIiJyZ7UtnVj5zXGhdbhvaQ50Wg07gzxpJPyc09FD8T0HiQ+XyMhIya++vpUhnEgJRExFN1tsOF7WwMYnIiK39ta6/egxiTvlIzrEH1dO4Wg48Yiy00KkrEloaKjkV8+RcCL3p1arMCEtVvJyDxfVwiJwCh8REdFQ6Ogx4d0NB4XW4Z7Fk6HnaLjH8/bSMYQDkPTA3ZCQEMmvniGcyP1lJUTA3+glebm5JzkVnYiIlOHjLUeEPhdHBvvh6ukj2REeLsDHIHmZcp2OLpmwsDDJr76tu4+vdiI3NyEtRki5+woYwomISBn6rTa8unqv0DrccfkErg33cIE+3pKW53Q60dnZKeJS5TMSLmI6ekePma92Ijc3JiVa8jLbuvpQVt/KxiciIsX4ev8pFFY1CSs/IsgPCyemsSM8mL+PtDMbu7q6YLVaZRfCg5Ufwk18tRO5MZUKGJ0k/aaO+wqr4HSy/YmISDkcTideWLFLaB3uvHwi1CqeG+6pAnylnY7e2ipsQOWcIVzSVCx1CO/rt6LfauOrnciNJUQEIcjPW/Jy95+sZuMTEZHiHCqqwd6CSmHlJ0YGYfaYZHaEp4ZwiaejCwzhnecK4Yqejs5RcCL3N3ZEtJByGcKJiEipXl21V+hsrzsvn8hO8EBqtQq+3npPCeEt5wrhih4J53pwIvcnYj14WV0rmtp72PhERKRIhVVN+OZYubDysxIjMDkjjh3hYfyNBsmXIrS1tYm63FZZhHCtVovAwECJQzhHwoncPoQnR0le5v6TNWx4IiJStNfX7BM7Gn7FJHaCp4VwH+mPmxU4Et4mixAeEhIClcSffDCEE7m3ID9vxIUHSl7u4WKGcCIiUrai6mZszSsRVv6k9FhkC/igncSR+ngywSFcHiPhIs4I53R0Ivc2NiUaIjZQzS9rYOMTEZHivbFmHxwCh8NvWzieneBBAnwMkpcpxxDuDcAoVS1EHE/W2cuRcCJ3NiZF+k/Iq5s70NLZy8YnIiLFK6tvw4YDRcLKnz0mBYmRQewITwnhvtKHcEFrwm0Aun4ohCt6UzYAaO9mCCdy6xAuYGf0oyX1bHgiIvIYb67Jhd3hEFK2SgXcOCebneAh/I0eE8LbATh/KIT7S9ro/v6SX31nL6ejE7krL50WGXHSL2M5WsoQTkREnqO6uQPr9p0UVv6SqVmSH1tFYoQG+EheZktLi4hL/d458KdDuFHKmhiNRsmvnmvCidxXVkI4dFqN9CG8jCGciIg8y9vr9wsbDTd66XD19JHsBA8QHih9CBe0Jlw+IdzHR/pGN/Vb+GonctcQnhgheZldff2oqG9j4xMRkUepa+nCxoPFwsr/8byxUKtV7AjFh3BfhnCpQ7i3t/Rb0pstNr7aidxUZny45GUeLa0TukssERGRKP9af0DY78CoYD/Mzk5mJyhcRLC0Iby7uxtdXV2yC+GSpmIR09EZwoncV1aC9CPhXA9ORESeqryhDbuOVQgr/6Z5Y9kJCqZSAWEB0obwmpoaUZfbfq4Q7gEj4Va+4onckI9Bj9jwAOlDeEkdG5+IiDzWv746IKzs8WkxSBOwIStJI9DXG3qdtHv91NbWirrclnOFcI6EE5EspceHQa2Sdm2Y1WZHQWUTG5+IiDzW8fIGHCoSNnqIH88dw05QKBHrwQWOhJ9zOrqkO6UJCeFWhnAidyRiPfjJ6mb08z2DiIg83LtfHxJW9qJJafA3erETGMKHhMCR8JpzhXBFH1FmsdnhcHCDJSJ3JGI9+InyRjY8ERF5vL0FlSisEjMzzEunxRU5GewEJYbwII8K4bXnCuGKno7OqehE7isjXvo1YSerORWdiIgIAN7bIG40/NoZo9gBSgzhnjUd3XNHwrkpG5F78jHoERceKHm5XA9ORETksjWvBLUtnULKHhETgtFJkewEpYXwII8J4WYAbecK4YoeCefaTiL3lBEfLvmmbGaLDRUNbWx8IiIiAA6HE8t3HBNW/rUzORquuBAe6CN5mYKmo9cCcJ4rhCt8JJwhnMgdZSZIvynbqepm7iFBRER0li++OY5es0VI2YsmpcGPG7QpK4RLPBJusVjQ3Nws4lJ/cPidIZyI5BvCBeyMXlDJTdmIiIjO1mu2YN2+QiFle+m0WDQpjZ2gECoVEBHkJ2mZdXV1cDqFDLDUMoQTkdtJjQ2VvMyTVc1seCIiou/4ZNtROMQEGSzjBm2KEeLvA6OXTtIyq6urRV2uvEbCtVqtpFdv4ZpwIrej1agRL2BTtkKOhBMREf2HqsYO7DleKaTstLgwpAn4YJ6GXmxYgORlCjyerO58IVzSVKySeKMlO9d3ErmdxMggaDVqScs0W2yoaGxn4xMREX2Pj7ceEVY2zwxnCHfDEH7ekXBJSR3Cicj9JEeFSF4mN2UjIiL6YftPVqGsXswJIpdPSodazQzh7uLCAiUvs7S0VNTlnndNuMJf0XyoJnI3KdHSh3BuykZERHSOJ2onsPIbMceVhQX6YGJ6LDvBzYkYCRcYwqvPF8IlxZFwIjp/CA+WvMyiam7KRkREdC7r951Ev6D9lhZP5pR0dxcnIISXlJSIuFQ7gMbzhXBFp2InB8KJ3E6ygJHw0rpWNjwREdE5dPX1Y8thIaEG88alwKDXshPcWKzEm+7abDZRu6M3ALCdL4RLiiPhRHQuep0GsaHSflLqcDpR3sBN2YiIiM7ni2+OCynXaNBjVnYyO8BN+Ru94G/0krTMiooKWK1WEZd7zt3gPGQknEPhRO4kKTJY8s1X6lu7YOq3svGJiIjOI6+kTtwGbZPT2QFuKlbA0bOCpqIDQOmFhHBJcSSciM4lhVPRiYiIZG3VrhNCyp2SFQ+jQc8OcEMetB4cAEpkF8KlxnFwIobw875T1jKEExERXah1+wphsdolL1ev1WDayAR2gBvysJ3Ryy4khHNomohkI1nAzujlgqbVERERuaPOXjN25JcJKXvu2BR2gFuG8EBPCuEXNBIuaQiXejo6l4QTuZfEyCDp36Q5HZ2IiGhQvso9JaTcmaMToddp2AFuF8I9aiSc09GJyH1o1GpEBftLWqbd4UAFd0YnIiIalD0nKtDRY5K8XKNBj4npsewAN5MYIe0gi8PhQHl5uYhL7cU5zgg/O4QreiSciNxHTKg/tBppPx+sbuqExWZn4xMREQ2Cze7ApkPFQsrmlHT3EuznjSA/b0nLrK2thclkEnG5pTjPtmQeMhLO+ehE7iJOwPEVZfWcik5ERHQxRE1JnzEqCRzXcx/JIjbdlenO6ACgHfgu6UtY6nO71bxDidxGvIgQXsdN2YiISL58vfUweulh8NLCx0sPP6MXvL108PbSweilg5/R63v/np+317dmoFpsdpgtVpj6bbDZ7egxWVzfzRZYrXaYLTaYLFb0mizo6DXDegGzxI6V16O6uQNxEm+6FRbog+SoEO7p4i4hPIoh/PtCuKQsFgsMBoNk5XnptXzlE7mJuHDpN+2obu5kwxMRkeRUKiAq2B+RwX6ICPJFSIAPwgN9ERpgHPju+mdRm5D1mS3o6DGjvceEzh4zOnpN6Ogxo7PXhM5eM1o6+9DU0YO9J6oQNydQ8vrlZMYzhLuJFAEn3wgM4ec9NuB0OpV0aNpsNsPfX7qNl7y0DOFE7hPCpf8lXt3UwYYnIqJho9WoERcWiKSoICRGBiMpKhhJka4/G2Q8WGQ06GE06BEd6i/L+k3JjMe/t+TxBeYGRExHP3HihKjLveCRcIuUtZJ6gTxHwonch4jp6FUM4URENIRiwwKQnRyFUUmRGJMShZToEMk3HfUE49NioNdquLmqG0gScPzs8ePHZR/CJU3FkodwHUM4kTvQaTWSH0/W1dcv5HgVIiJSBrVahVFJkRibEo0xKVEYnRSJYH8jG0YCBr0WY1KicOBUDRtDxkL8jQj0lXZn9J6eHlRVVYm4XAuA874ghYRws9ksaUuIWkdDRIMTE+oPtVrajRQ5Ff3CaTVqBPsZERbogxB/I0IDfOBn9IJGrYaPQQ+1WgUfgx5ajRpGLx00GjXUKhWsNtfmPw6nE919/bDZHejrt6DfakOvyYK2bhOaO3rQ2tWHtu4+OHmgBRHJnLeXDpPSYzFjdBJmj0lGCEO3MONSYxjCZS5FwFT0goICyTcDH1AO4LxTM06HcElTsdQj4QaOhBO5Bal3VmUI/8+QHRsWgKTIYMRHBCIhIujMpkDBft6SjOxYbXbUt3ajqqkD1c0dqGrsQEltC4pqWtBrtrCTiEiY+PBAzB6TjBmjEzF2RDQ0ak4vl4OshAg2gswlC9iUTc7rwc8O4cqejs414URuITZM+p3RPXE9uEatRkpMCDLjw5EQEYTEyEAkRgQjJsxf+EOlTqtBfEQg4iMCv/XvnU6gtqUTp6qbcbS0DkdK6nCqugV2h4M3DhENGx+DHgsmpmLp1CyMSYlig8jQyESGcNmH8CiP2pStSLYhXPLp6FpORydyB5HBfpKXqfSRcJUKSIgIQlZChOsrMRzpcWFut1eGSuX6kCY2LACXjR8BwHV0ztGyeuw9UYlv8itQ3dzBm4iILplapUJ2ShQW52Tg8snpMHrp2CgyFuTnjehQf9S1dLExZGqEZ+2MfkEFe8R0dI6EEzGE/2AIV9gZ4XqtBqOSIjExPRZjR0QjKyECvt56Rb5ejAY9pmYlYGpWAh67YRaqGjvwzbFybDxYhBMVjbyhiGhw7yleOiybNRo3zslGdIg/G8SNjEyIYAiXscQoj5qOPqgQrujp6GqVCjqtBlYeX0DEEP4d7j4dXatRY2RiBCamx2JCWizGpER57IkQ8RGBuCViHG6ZPw5VTR34ev8pfL3/FI+gI6JzCvAx4Edzx+DHc8fA38fABnFDI2JCselQMRtChsIDfeFv9JK0zK6uLtTUCNmszwmgcDAhXNKRcKmnowOAl44hnIgh/Nt6zRZ09Zrdrp1iwwIwc3QSpo1KwNiUaHhzquR/BvLwQNy7JAc/vTIHB05WY/mOfOzIL4PDwa3Xiej/wsEt88fh2pmjOOXczUWF+LERZMrDdkavAXBBUyw9YiQcAPQ6LWDizrpEcqXXaRDsJ+0RL/Wt3W7RNhq1GmNGRGHGqCTMzE5EUmQwXzAXSKUCJmfGYXJmHBrbu7F8xzEs357PndaJPJi/0Qs/XZKD62aN5r5BChEZxBAuV5kJ4ZKXefz4cVGXe8Fz4D1iTTjAY8qI3OEXqEraI8LR0CbfEG700p05f3ZqVjynSA6BiCA/PHjNNNy2cAI+3pKHT7YdRXdfPxuGyEOoVSpckZOBR66bgWA/bzaIkp4hghnC5So9Lkz6JCxuPfgFp3+P2B0dgMeukSTiL1D3CeEGvRYzRidhwYRUzBidyPetYeJv9MJ9S6fglvnj8dHmw/hg02GYLTY2DJGCjU+LweM3zEKagEBAwy88yBdqtYpLjmQoI96jQvigR8IVPx3dwB3SiRjCvxvC28WHcL1WgylZ8Zg/IRVzxiTDaNDzxSARX2897ls6BdfOHIW31+3Hql0n4HDyAY5ISYL9jfjVj2ZjwYRUNoaCadRqqFUqOMD3cDnxM3ohOiTAk0J4wWBDuOKnowf4cionEUP4d0K4oJFwlQoYmxKNpdOycNn4EfBh8BYqPNAXv7llHpZOy8L//nsbiqqb2ShECjBjdCJ+e9sCTj33AGarFTa7gw0hM2mxYZIvNWxvb0ddXZ2Iy73gndHPDuGSpuLOTunP5Q305RswEUP4t9W3SnumaFiADxZPycDV00ciPjyQnS4zo5Mi8cGvf4QPN+XhjTX7YOGJGkRuyUunxS+un4HrZ2VLHgBIDFO/lY0gQ1kCNmU7fPiwqMutBHDBoztCQnhra6vkrRLATY2IZC00wEfyMhvaeoa9DL1Wg9ljkrF0WhamZMZDreYToZxp1GrcvmgCpo9KxO/f34SCyiY2CpEbSY8Lwx/vXsRTJDyMuZ/7esj1fvSgED6oOfBCQnhLSwtDOBEJDeE2uwPNncMXwsMDfXHNjJG4YXY2gjgV0u2MiAnBO/91I15dvRfvbzwELhUnkr9lM0fhVz+aDR2PHfM4/VaGcDnKiJd+JDwvL8+tQniH0kM4p6MTMYSframjZ8h3UVWrVJiYEYtlM0Zh7rgUaNRqdqwb06jVeOja6RiTEoWn3t2ELh5nRiRLapUKDy2bjlsXjGdjMISTTBi9dIiPCJS8XHcbCZc0FYsJ4RwJJ5IrrUYt+T3a0tE7ZD/L3+iFq6aPxHWzRiEuLJAdqjCzspPxwW9+jMdfW4fi2hY2CJGMGPRa/P7ORZg3LoWN4cHauk1sBJlJiwuDWuJNGXp6elBcXCzqkgsG8z+fDuHtAOwAJJm/09HRAZvNBq1WumPDOBJOJF/B/kbJ36hbui49hEeH+OPmy8bh6ulZ8PbSsSMVLCY0AP984gb8+q2vsPt4BRuESAZC/I14/oGlyEqMYGN4uLqWTjaCzIg4HzwvLw8Oh5Bd8h0YxM7oZ4dwx0AQD5Wilk6nE21tbQgPl26dQFigD+8GIpkK9TdKXmZLZ99F/930uDDcMn8cFk1K45RzD2L00uG5B5bgL5/swOc7j7FBiASKCQ3A648tQ5SAkzVIfqw8nkx20uM8amf0UgCDGt05eyi6RaoQDrimpEsZwqOC/Xk3EMk1hAvYGb2lc3Aj4SoVMH1UIm5dMB4T0mLZaR5Ko1bj1zfPRZCfN95et58NQiRARJAfXnv0WgZwOsNLp2UjyIyokXBBDg32L5z9ipX03DCp14Ub9FoE+BjQ2WvmXUHEEH7BIVylAmaOTsJPl+QgU8AunyRP9y+dAqOXDi+t3M3GIJJQsJ83Xn7kakSHcHCF/g93xJcXvU4j5JhAgSPhg07/3x0Jl0xNTY3krRMR7McQTsQQDgBo7Tr3dHS1SoUZoxNx75IcIUdskPzdtnACADCIE0kk0Ncbrz+6jGeA039w8hxJWUmNCYVWI+1yPbPZjMLCQlGXPOj0LyyEV1dXS946kUF+KKpu5p1BJDPBfiLWhPf+YPheMDEVdy+ejOQoPujR+YN4v9WON9bsY2MQDSM/oxdefvhqJEeHsDGIZG5MSpTkZR49ehQ2m7Cj6i5pJFzS6ehCQjjXDhHJUpCf9KcXNH9PCJ8zNgUPXD2V4ZsG5adXTkZzRw9WfnOcjUE0DNQqFZ6563LOSiJyE6OSIiUvU+BU9IqLydHCRsKrqqoEhHBf3hVEMuTvI+0Z4Q6HEx09/3emaHZyFB68dhrGp8awM+iiPHnTXLR29WHH0TI2BtEQe+DqqZg2KsEjr72924TWrj40tfegpasXrV196DH1o9dsganfBlO/BT1mC3pMFpjMVlhs9nP+PI1GBR8vPfQ6Dbz0Whi99NBq1PDz9oJGo4KvtxcCfQwI8PVGgI8Bgb4GBPp4I9DXIPnvanJf2cnSj4QL3JTtogo+O4TXKz2ERwRxJJxIjgJ9pf3F3tlrhsPhRHJUMO5dkoP5E1LZCXRJ1GoVnrn7cvzs+ZU4Vt7ABiEaIvPGjcDtiyYq9vqcTqC+rQsVDe0or29DRUM7Khra0Njeg5bO3vOGaqnf5wJ9DAj09UZ4kC/CA30RGeyHyGA/hAX6ICLI9Wejl05AO3JNuFyEBvgImX0scCT8ogo+O4RLOj+c09GJ6LQAiT9d7zb143e3L8CVUzKgVqnYATQkDHot/nzfYtzyzMdo7zaxQYguUXJ0CJ66YwGU9DZd09yJ/LJ6HC9vwPHyBpQ3tMPUb3WLujscTrR1m9DWbUJZfdsPh7BAH3z97N18AXuo7GTpp6JbLBYcPy5sSdihi/lLZ4dwSYem29ra0NPTA19f6aaIczo6kTwF+ki7JjwmNADx4YFseBpy4YG++N97rsADL34Bh4MjM0QXy8egx9/uv1LIqOpQqmxsxzf55ThcXIfj5fVo84AP6CwW6TfHcnAkXDZGJUk/Ff348ePo7+8XdcmXPB29FoADgGT7yVdXVyMzM1OyFgoL9IVep4HFaucdQiQTRoNrbZqUNGqOfkuh12w58zDtSSamx+KexZPx5tpcvgiILtIj181wyw9LHQ4njpU3YGd+Gb7JLz/niLFSeem0kpdptth408iEiJ3R9+zZI+pyawFc1Bq0s+8Sy8APiZaq1lVVVZKGcLVKhZiQAJQ3tPEOIZKJQG704hYa27tR19qN5o4etHT2oaVz4HtXL1o6+9BvsaHH1A+n04kes+U/RoF1Wg289Vp46bTQ67Tw9dYjLNAHwX5GRIf4Iz4iELFhgUiKDIK3m498AcA9V07G0dJ65BZW8cVDNEjj02Jw7YxRblXnsvo2rNtXiDV7CjxitPucIVzPEO6ptBo1MuLDJC933z5hx4Re9EL0794l1VKGcBHrwuPCAxnCiWQkgCFcNuwOB8rr21He0IbKhnZUNLajsqEdlY3t6LvENYtWmx1Wmx3A/00XO1Xd/B//n1qlQmx4ADLiwpGdHIVxqdFIjQmF2s1mL6hVKvzutvm48fcfosdk4YuL6AIZ9Fr8v1svc4t14L1mC9bsKcSXewtQ9D3vZ57ch1LrtzKEy0FaXJiQmRB79+51+xBeBSBHqlpXVlYKCOEBvEOIZMTP6MVGEMDpBKqbOnCishEFFY0oqGzEqepm4aMJDqcTVY0dqGrswMaDRQBcR9hNzYrHzNFJmJmd5DbT28ODfPHYDbPw+/c38wVHdIF+dtVUxIUFyrqOHT0mfLY9H59sO4quXjM77TtEhLB+joTLgohN2ZqamlBWJux40CNDFcIlHZouLS2VvKViwxjCieRECVOP3YHd4cCJikYcKqrF4aJaHK9oQHdfv1vUvavXjA0HirDhQBG8dFrMzE7CkimZmDYqQfa72y+dmoXNh4qx50QlX4RE55GVGIGb5o2Vbf3au03451f7sWrXCU5/PgeDXvrf6xwJl4fRAjZlEzgKDlzkzujCQ3hJSYnkLSX3T1eJPI2nbdolFYfDicKqJhwqqsHBohocKa675CnlctBvtWHzoWJsPlSM6FB/XD8rG9fNGiXb15FKBfz3T+bhhqc/Qp+Z09KJzuUXy2bIcumJ3eHA6t0FeHX1XnT08PjB8/EXMMONH4rIJIQLGAkXuB685VKy8/dNR5dMcXGx9CGc09GJZMVo4Ej4UOnu68fegkrsOlaB3ccr0KnwaZJ1LV14aeUuvLvhIG6eNxY3zx8ny+OMIoL8cNflE/Hyqj18kRL9gBmjEzE+LUZ29TpwqgZ//ngbKhra2UkXGsIF7PXCvTfEC/Z3bbQqNYEj4Ycu5S8LDeEdHR1obW1FSEiIZGVGBftDp9UMbBBERMJDuBdHwi9FVWMHduaXYdfxCuQV18HucHhcG3T1mvH6mn34fOcxPHDNNCyZkim7TZ1uvmwcvth1ArUtnXzREn2HWqXCA1dNlVWdLDY73lizDx9sPMwzqAcbwgWMhHf3cW2+aGOSpZ+KbrPZcOjQIVGXfElD8EJDOOCaki5lCFerVYgK8UNVYwfvFiJZhHCOhA9WfVs3dhwpw+bDxThSUscGGdDc2Yun39uEVbuO47e3zUdCRJBs6qbXafDIdTPwxBvr2FFE37FwUhrS4sJkU5+yulb89z83oLi2hZ1zEURsuNrpJnucKNmoJOmnoh87dgw9PT2KCOFNALoASDaXoKSkBDk5OZK2WFxYIEM4kVxCONeEX5C6li5sOlSMTYeKcbKqiQ1yDkdL63HLMx/jsRtmYdlM+Zw1PG9cCiakxeJQUQ07iej0g6hGjfuW5simPnsLKvHkm1+hV9AeDlqNGsH+RgT7GaECoNNqYPByPa73mizo6u1HZ58Z3X1myHWA3t8o/XT0bu5SL9y41Gjp71dxU9GdAHKHMoQDQCmAcVKGcKnFhwdiN+8VInmEcI6E/6AekwUbDxZh7d5CHCuvB2dEXjizxYY/fbQVecW1+M0t82SzC/8DV0/F3X9dzg4iGrBwYppsNs39bPtR/O2znXA4hvfNVqNWIz48ECNiQpAaG4rkqGBEh/gjJMDHFb4vYDmNw+FEdXMHSmpbUVLbgoLKJhw4VQ2LVfxyy0BfASHcxJFwkQx6LTLjwz0phBcCuKSNIr4vhJdIGcK5ORuRh4dwbsz27QcrpxPHyhqwbl8hvtp/CiYF7Ggu0lf7T6G0rhUvPHgVwgN9hddnTEoUJmfEYf/JanYOEYAb52TLoh6vfbkX/1x/YFh+tlqtwsiECEzOjENORjxGJUVCr9Nc8s9MiAhCQkQQLhs/AgBg6rdib0ElNh0sxpbDJcLWsocHSftea3c4hM1cIJfslCjotBrJyxUYwi95S/YfCuGSEXFWeGJEMO8WIpngEWUuTR09WLXrBNbuLURdaxcbZAgV1bTgnr+uwGuPXouYUPEfwv50SQ5DOBGAjPhwIetIv+tfXx0Y8gCuUasxJSseV0xOx4zRSfD1Hv7fdd5eOswbNwLzxo1AaV0rXlm1FzvzyyRvzzCJP/Ds7uvnTDHBJqTGSl5mS0sLysrKRF3yJaf/H5qOLhkR09ETo4J4txDJhLcHT0d3OoGDRTVYvj0fO46WeeTO5lKpa+3CvX9fiTceW4bYMLFBfNyIaExKj8WBU1wbTp7tx3PHCK/Dx1uP4NXVQzeaFh8RiBtnj8HCSWkI9vMWdl0p0SF47oEl2H6kFL99dxP6JBopVqtUCAvwkfRamzt7eTMJJuJ4wb1798Ip7tOXYQnhks4Pb2lpQXt7O4KCpAvG4YG+8PXW80xBIhnwxJHwXrMF6/adxPLt+ShvaOOLQCKN7d24//mVeOeJGxEW6CO0LrcvmsgQTh4t0NcbCyemCa1DbmEVnl/xzZCF3ruumIQFE1KhVsvnjMQ5Y1Pwws8NePDFVbBIcDxvkJ83tBq1pNfY1N7DG0ogvU6DkQkRQkK4IF1wrQm/JN93l0g+NC1kNDySU9KJ5MCTRsLrWrvw98924oon/4W/fLKdAVyAhrZu/OKVLyUbFfohOZnxSIzkrCzyXFdNy7rkddGXoqa5E79+66tL3oQtwMeA39+5EJ/8v1uwaFKarAL4aeNTY3D34smSlBURJP3eG00dDOEijU6KEnIvCwzhuQAueeri94XwegCSzusoKioSEML58EMkB56wO/rJqib85u2vce3/ex8fbz0iPABKSa1SIcDHAH+j15kv0R+8nKpuxv97Z6PQNYQqFXDD7Gy+AZDHunySuFFwi82OX72+Dl2XeLb0/AmpWP7UrVick3FBO5qL9JMF4yT5fRsmYAPM5g5ORxdpgoCp6P39/cjNzRV1yUOS/r9vOroTrnXhkj0dFBYWSt56SRwJJ5IFpY6EO52u82Y/3HRY8ZtwBfgYkB4fhhHRoUiJDkZSVDBC/I3wNxrgZ/T63r/jcDrR3m1CS2cvmjp60NrZh7rWLtdxO3UtqGsZ3s3pdhwtwwebDuO2heOFtduSqZl4ZfVej/pQhghwHRWbFhcmrPx/fXUAxbUtl/QzHl42HbctnOA2be6l02Jcagx2H68Y1nI4Eu55xqdKH8Jzc3NhMplEXfK+ofgh2h/49yWKD+HcnI1IFjRqtaKux+kEvjlWhrfW7kdhVZNi+y0mNABzxiZj9phkjE2JHvQUTLVKhRB/I0L8jUj/nofxXrMFpbWtOFJaj/0nq3CkpA5mi21Ir+GVVXswPjVa2O7MPgY9lkzJwGfb8/lGQB7l9JFaIhTXtuDdrw9e9N9XqYBf/Wg2bpwzxu3aPUiCjeJEjIRzTbg4Oq1GyO/QHTt2CHvMg2s6+rCGcMmICeEcCSeSA6k3cBnO8L3reDneWpuLgkrlhu/k6BD8/OqpmD0medgDanZKFLJTonDbwvGw2OzIL63HnhMV+PpA0ZA8dNkdDjz13ib8+79vFrY2dcmUTIZwYgiX8H36fz/aBpv94pdz3rN4slsGcMB1jvhwCxew6SVHwsUZmRgBg17rSSH8FIAh2dDnh1pN8mPKLBYL9HrpdkmOCQmAXqeBxWrnHUQkkLuPhDudwPajpXhzTe4lT2+UsyA/bzyybAYW52QI2XhIr9VgYnosJqbH4sFrp+NwUS3W557ElsMl6L2E6dwVDe14a10ufn7NNCHtmpUYgYSIIFQ2tvPNgDxCTGgAMuLDhZS97Ugp8svqL/rvJ0UG454rJ7tt2xfXDP/vKCEj4VwTLoyIqehWqxX79u0TdclDthvcDz39FkvdmKWlkuZ+qNUqxIcH8u4hEkitVsl+M5tzOVxUizv/8hl+9fo6RQfwtNhQvP/rH2PJ1ExZ7PyrVqkwMT0Wv71tPtb971144OqplzTN8sPNeahq6hB2PVdMTuebAXmM4Z5F80McDide//LSnp9vmT/ObT84LqpuluR9LlziEN5vtaG7z8wbSxARm7IdOHAAvb3CPngZst3gfuid5KTUV8TN2Yg8j7tORS+rb8OTb32Fe5/7HMfLGxTdR7FhAXjlkWsRFewny/r5eutx1xWT8OUf78BjN8yEv49h0D/DarPjhRW7hF3D5ZPT3frDKKLBmJgeI6TcjQeLUFZ/abNIp41McNt2X7nr+LCXoVapEB3iL+l1NXX0CD3pwpNp1GqM9qz14IAEI+H1ACSdG8d14UQeGMLdbEShqaMHv3t3E4CP8wQAAIAASURBVH78+4+w+VCx4vtHrVLhL/culmQzn0vl7aXDzZeNw/Lf/QTzxqUM+u/vzC/D4eJaIXWPDQvAqMRIviGQR7ynjEmJFlL2x1uPXNLfV6mAcAE7fw+Fvn4rvso9NezlRAT5Sr6/BjdlEycrIRxGg17ycgWG8E4AJ4Y7hAMSj4aLCOE8K5xILI2bjIRbbXZ8svUorn/qQ6zbVwiHh3zsvmRqptBjhC5GiL8Rf7nvSjz70yt+8Hi0H/LWWmFnjmKWoCm6RFIaERuKgIuYrXKpTlU340RF4yX9DKcTQ35Cg1T+uX7/Je2dcaHiBCzz5HpwccYLmIpus9mwZ88eUZe8C8CQbSZ2ridgSVNxQUGB5C2ZHBXCO4hIZAh3g5HwLYdLcN3vPsDfPtvhcec5Xz87223rPn9CKl5/dNmgRvEPnKoRNho+c3QS3xBI+Q/tqWJGwT/ddnRIfs4xN1x+VFzbgo8250lSVmxYgOTX19jWzRtLkJzMeMnLPHz4MLq7hfX5kA7ByyaEnzp1Cg6HQ9KWTIwMgk6r4V1EJCyEy3chbE1zJx58aRX+6831qGvt8ri+8TN6IcPNRsG/Kz0uDG88ugwh/sYL/jvvbTgkpK4jYkJku+6eaOhCeKzkZVptdmw7MjSb/67fV+hW7e1wOi/5SLbBEDESXt3cyRtLAL1OgzEpUdKnYLHrwZUZwvv6+lBVVSVpS2o1aiREBPJOIhLEKcNp3XaHA59sPYqb/vhv7Cuo8ti+iQr2k8VO6JcqOToE/3j4Gugv8APXPScqUNXYIaSuM7M5Gk7KNiopQvIycwur0d3XPyQ/a8OBIlQ0uM9xgm+tzb2kI9kGHcIFjIRXN3fwxhJgQmosvHQedT54D4AhnVIimxAOiFkXPiImlHcSkSAOmWXwExWNuOWZj/G3z3bA1G/16L5x153rv09abCjuv2rKBf2/Tifw+TfHhNRzxiiGcFIufx+D5MdXAcDmw0O3iabFZsfvP9jsFvuCbDxYhLfX75e0TBEj4TVNHAkXISczTvIy7XY7du/eLeqSdwMY0gfDcz1lVQDoU3wIj+a6cCJPD3o2uwOvr9mHu/6yHCW1rewYAJ29/Yq6nh/NHYPgC5yWvnZvIaw2u+R1HJsa7bZnEBOd93krRvrnLacT2HWsYkh/Zn5pPT7eckTWbV1Q0Yin39ss6dFdKpX0a8LNFhuaO7k7upAQniX9evCjR4+io6ND1CUP+RD8uX7bOwAUSXl1J06ckLxFORJOJE5fv/iNzsrq23DHnz/D2+v2wy7xvhRyVtfaKcluulLx0mlx9bSsC/wAwow9Jyolr6PRS4fMhHC++EiZITxa+uetsvpWdPSYhvzn/uOL3diZXybLdi6ra8Vjr61Fv1XandzDA/0kn55c09zJM8IFCPY3CrmflbQe/HwhHJB4SvqxY9JPARTxySwRuYie8r0+9yRuf/ZTnKxqYmd8x3CMIIk2mONUvt5/Skgdx42I5ouPlBnCBTxvHSoantMObHYHnnzzK+wvrJZVG+eX1eOev3+Olk7pj+2KC+d6cE8xJTMeKgFbxuzcuVPUJfcBOKjoEH7ixAnJd0iPCPIb9FmyRDR0QU/E2jqL1Y4/frgFv31no8ev/T4XUWujhy0EDOKT+x35ZUKOpBNx7iqRNPef9CF8OI8ctNjs+OXra7G3oFIW7bvnRCV+/uIqdPWahZQfFxYofQjnenAhRK0HFzgSvhfAkD8QyCqE9/X1oaxM2uk9KhWQwnXhRMLYbNJ+8NbVa8ZP/74Cq3adYOOfR15xrVvtBDykD9hWO/YJGOUamxINtUrFFx8pTqyATbtODPO53qZ+Kx55+Uv866sDQqdFr9hxDI+9ukboh8pCNmXjSLjkVCox54Pv378f7e3CnkeGZQj+fCG8QOqr5JR0Is/SJ/FDQ0ltK05UNLLhL4DTCXy2PV9Br7XBfZC961i55HX0M3ohMSqYLz5SFJ1Wg0Bfg7T3u9mChvbuYS/H4XDi1dV78fjra9Fjknb2TFdfP3791ld49mPpzgL/IYmR0ofw6iaGcKklR4UgNMBH8nI3bdok8rKHZQj+fCG8BICkOzsICeHR3JyNSFgwknjKr5dey0YfhM93HsOp6mZFXEtecd3gQvjxCiHLJbK4ORspTFigj+QzPErqWiUdnd5xtAzXP/UB1ueelKS8b46V48d/+AibDhXLoo8TI6T/8LC6mdPRpTZFwK7ogkN4P4BhOevvfCHcMhDElR3CORJOJIxZ4h1cvb10bPRBsDsc+NNHW93iXNzz2Zk/uJHttq4+FAn4ACIrIYIvPFIUEeeDizhusqWzF799ZyPuf34ljg3TVPj80nrc99xKPPrKGjS1y+N4Lq1GjehQf0nLtNjssrl+TyJiKnp3dzdyc3NFXXIuANOw3DcXkosBZEh1pfn50k99HBETCpUKPOaASACpj1Hx9daz0QfpREUjVuzIx41zxrjtNdS2dGLX8cFPLz9cXIeMeGlHpjkSTgzhl65G4CjpwVM1uPPPn2FCWix+NHcMZmUnQatRX/TPczic2JFfhuXb87H/ZLXs+jcmNOCSru9i+9fBB3dJ6bQaISd4bNu2DVarsP0Ohm03uAsN4TdIdaWlpaXo6+uD0WiU9KE8IsgPDW3dvMOIJCb1dHRfA0P4xfjHF3swJiUa6XFhbln/v326Ew7H4B/YjpTU4ubLxkpa17TYMOi0Glhtdr7wSBkhPEj6EN7UIX6U9FBRDQ4V1SDAx4A5Y1MwY3QixiRHIdj//M+4PSYLjpbWYcfRMuzMLxdy7NiFSowMkrxMT900VKSxKVFCZhMqcT34YEK4ZOx2OwoLCzFhwgRJW3hETAhDOJEAUm9k4+2lh1qtuqhA5slM/VY89upavPfkjUI2ZbkU63NP4puL3GTtcHEdnE5IeiaqXqdBSnQIz68nxQj0MUheppymKnf2mrF69wms3u06lSM61B9xYYGICfU/c0yuRq1Ge7cJ7T0mlNa2oqalw21maCZESB/CKxsZwqUmYiq64BBuBbDPY0I44FoXLn0ID8WuYxW8w4gkD+H9kpanUrlGw7v6+tn4g9TY3o1fvrYWb/7yOnjp3GODu5bOXvzts4s/XaSjx4SqpnbJHzKzEsIZwkkxjAJmIMlhJPyH1LV0oa6lSzH9K2IknCFcQAgXsClbdXU1Tp06JeqS9wMYtikoF7KAoxyApO9kIjZnS4vlDulEIvRKPB0dAHw4Jf2inahoxG/f2Sj8OJwL0WOy4NFX1qCr13xJP6egUvownMl14aQgPgbpp7C2dfWx4SUiZCSc09ElFeznLWQ52saNG0Ve9rAOwV9ICHdA4vPCRYRwd13nSOTupJ6ODgC+3l5s+Euw5XAJHn55teTr+Qej32rDY6+uQeEQjCYXVkp/rjx3SCdlhXBpP/h0OJwwWaxseIkIGQnnGeGSmjE6SfJjBgHh68GH9ROAC93KUNJULCKEx4UHwsiji4gEhHDpp4X7cIf0S7a/sBoP/mO1LKf1W6x2/PK1tThcXDskP+9EhfQhPCU6xG2m/BOdj9TT0fv6rTzxRiL+PgYESLzmv63bdMkznGjwIVxqDocDW7duFXXJXQAOelwIb2hoQFOTtNP/1CoVRnBKOpGAEC5iJJwhfCjkl9bjp39bgcZ2+WxqWdfahbv+uhz7CqqG7Geeqm6G3SHt9HutRs1lUqQYUp9K0Wvmnh9SSeJ6cMXTatSYnBEnebl5eXlobm4Wddlb4NqYTXgIl/zw7uPHj0ve2hmckk7kISGc09GHSmldK2555hPsPl4hvC6Himpwx7OfDvmGZmaLDeX10j/0ZXJKOinoIV5Kff2cii4VEevBKxra2PASGp8aI2TwQvBU9GEvXJYj4QCQny957ue6cCIRIVzAiAVHwodWR48Jv3jlS/z10x1C1olbbHa8sWYffvbCF2jrNg1LGQVC1oVzczaii8EjKKUTGxYgeZmVjR1seAnNGJ0oJgUzhAMAWgA0SHnleXl5DOFEnhDCBYyEG70Ywoea0wl8uu0obnj6I2zNK5VsPWZuYRVu/uO/8da6/cP64C0ihKfH83cSETGE/0cI587o0obwUdKvBzeZTNi7d6+oS64AUDLchQxm15djACKVHMJTokOg02pgtdl5xxEpOIRzJHz4NLZ344k31mFkYgR+dtVUTBmmc0WPlNThjTX7cOBUjSTXJeKYssSIIP5OIroIKjaBhCE8UPoQzjXhkokLC0R8hPR9vGPHDphMJlGXLcm5aIMN4QukuvrCwkKYzWYYDNLtuKjTapAUGYSimhbedUQSMZk5Eq5EJyoa8eBLq5ASHYIbZmfjipz0Sz6mqMdkwda8Eizfnj8kR48NRnFNCyw2O/RaDX8nEQ0SJ4crOaRJOxJusztQ29LFhpeIqKno69atE3nZksyDH2wIl+4ms9lw/PhxTJw4UdJWT48L4wMPkYR6RYRwA48jlEppXSue/Xgbnlu+ExPSYjF7TDKyU6KQEh0MjfrcK6IcDieKa1twpKQO+wqqkFtYBYugUWGrzY6S2lbJ12mnxvJ3EikghEt8XphG4o3gPFWgrzf8jNJudFrX2iX5aRUM4dL76quvRF2yHYAk56LJNoQDrinp0ofwcKzZW8i7jkiyEC79Lracji49i82OvQWV2FtQCQDQ6zRIiQpBSIARQb7eMBr0Z6ZdN3f0oralEzUtnbBY5TMVu6CiUfIQnhYbinV8+ZCbs9mlDU3eXvygVQpxAtaD1zR1suElYvTSYVxqjOTlFhYWorS0VNRlHwIgyfb7gwnhBQOfDkg2F0/I5mzcCIdIUnaHA2aLDQa9VrIyfQwM4cJDudUu+ZTyS3WyWvr6pvKscFIAqY8M45IjiUJ4eKDkZVY3d7DhJZKTGS/pEqzT1q5dK/KyJduSfTDzdUwATknZCiJCeFpsKNQqbulBpOgHNIZwuggipoXz1A5SxHu8xMuOjF468FFu+InYGb2mmSPhUuF6cPmEcACQNBXn5+fDbpd2KqKPQY+Y0ADeeUQS6pX4rHAfTlWki1Ba2yr5+cMBPgaEBfiw8cm9Q7jEH7Sq1Sp46bRseAWGcI6ES0OlAqaOTJC83M7OTuzZs0fY4yiAfQzhAPr6+lBUVCR5D3BKOpHED2gSrwv34Zpwugj9VhuqmqR/AEyN45R0cm8iNuD0NxrY8EoM4VwTLk0WigtHeKCv5OVu2LABVqtV1GVvByDZqJCsQzggaF04p/8RKfoBjesF6WIV1TRLXmZaLH8nkXsz9Uv/UB3ib2TDD7M4ic8IdzicqGvl8WRS4FR0+YXwIwzhROTuIdzHoOd6QbooxQLWhadxczZyc919/ZKXGRLAED7cv0eD/LwlLbOhrfvMKRo0vGaOTpK8TIfDga+//poh/Ae0AahUegjPjA/n3UckIamno3O9IF0sEZuzcYd0cnetXX3Sh3B/7qUwnCKD/SQvk+vBpREe6IushAjJy92/fz+amoSdmlIF10lgsg3hgMRT0o8cOSJ5LwT5eSNKwJsLkacSsV6Qx5TRxRAxEh4fHijkmBgi9w7hHAkfThFB0q8X5npwacwZmyJktqDgqehrpC5Q9iG8tbUVVVVVkvdEpoBPgIgYwhnCSd6aOnrQ0WOStEyNWo1YAefxEg2Vls5eycsUsamUJwkT0L41LQzhUpg7LkVIuYJDuOSFyz6EA2KmpGclcEo6kZJDuEHP6eh0cYprWyUvMykyiA1PbkvESHh0qD8bfhiFB0o/3b+WZ4QPuwAfA8anRktebn19vZDZzwNMAHYwhMsmhHMknEgq/Rab5GXquSacLjaEC9ghPSkqmA1Pbqutuw8Oh1PSMmNDA9jwwxnCBUxHb+zoYcMPs1nZSdCo1ZKXu3btWjidTlGXvRmA5J8UXkwr1wCQ9AlERAjPSAjn7slEEjELCOHcmI0ulojN2ZIiGcLJfTkcTrRLvIwjKsQPajUf5IYthAuYjt7UzhA+3DgVXd4hHJD4qLJDhw5J3jD+Ri/EhgbybiSSQL9VQAjXc6MrujhldZyOTjRYUp/vrNNquC58OEO4xCPhdocDbd19bPhhZNBrMfn/s3fe4VVVWRt/b0nvvUASEiCUJJTQe+8dFQuOqKNYRx17wa5jHcWODaSDdKQTeg+9BQiBhCSk955bvz/i+OmMUpJ79z733vf3PHmYEXLX3mvvc+55z1p7rbaR4p8B6+uxfft2mVOX0hetsSJcaGj66tWryMnJEe6c9i14LpwQexXhroyEk0aSkVcK0VlzUaF+UDM9i9gwMs7zNg9iSrq1CBH8gqOovFr4kQZHo3dcCyn1cnbt2oXKykpZ0z4Fwe23bUqEA8CRI0eEO4f9wgkRJcKNwm3yTDhpLDX1ehSUiX1gcHHSIjSArTOJDYvwogrhNmNYS8Fq9yNvD1ehNvOZim51ZKWir169Wua0N8gybDMiXEZKevsWLM5GiBARzjPhxMZIzy0VbpPnwolti3DxkfCYsAA63grISPMvLKum462IVqNGn/gWwu2azWb88ssvMqe+ztZE+EUAQl9JHT58WLhz2kYGs6gHISJEuIEinNiYCM8rES/CGdUjNozoM+EA0LIZRbhVRLiMyuiMhFuVbm0i4O3uItzuwYMHkZ2dLWvaJQAO2ZoIN6Ehh96uRbi7ixNahLAYDiFWF+ESIuGuLMxGmiLCcyWIcBZnIzZMtoQz4S354so6IlxCj/BCtiezKrJS0VetWiVz2psAGGQZb0ojOKEp6UVFRbhyRfy5+XbsF06I9UW4npFwQhF+fRFOQUFsl/zSStTU64Xa9PZwRZCPB51vaREuIRJeQBFuPTGoUqF/h2gpttesWSNz6huk+r0Jvyu8UpqM4mzto1icjRCri3Cd+MJsFOGkKVyWIMKbB/vS8cRmMZvlvLxqyyK7FifAW0YknGfCrUVCTCgCJbysOnPmDFJTU2VN2whJrckowm+QdhThhFhfhEuIhLM6OmkK5dV1KKuqFWrT38sNHq7OdD6xWS7lFPM5zg7w9XQVbpNnwq3HoE4OmYp+AECxzAE0RYSfAyD0tZQMEd42IhhajZpXKCFWpE5Gn3BninDSNNLzxFdIb8a+x4Qi/KZoz2OFFsfbXbwILyynCLcWAx1ThK+X7femqEsjBJ8LP3z4MMxms1AHOTtpEBPO6pqEWBM5hdkowkkTRbiE1NoIinBCEX5TxLHdrMURHQmvrtNBpzfS8VYgNiIIzSV8r2RkZODEiRMU4U1AaGi6vLwcaWlpwp3Ec+GEWBedwQDB79fgrGV1dNI0MgvKhNtsFkgRTmyXyzniX1z5ebkhxM+LzrcgPoJFeHlVHZ1uJYZ3aS3F7qpVq4QHVn//9Q3gDEX4zRqUUpyNb1EJsSZmM6A3in3L7cJIOGkiMlouNWcknNgwBWVVKK2sFW43PprPcRYV4YLT0ctrKMKtxZAuraSJcImsAmCW7XuK8Bu6eYfyKiXEytQJTkl30VKEk6aK8DLhNiNYIZ3YOOeuFAi32bFlGB1vKeGgUsHT3UWsCGck3Cq0bxGCiCDx3ykFBQXYv3+/bBEu/1pq4u+nAhD6FCJDhLcKD2BFWkKsjN4gNhKu0ajodNIkrhZVCD9GwUg4sXVSruQLt9mpVTM63kJ4urtArRL7/VnBSLhVkJWKvnbtWhiN0s74FwPYZw8i3AzgmMgBHzt2TPjCqdUqtrggxMoYTSbB1zW7HpCmUVuvR0lljVCbIX6erGdAbFyEi4+Et4kIhDuDKRbBw8VJuE3R7SAdAZUKGCLxPLhE1gAwKGENLPEUKjQ0XVVVhQsXLgh3FFPSCbG2CBcbUtSoGQknTUf0uXC1SoXQABaZIrbL2Yw84TY1ajXPhVsINwkivKpWR8dbmIToMIT5i/8uqaysxPbt22VOfZVS1sDmRDjQ0KpMuAhniwtCrCvCjWIj4VpGwolFRHiZcJtMSSe2THFFDQrLqoXb7cyUdJsV4TX1ejrewgzrKicKvn79etTVSTteUAUgiSLcxkR4QgyLehBiVREuOB1do6EIJ5YQ4eIrpDcLoAgnto2MaHiXWIpwmxXhdRThFhV/KhWGJDpkVfQNABRTYMAST6HpAIpEDvrQoUPCHRXg7S4lbYMQhxHhRtFnwpmOTppOlgQRHuznSccTm+bU5VzhNhOiQ6UISHvDXYIP63QU4ZakY8swBPuK/x6pra3Fxo0bZU59tZLWwVKhoKMiB33y5EnU1NQIdxaj4YRYD4PwM+GMhJOmIyMSHkIRTmycE2niRbiTVoNOLcPp/CbCdHTbZ3i3WCl2N2zYgMrKSlnTrgew3h5FuNCUdL1ej2PHjgl3Fot6EGI9RKej80w4sQRXiyjCCblZUq7ko04nvkBxt7YRdL4NivBainDLCT+VCoM6tZRie+nSpTKnvg1ABUW4BZCRks4K6YRYUYQbRZ8JZzo6aTplVbWo14sVEyF+PBpFbBuD0YSUDPH9wnu0owhvKs5arXgRznR0i9ElthkCfTyE262pqcGGDRtkTn2V0taCIvwmaBsZzP6shFgJk1lsOroKFOGk6ZjNQH5plVCbwb6eUHH7EhvneFqOcJutmwfCz8uNzm8CTlrxWWT1OgMdbyGGdZWTir527VpUV1fLmrYJwDp7FeHZAIQe8Dl48KBwZzlrNWjdPJBXMCGEkN8oECzCnZ008PWkkCC2zQkJIlytUqFX+yg6vwnIqKdiFFwzxp7XbqBjpqLvA5CntPWw5JUkNBqelZWFq1evCndYQgxT0gkhhPw/+aXiC80wJZ3YvAi/lAO9wSjcbu84ivCmoJXQ3tNgNNLxFqB72wj4S8gEqaysxObNm2VOfbUS18OSV5Lw/HAZ0fD4FhThhBBCfi/Cq4TbZHE2YuvU1utxVsK58N5xUeyOYWMi3GhkJNwSDOvaWo4CXr0atbW1Mqe+SonrYckrSbgilnEunJFwQgghFOGENJ3k81nCbXp7uLLbTROQk45uouObiLNWIy0VfdmyZTKnfhxAur2L8GQAQvNFZIjwZoE+8Pd259VMiKUR/aKbha2IhSiQIsKZjk5sn8MSRDgA9IlvQec39qvabJZgk35vKn0TouHt7iLcbllZmexU9FVKXRNLivBKAOeE3rwPH4ZeL75tQXwLvkElxOZFMb/UiYWQcSY8gC+DiR1wOj0PNRJ6QPfvEEPnNxKTBEXMlqJNZ3SPNlLsrly5EjqdjiLcyiIcEJySXltbi9OnT4sX4ewXTggh5DcRLj4S7u9FEU5sH4PRhBMXxVdJb9UsAC1C/bgAjUBGajjP8DcNbw9X9JaU/fHzzz/LnPp5AGccRYQLzw+XkZJOEU6IFWA6OrFRyqvrUCe4j62fN1uUEfvgQMoVKXYHd25F5zdKhEuIhKv5hd0UhndtDWetRrjdoqIibN++XebUFyt5XWw6Ei5LhCdEh/KtHCEUxYT8RklFjVB7MtrMEGIN9p3NkCTCW9L5jcBgZCTc1hjdo60UuytXrpRybPh3LFPyulh6V6cAqBA5ARltytxcnNC6eSCvakIsiFbwl6zJxEPhxIIivFKsCPfzcoeKL66IHZCZX4aswjLhdttGBqN5kA8X4CYxShDhLs5aOr6RNA/yQUJ0mBTbS5culTn1kxBcq0y2CDcBOCxyAqmpqSguLhbuuI4tw3hlE2JBNIJ7j8p4m0/sWYSL7YHqrNXAw9WZjid2wb7TslLSGQ2/WUQfvQEAd1cnOr6RjO7RVsoL28LCQuzevVvm1JcqfW2s8dQrND/cbDYjOTmZIpwQWxfhgiPh7DtKLEmp4Eg4ALbLJPYjws9kSBLhPBd+s1TXia907eHCF46NZWQ3OVXRf/75ZxgMBplTX6b0tbHGU69DnAvv1CqcVzYhlhThgluQGBkJJxZEdCQcYIV0Yj8cTc2W0qosrkUoQv29uAA3QU29eBHuzqyfRtEhJgyRIb7SRLhEjgBIc0QRLlwRyzgXHuzryRs3IRZEKzodnWfCiQWREglncTZiJ+gMRhw+nyXcrkrFlPSbFuF14l+WeDAdvVHIKsiWmZmJvXv3ypz6z7awPtZ46i0AcFnkJA4cOACj0SjceUxJJ8RyiE5HN0i4ZxD7RUYk3I+RcGJH7DhxSYpdpqTfHFV1jITbAk5aDYZ2kbO3FyxYAJO8I39m2EAqurVEOCA4Jb2iogIpKSkSRDhT0gmxFKyOTmxahFeIj4T7eLjS8cRu2HXyMvQG8S9HO7QMQ5CPBxfgBqmRIcJ5Jvym6RPfAr6ecrKlFi1aJHPqhwBkOLIIF56Svm/fPuHO68RIOCGWE+Gsjk5sWYRLSEf3cneh44ndUFlTj8MXssU/CKtUGMSUdEWLcKaj3zyyUtGPHj2Ks2fPypz6UltZI7uIhMsS4a2aBcLTjW/nCLHIzUgtuDAbq6MTC1JWVSfcJr9/iL2x/bicWkqyKkjbItUSzoQzHf3m8HZ3Qd+EFlJsz58/X+bUTbCRVHRrivATAIQ+kcgQ4Wq1CnEtQnm1E2IBtBqNWBFuZDo6sRxVtfXCbXq5MRJO7Isdxy9JeUHaoWUYokL8uAA3QL3eIHyNGAm/OYZ2aQ1nrUa4XYPBgKVLpQai9wG46ugiXAfguMiJpKen4+pV8X5ncTZCLIOzk9gvDIOJhdmI5ajTGYSfZ/WkCCd2Rnl1HY6mynmGHtWd0fAbRXQ03Mud9S9uhjE920mxu2XLFuTl5cmc+lJbWidrHsIUnpJ+4MAB4Q7sxOJshDT9RqRSCX9rW6cz0PHEolTVij0ryTPhxB6RlZI+plc7qFUqLsANUCu4VzjbMd44zQJ90CFGToBwwYIFMqduArCKIrwBhyjOFh8TKry1EiH2hugoOADU6xkJJxYW4XViU9J5JpzYpwi/JKV7RZi/Fzq1ZmDlRqisES3C2Y7xRhnfuz1kvEuqrKzEmjVrZE59F4AcivBfNbEjiHB3Fye0ahbAq56QJuDipBUvwhkJJzb+YMoz4cQeKamowYlLcp6lx0pK47W5NRLcDcLL3UXKGWdbQ61SYUxPOVXRV6xYgZqaGpnT/9nm1suKn50N4IrIyRw/fhxVVVXCnch+4YQ0UYQ7ixfhOgNFOLEsoouz8Uw4sVdkpaQP7dIa7i4sAnZdEV4hXmz5MRp+XXq2j0Sov5cU25KrohsArKAI/yP7ha6AwYAjR44Id2KnVizORkhTcJUQCeeZcGJ5ES42Eu7spGF0iNinCD92CSaz+JR0dxcnDOgYwwW4ngivrBVuk+fCr8/43u2l2M3JycGuXbtkTn0zgEKK8D/iECnpnVoxEk5IU8WEaHQGngknlhbh4tuUuTFqR+yQgrIqnEmXU2V5DFPSr0tppfhIuL83I+HXwsfDFf0lvUBasGABjEapz1TzbXHNKMItQLCvJ0L8vHgHIKSR8Ew4sQ8RrhN/7Ug4ykGICLYeuSjFbve2EQj29eQCXINiCenojIRfmzE920rLjJJcFb0CwC8U4f/LaQDlIid04MABmEwm4Y5kSjohtiUk6vUU4cT295SLliKc2CebD1+AwSj+eU6tVmEke4ZfkxJGwhXH2F5yUtFPnDiB06dPy5z6cgA1trhm1hbhRgDJIidUVlaGlJQUCSKcKemENBaeCSf2gF7CEQcZRzkIESP0arH/7BUptsf2Ykr69dZGuAhnYba/pH2LEMQ2D5RiW3JBNgBYYKvrJqLBtUOkpHdp3Yx3AUIaK8KdxZ9r5ZlwYmnqdHrhNpmOTuyZDYfOS7EbE+aPzgyu/CWlFYyEK4kJkgqymUwmLF26VObUrwLYTRHu4CI8OiyA51UIaSSebs4SBBMj4cSy1OvFv9hxYXV0YsfsOnkZ5dV1UmxP7p/ABfgLiiWkowf5eNDxf/Yd4KTFiG5yjk9s3boVV69elTn9+WjIuqYI/wsOoqF/m12LcJWKKemE2JIIr5ZQyZrYNzq9jHR0RsKJ/aI3GJF0VE6BtqGJrRhcuca9rrpObCHKYD8Wy/szhiS2kvIMBQBz5syRPf2Ftrx2IkR4FRoKtAnj8uXLyM3NFe7MzkxJJ6RReLhKEOF1OjqeWBQphdkowomds/6gnJR0J62GZ8OvgegK6SF+nlCp6Pf/ZkIfOanoJSUlWLNmjcypHwNwhiL8+ggPTe/fv1+4MxMpwglpFO4SRHgVRTixCxHOdHRi35y6nIsr+aVSbE/ulwA1ld+fUlhWJfhep4WPBzMTfk94oDcSWzeXYnvBggWoq6uTOf0Ftr5+divC9+7dK9yZrZsHwsvdhXcFQm4SKZHwWopwYvsinOnoxBGQVaCteZAPureL4AL8CfmlVcJtMiX9j0zsEyctO0ByKroRwGKK8Btjj+iJ7d4tvlieWqVCp5Y8F07IzSLlTDgj4cTC6A0SehozSEccQYQfPA+T2SzF9uR+LND2ZxRIEOGhFOF/0BxjeraVYvvo0aM4ceKEzOlvBZBHEX5jXAWQJXJiJ0+eRFlZmXCH8lw4ITeP6Ei40WRidXRiF6iYKkscgNySShy/KKcK84CO0Qj2pfj7HxFexki4THrFRSHEz0uK7dmzZ8ue/nx7WEO1QFtCU9KNRqOcfuGxFOGE3CyebmKPcTAVnVgDM8x0AiFWQlaBNo1aLa34lZKRko7OlyG/IWtP1tXVYfFiqZng1QDWUoQrWIQDclLS20YGSSkyRYgtIzoSzqJsxEoqnBBiJZKOpaG2Xi/F9qS+8VDz7Id0ER7CSDgAwN/bHf0SoqXYXrFiBUpLS2VOfzkaOm9RhFOE/xGNWo0OMaG8QxByE7i7Ogm1x/PgxCoaXMKZVQoD4ijU1OmwVVLP8GA/T/SNj+Yi/I6C0koJItyLjkdDQTYnrZzOGExFt00RfgpAhcjJHTlyBJWV4m8SbFVGyM3h6+Eq1F4V09GJNUQ4XUCIVVm++7Q027cNZIG231NaVQudwSjUJs+ENxRkm9g3TortjIwM7Ny5U+b0cwDstJu1FGjLCCBZ5OQMBgMOHjxIEU6IgnHSauDmIjYdvYaRcGINES5BhbOHMXEkUjLycS6zQIrtXu2j0KpZABfhd/c70b3CQ/284Oi3vN7xUQgP8JZie/bs2TCZTDKnv/BXPUkR3giEN++WkZIe1yIErs7s3UrIjeDr4Sr8S7W8uo6OJ5Z/KGUsnBCrs2rPGWm2pwzsyAX4HfklYkW4s5MGfp5uDu3zW/t3kGLXZDJh7ty5sqc/157WUrQIF66Id+3aJdypTloN4qN5LpyQG8FbcCo6AJRVUYQTQogtsin5grS6HmN6toWvg4vAP4hwCW3KQv0d91x4qL8XesdFSbG9ZcsWZGZmypz+IQBnKcIbz0EA9SINJicno65O/AM3U9IJuTH8vMQ/0JRV1dLxxOI4acQXyjGaGH0njkVNvR4bDslpV+bipMXkfvFchP+I8BLxdZccWYRP7ievSr8CCrL9aG/rKVqE1wI4LNJgfX09Dh06RBFOiELxkRIJpwgnVhDhWrVwm3qDkY4nDsfK3fJS0m8b0EFaZWrFifBSRsJFodWoMa6XnN7gxcXFWLtWamvuagBLKcKbjkOkpCfEhMKZN2lCrouM1D6eCSfWQMY9nyKcOCIXrxbh1KVcKbaDfD0wJLEVFwFAXgnblIliUKeWCPL1kGJ7wYIFqK+vlzn95RDcYYsi3FIGJRRnc3HSol1UMO/QhFxXhPNMOLEPtBLS0fVGEx1PHJIVEgu0TR3amQsgSYQ7aiT8lv7yWuTNmTNH9vRn2+OayhDh+wDoRRo8cOAAdDrxRTy6xDbnHZqQ6+DjwTPhxD5wYiScEGFsPZKK0ko59/J2kcHo2DKMIryUIlwELUL9pGmKw4cP4+TJkzKnfxHAHopwy1AF4LhIgzU1NThy5IjwiXalCCfkusiIhDMdnVgDKenoRopw4pjoDEZpBdoA4M7BnRx+DSpr6oVXqndEET65X4K0/ujffvut7OnPBuyz/6dakl3hh7RlpKR3ahUOZyeeCyfkmiLcg2fCiX0gozCbwcB0dOK4LNt1CmZJj+eDO7dCeKC3w6+B6JR0fy93h3q2dnHSYmzPtlJsl5eXY8mSJTKnbwAwz17XVpYId4hz4c5OGiREM12JkGuKcMEtyqrrdEzhJVYS4UxHJ0Qk2YXlOHw+S84DtFqF2wZ0oAgXLMJVKiDE13Gi4SO6xcJbQhcZAJg7dy6qq6tlTn8TgByKcMuyB4DQJ4e9e/fCYDAIn2i3NkxJJ+RaBPmIrfZZzqJsxEp4uDoLt6mjCCcOzuLtJ6TZntwvHl7uLhThggn193QY/8osyPbdd9/Jnv5se15bWSK8HMApkQYrKytx4oT4G3W3thH8hiTkr25AahX8vcVGwlmUjVgLTzfxIlz0eUxClMbeM+nIyCuVYtvD1VmqSFIC7BVuPWIjghDXIkSK7V27duHs2bMyp18AYB1FuHVwiH7h8dEhcJcQHSHEFgjwcodGLfY2VFheTccTqz2QU4QTIhazGfh5p7zqzXcN7gQXJ63D+p9tyqzHbQPkveCZNWuW7OnPg+BuWhThdibCNWo1OrXiuXBC/owgXw/hNgvLKMKJHYnwWopwQtbuT0GFpIKb/t7uGCOpcJajivAQP/sX4Z5uzhjRrY0U2wUFBVi5cqVsF8yx9zWWKcJ3ARBa1nX37t0wSmjn0jWWKemE/BmBPuJFeFEFRTixkggXnI6u0xt5JpwQAHU6A1bvS5Fmf9qILsKzuhxZhDtCJHxCnzi4uzhJsf3jjz9Cp5P6gvcAgBR7X2OZd4xiAOdEGiwvL8fRo0eFT7RbWxZnI0QpIpyRcGI1ES44El7FVHRCfuPnnSdhNMlp2dcs0AeDO7d0SL8XlFXBZBLbJ87eRbhaJa/yvslkwvfffy/bBbMd4dqR/dpOeH749u3bhU+yTUQQfD3dQAiRL8KLGQknVsJTsAivoQgn5DfySiqx4/glafbvG9UNKpXj+d1gNKFIcK0VexfhfROi0TzIR4rtTZs2IT09Xeb0qwH8TBFufYSfC9+xY4d4J6tUSGwdzm9IQv4LGWfCCxgJJ1ZC9MvWqtp6Op2Q37FIYruy2OaB6NEu0iH9Ljol3dVZa9fBrTsGd5RmWwEF2ZYBqKAIt0MRvnfvXtTXi39w6cp+4YT8D1LOhLM6OrECKhXg4+kq1CYroxPyR05dysWZ9Dxp9qeN6OqQfs/luXCLERMegG5t5NSSysrKwoYNG2S7YLajXDeyRXgugFSRBmtqanDo0CEJIpzF2Qj5b4IEi3CD0YSySvYJJ5bH291VeGGmsqo6Op6Q/2KxxGh4tzbNkRAd6nA+Z3E2y3HHoI7SjjV8++23UgpY/45zAPZShItDeDRcxrnwmDB/4YKDEMWLcF9PofZKKmpgMpvpeGJx/LzEp0aWVfGFEiH/TdLRNOSXVkqz/7fhiQ7ncxn+DvX3tDs/eru7YFR3OW3JDAYD5syR3hXsawAO85CmBBHuEMXZAKALU9IJ+Q1nJw38vdyF2iwoq6LjiVUQvZcBoLiiho4n5L8wmkxYtuu0NPsDO7VEi1A/h/I5e4Vbhol94+EmqS3ZqlWrkJOTI3P61QDmO9J1owQRLlwRHzp0CNXV4s+FdqMIJ+Q3wvy9hadc8Tw4sRaMhBOiHJbvOoWqWjk1E9QqFe4f1Y0i3Ooi3L4i4Wq1Crf2T5BmXwEF2RYBKKcIF0sOBJ8L1+l02LtX/JGD7g5aNZOQPyM8wFu4zaJyRg6JdZBRqbeU9Q0I+VOqanVYtfeMNPsju7VBZIgvRbgVCfS2ryOeAzu2RHigtxTbaWlpUrpH/RffOtp9Sq2QcQiPhsvYbGH+XtIuMEIUJ8IlXAt5Es8JEvtGRs2PEopwQv6SBVuPQaeXU2RKrVbhXgeqlF5RUy+8W0OgndVZumOQvLZkX331Fcxy6+UkAzhKES4H4Yp427ZtUibajVXSCQHQ8FJKNDlFFXQ8sQoyKvWWVjKzg5C/oriiBhsOnZdmf3SPtg4VeBFdcyXAx91ufNcyPACJsc2k2K6qqlJCQbZZcECUIsK3ATCJNHj8+HGUlpYKnyj7hRPSgIyHk9xiinBiHUIkiHCeCSfk2szbelRaRwytRu1Q0XDRx708XJ3hLqmImaWZOrSzNNs//fQTysulHsUuA7CUIlwexQCEHt4xGo3YtUt4YXZ0a9NcWv8/QhQlwiWcCb9KEU6shOjMDp3BiFKKcEKuSWZ+GXaeuCTN/vje7aVkfckR4eILnwbYwblwX083jOwmpy2Z2WzGV199JdsFPwFwyLQutYLGIjw/XMa58EAfD8SEBfCbkVCECxbh9XoD03eJVVCpgGDBlXrzSyvBlveE3MAT/mZ5R021GjX+NrwLRbjVnqltPyV9cr94ODtppNjevHkzzp8/L9sF3zvqvUlJIly4IpbVL7xne1ZJJ46Ni5MWfoL7KucUV1C0EKsQ4O0BZ63Yh6i8Eva8J+RGSMnIx+EL2dLsT+wbh2BfT7v3sxwRbtuRcI1aLbUt2eeff64E7ZdCES6fnQAMIg2ePXsWeXl5wifag63KiIMTHiC+R3huESujE+sgoyhbASv9E3LDzN18RJptZ60GfxueSBFOEf4/DElsJTyL6j9cvHgRmzdvlu0ChyzIpkQRXgnB5enNZjN27twpfKJdYpvBxUnLb0XisIQFihctV4vL6XhiFZoH+Qi3mVtMEU7IjXIwJRPnMguk2b+lX4KUNoZiRbj44162LsLvHNJJmu0vvvgCJpNJ5vTzAKymCFcOwvPDZaSkuzhp0alVOL8VieOKcH8ZldEpWoh1iAz2FW5TdDsgQmyd+VuOSbPt7KTB3cPsOxrOM+E3R+dW4UiIDpViu7KyEnPnzpXtgh8B6ODAKE2EO8y5cKakE0dGRvou25MRexLhfKlEyM2RdOwisgrLpNm/dYB9R8OLK5iOfjPIPKLwww8/oKJC6jORCcAPjn5PUpoI3wOgTqTBS5cuISMjQ/hEWZyNODLBvuK/OHMowokdifC8EopwQm7qqd9kxk+b5FVKd3HS4r5R9ts3vKpWhzqd0NJO8PN0s0lfRYX4oW9CtBTbZrMZs2ZJP4q9AUAGHBylifA6AAdFG5URDW/dLNDmz7IQ0lhkRMIpwom1iBAswk1mM2scENII1h88h5wied8Fk/rGC2/PKRLR0XAvD1eb9NPfhiVCLbo67a+sW7cOqampsl3g0AXZlCrCAQkp6Vu3bhU+SZUK6N42gjuQOCSiq4HW6Qwoq6ql44nF8fdyg5e7i1CbecWV0OmNdD4hN4nBaMLcLfKi4U5aDe4dab/RcNHF2XwE33st9Z0xukdbafYV0JYsE8Am3o2UKcK3yRDhMioEMiWdOCIqFRDiKzYSXlBaxR7hxCpEhfiJf4IpKKPjCWkka/adRa7E4xzje7dHs0Afu/RtebXQE6Vwd3WGVqO2KR/dMbgTnJ00UmynpKRg27Ztsl3wDQC+RVaoCE8GILTsa3FxMY4dE181s2e7SEjKRiFEGn6ebsK/gHh+lliL1s2DJIjwUjqekEZiMJqkVkrXatR4YEx3u/RthWARDkB4JlJTcHNxwi39E6TZ//zzz2GWG5GoBfA970LKFeF6AHtFG5XRsN7f213KAxwhMgnxE38ePJ/tnIiVaNUsQIIIL6PjCWkCq/eekdrmb0yPtmgR6md3fq2oqRdu09vdds6FT+wTBx9J59hLS0uxYMEC2S5YAKCYdyDlinBAQr9wGefCgYZoOCGORJCvp3CbBaUU4cSORHg+RTghTUFnMGLB1uPyHr7VKjw4pofd+bWyRnwk3MdGirOp1SrcMbijNPvff/89qqurZbvhS959KML/h/3790vpmcdz4cTR8PMS31Ikv5Tp6MQKX6AqFVo1CxQvwhkJJ6TJLN99CkXl8kTJsK6t0VrC/cOalFeLj4TbSjr6sC6tpdUCMBqNSmhLth3AKd55lC/CjwMoEWlQr9dj165dwifauVU43FycuBOJw+Dp5izcJs+EE2vQLNAH7oLv37X1eqktlgixF3R6IxZtkxgNV6nw4Fj7OhvOSPhfc/ewRGm2165di/T0dNku+BzEJkS4CYBwRbxlyxbhE3XSatC5dTh3InEYPFzFi3CZ0Q5iv7RuLj4V/XJuCUws9U+IRVi267TU9pWDOrVC+6hgu/FneQ0Ls/0Z3do0R7tIeev88ccfy3ZBOoB1vOPYhggHgCRHEOEA0LNdFHcicRg83cR/YVbV6uh4YnHaR4UIt5maXUjHE2Ihauv1WLTthDT7KhXw5C197cafFRLS0W0hEv634V2k2U5OTsb+/ftlu+ArsC2ZTYlw4ZXSUlNTpaRr8Fw4cSwRLj4SXlVbT8cTixMXHSrcZtpVFpYlxJIs2XFSeH/r39Mltjl62EmR3gpGwv+HluEB6NVeXrDt/fffl+2CGgBzeKexLRF+EcBl4cpfQpX0mDB/KW2bCHEEEW42A9V1ejqeWBSVCmgbIb7F5MWrRXQ+IZZUCHU6zNtyVOoYnrylL9Qqle2LcAmRcBnZdTfDPcMTIWtpL168iDVr1sh2wU8QXOeLItxCmli0QVkp6T3aRXA3EscQ4a5ivzBrdXoYTSY6nliUFiH+UiIwlxgJJ8Ti/LzzFEoqaqTZj20eiKFdWtu8Hytr6iG6ZIWzVqNYfwT7emJ411hp9v/973/DJPf5xwy2JbNZES5cEW/btg0Gg0H4RJmSThwFD8GR8GqeBydWIC5a/Hnw/NJKqWmzhNgrtfV6/LRZbjT88Ym94aRgQXkjGE0m4S+9nbTKlTJ3DukkbU0LCgowb948Jei4c7zD2KYI3w5AqCIuKyvD4cOHhU+0R7tIqNUq7khi97i7im3pVF1HEU4sj4yibBeyWJSNEGuxfPcpFJRWSbMfHuiNCX3a27wfdQax9beU+uLC080ZE/vESbP/5Zdfora2VrYb2JbMhkV4GYBk0UZlpKT7eLgiTsJDHSHCbzqCD0fV1PM8OLE8ia2bCbd5NiOfjifEWuJRb8RPm49IHcP0sT3hLqGNpyXRCxbhSk1Hv3NwJ2lF42pqavDNN9/IdkEagE28s9iuCAcknAuXUZwNAPrEt+COJHaPCmJFuJk9lYmF8fZwRUy4v3C7Z9IpwgmxJiv3nEFOUYU0+/5ebrhjUEeK8JtAiZFwNxcn3C5xHWfPno2iIulFPD8HwII8Ni7ChYelDx48iNLSUuET7ZtAEU4cQoUTYtMktm4mPKPDbAbOZxbQ+YRYEYPRhNmbDksdw70jusDfy81mfch0dODW/gnw9ZSzhkajEZ999plsF1QCmMs7iu2L8EMQXNreaDRix44dwifaJiIYQT4e3JWEWFS8MBJOLEvnVuHCbWYVlLEoGyECWLs/BZn5ZdLsu7s6Y9qIrjbrP4NBbPBTaenozloN7hrSWZr9lStXIi0tTbYbZgOoALF5EW4EIFwRy0hJV6mAXnFR3JWEEKJgEmMlnAe/wlR0QkRgMpnx40a50fApAzugWaCPTfrP0SPhE/rEIchXXkDtk08+ke0CM4BvQOxChAMSUtI3bZJTS4Ap6YQQoly83V3QpnmQcLspLMpGiDA2Jp9Hel6JNPtOWg0eHNOdIvyGfKUcKaPVqPG34YnS7O/atQsHDx6U7YYNAC7wLkIR3mgyMjKkpHP0aBdp830iCbkWgo/SgsnoxJJ0axshpZ3kibQcOp8QQZhMZnz3yyGpYxjdoy1ahgfYnO8MDlwdfVT3NggP8JZm/6OPPlKCG/7NO4h9ifAMABdFG928ebPwiXq4OqNTyzDuTEIshEbFSnDEcvRoFyncZnWdDhey2SOcEJEkHbuIM+l58h7Q1So8NrG3zflNfCRcqwxBpVbh3pHyzvKfP38eGzdulO2Gk5BwhJgi3PoIj4Zv2LBBykR7s1UZsWP0gou2eLg50+nEYvRsL16En7yUC5OJOR2EiMRsBr5YtV/qGPp3iEaX2OYU4ddAKZHwoYmtERXiJ83+Rx99BJNJekew93nnoAi3CDt27EBNTY3wibJfOLFnaup0Qu25u1CEE8sQGeIrJdXw+MWrdD4hEjiamo3kc1lSx/CPSb3BhC5lo1IB90g8C56fn49FixbJdkMGgOXcDfYpwncA0Is0WFtbi507dwqfaEyYP5oH+XB3ErukWrAIZyScWIqe7eR0rzhGEU6INGau2AOTxFaX8dGh6JcQbTP+0giumWGUH/1Fv4RotI0MlrdHZ85EXZ30FpafAjDwjmGfIrwSwAHRRqWlpLNVGbFbES70XRrcnJ2kFNIi9seAjuIfhOv1BqRcKaDzCZFEanYRko5elDqGJyb3hUZtG4/sasHjNCrgqM59o7pJs11RUYFZs2bJdkEpGnqDEzsV4YADnQtnSjqxXxEuNhKuUgHuLk50PGkSHq7OSGwtvj/4yUu50As+Y0kI+SOz1h6EwSgv4toi1A+je7SxCV+JLoYq+xx097YRSIgOlWb/q6++QllZmexl/xpAFe8UFOEWJT09HefOnRM+0a5tmsPVWcsdSuwO0WfCGwSUCx1PmkTvuCgp7SMPpmTS+YRIJrOgDKv3npU6hkcm9LKJ50LRmWeyi1beLzEKXlNTg5kzZ8pe8noAX/EuYf8i/CiAYtFG169fL3yiLk5am6uISciNUC1BhPt4utLxpEn06yDnTObBcxThhCiB79YdlPIS+T8E+3ririGdKcL/C6PE8/oJ0aHo2kbes/r333+PggLpx5XmA8jlHcL+RbgJQJJoo0xJJ8RyVNWKf4gJ9vWg40mj0ajVUu7HJRU1uMj+4IQogpLKWizZcVLqGO4d0QUB3u6K9pOrs9jjXzKP6zwwprs023q9Hp988ons5TYD+IR3B8cQ4YCElPS9e/eivLxc+ET7UoQTuxTh9RJEuCcdTxpNlzbN4OMhPpvi0PksmNkenBDF8NPmoyiprJVm393VWarwu6ExCq7BUlevlzLPNhFB6B0n7zn9p59+Qmam9EypdQDO8c7gOCJ8IxrevAhDr9cjKUl4AB7hgd6IDvXnLiV2RVF5NUU4sSmGdWktxS7PgxOiLGrqdJi7+YjUMdzSLwEx4QGK9ZGbYBFeq5PTFWv62B7S+rcbjUZ89NFHSljuD3lXcCwRngvguGij0lLSE1pwlxK7Ir9UfAHNYD+KcNI4NGo1BnZsKdyu2Qwc4nlwQhTHzztP4WpRuTT7arUKj0/srVwRLrh4XJ1OfCS8bWQw+neIkebjxYsX4+LFi7KX+jCAvbwjOJYIBwDhinjDhg0wS8gL5LlwYm8UlEkQ4YyEk0bSJbYZ/LzchNs9m5EnJWuEEHJt9AYjvl+fLHUM/TtEo3u7CEX6R/SZ8FoJ6egPj+spLQpuNpvxwQcfKGGp3+fdgCJcCHl5eTh+XHgAHp1bhcPTzZk7ldgNZVW10AkupMJIOGksQxJbSbG753Q6nU+IUh9CD55HanaR1DE8Nbkv1LKU4F/g7uIkvDq66HT0dpHBUgNkq1atwpkzZ2Qv9WUAa3gncEwRfgiA8Jr8MlqVaTVq9GgXyZ1K7AazGSgUHA1vHugj/MGA2D5OWo00Eb7r5GUuACEKxWQ2Y9baA1LHEBsRhJHd2yjKLzIKWIqOhD8yoRdkvvt47733lLDUHwEw8k7gmCLcBAlV0mWdCx/QMYY7ldgVos+FOztp0CzAh44nN0W/hGj4eopPRc8tqUTa1WIuACEKZvepdBxNzZY6hscn9Yar4DPY10LG/bK8uk6YrQ4xYegdFyXNv5s2bcKRI0dkL3MhgHm8AziuCAcaqqQLJTk5GQUFwgPw6JcQDa1Gzd1K7IYCCcXZosPYaYDcHGN7tZNid9cJRsEJsQW+WLVfahvBYF9P3Dm4E0W4IB4a10Oqf//1r38pYZm/AlDDq9+xRfgmCE6FMJlM2LJFeAAeXu4u6NQqnLuV2I8Il1CcLSacIpzcOP5ebtIiHrtPUYQTYgucSc+TXr/hvpFd4e/trgh/+HiKT0cvrxLTt71jyzCpx0N3796NPXv2yF7iGgBf88qnCC9Bw9lwoTAlnZCmk1lQJtxmdKgfHU9umJHd20jJQCqrqsXR1KtcAEJshM9X7oXRZJJm393VGQ+M7q4IX/jKEOGCIuGPjO8l1bfvvvuuEpb4ezSkoxMHF+GAhCrpmzZtgsFgED7RgZ1aQsW6UsROuJxbIl6EhwXQ8eSGGdNTTir69uOXpD7QE0Jujoy8Umw4dEHqGCb3i0dUiPwXzcG+XsJtllVZX4R3ahWOrm2aS/Pr8ePHsXXrVtnLqwfwCa94ivD/ILxceWlpKQ4dEh6AR5i/F1o3C+SOJXZBugwRHurHCunkhmjVLABtIoKk2N52LI0LQIiN8c2aA1L6Vf8HrUaNJyb3ke6HEAntQMsEpKM/KjkK/tZbb8Ess/hAAz8ByOTVThH+H04CEJ63x5R0QppGZU09Csuqhdp0c3FCq3BGw8n1GSspCl5eXYcjF7K5AITYGAVlVVi07YTUMQzoGIPubSOkjiFYgggvtbII794uAomxzaT59Ny5c1i7dq3sLW5EQ1syQhH+G2ZIqJK+bt06inBCmkh6nvhoeHx0KB1ProlGrZbWe3cHU9EJsVnmbjmKkgq5RaMfn9RH6tFF0ZHwmjodKmvqrWrjobE9pa7p22+/DZP874UlAC7yKqcI/2+Eh6VPnTqF9HTx1TDbRgYjPMCbu5bYhwiXkJKeEBNGx5Nr0ic+CoE+HlJsbz58gQtAiI1SU6fDt+sOSR1D+6hgjOgm5yWiWqVCkOB7Z76VO630ah+Fji3lPTekpKRg6dKlsre2GcD7vMIpwv+MJAA60UZlpYb0TYjmriX2IcIlRMITGAkn1+HWAR2k2C0orcLRi6yKTogts2rvGVzOKZY6hkcn9IKzk0a43SBfTzhpxdrNL7GuCJ8uuS/4m2++qYQo+GoAZ3h1U4T/GZUAhDfOW7NmjZTJDmRKOrETLueIF+FRIX7wdneh88mf0izQBz3by+kDu+7gOZhMZi4CITaMyWTGF6v2Sx1DeIA3bh/YUcL3q69wmwVWjIT3TWgh9cX92bNnsXz5ciVs6/d4ZVOEXwvhKem7d+9GcbH4t52Jsc0oIohdcD6rULjoUKl4Lpz8Nbf0j4da0oHKdQfPcQEIsQP2nE5H8rksqWO4f1Q3+HiI7dkdKUGE55daT4Q/OEZuFPy1115TQhR8M4DDvKopwhUlwo1Go5Qq6VqNGr3jW3DnEpunpk4npV+4zF6fRLk4azUY26u9FNunLuciM7+Mi0CInTBzxR6YJLaU8nJ3wd9HdxMrwoPF9ykvsJIIH9AxBnEtQqSt34kTJ7Bq1SolbOV3eTVThF+P8wAuiTYqKyWdVdKJvXDqcq5wmz3bR9Hx5H8Y2qU1/L3cpNhed4BRcELsidTsImw8dF7qGG4b0AERQb7C7MlIR88qLLO8MFKr8NgEuX3BX3/9dSX0Bd8DCcd9KcJtE+Fh6c2bN6Ourk74RPvEt4CzVsPdS2yeM+l5wm22bhYovIIrUT63DkiQYlenNyLpKDu/EGJvfLX6AOp0Bmn2nbQaPDJBXHutqBDxkXBrZBCN7dkOMeEB0tbt2LFj+OWXX5Swhd/hVUwRrlgRXlVVhe3btwufqLuLE1NqiV1w+rJ4Ea5SAT0kFd8iyiS2eSA6SGpft+vUZVRYuc8tIUQ8BWVVWLz9hNQxDOsSiw4CWmx5uDqjWaCP0LnV1utRWG7ZdHQnrQYPjO4udc1ee+01JUTBjwPYyquYIvxG2QmgRrRRpqQT0ngy8kukCJBeTEknv0NWWzIAWM+CbITYLXM2HUFJRY00+yoV8NQtfWHtepNtIoIguqbllfxSWFqrThnYAeGB3tLW68iRI1LqTf0Jb6GhPzihCL8h6tDQM1y4CJdRvbB/hxhIKuJLiMUwm4GzGeKj4T3aRUirgk2Uhbe7C0Z2byPFdklFDQ6czeQiEGKn1NTp8MOGZKlj6BAThv4drBu4aRMRJHxemQVlFv08d1dnTBvRVepazZgxQwlR8LMA1vDqpQi/aU0s2mB+fj6Sk8XfYIN8PdAuKoQ7mNg8MlLSfT3dEB/DVmUEmNg3Hu4uTlJsb0y+AKP8FjSEECuyYvcZKZ1Afs8Tk/tAq7HeI78MEZ6RV2rRz5s2vIu04pwAcODAAWzevFkJW/ZfYBScIrwRrANgFK78JaWkD2RKOrEDjlzIlmJ3aGJrOt/B0WrUuH2QnFR0sxlYuecMF4EQO8doMuGr1fuljiEqxA8T+8ZZ7fNjbVyE+3m54c7BHaWu0WuvvaaE7XoZwM+8ainCG0MBgIMU4YTYDicv5aKqVifc7vCurZmS7uAM69IaIX5eUmwfPp+FK/mlXARCHIBdJy8j+XyW1DE8NLYnPFydLf657i5OaBnuL3w+57MKLPZZD47pAXcr+OZG2bdvH5KSkpSwVd8DYOAVSxHeaE0s2uC5c+dw4cIF4RONCQ9Ai1A/7mJi0xhNJhy5IP7hJNDHQ0jVWKJc7hjcSZrt5btPcQEIcSC+XLUPMo/7+nm54e5hiRb/3ISYMGjUYuVEbb0e2QXlFvms8ABvTLJilsCNMGPGDCVs0SwA83ilUoQ3hVUyjK5du1bKZAd3bsVdTGyeAylyilMxJd1xSYxthrgWcupqFJVXY/epdC4CIQ5EypUCbD58QeoYpg7tbPFzz51ahQufx8XsIpgs9Ebj0Qm94KTVSFuTHTt2YOfOnUrYou8C0PFKpQhvCmkAhPd8kZWSPjSRIpzYgQg/e0WK3WFdW0OtZkq6IzJ1SGdptlfuOQODkQXZCHE0vl5zADq9UZp9dxcn/G14F5sX4eezCi3yOa2aBWB4t1ipe+LNN99UwtbMBDCHVyhFuEU0sXARceAA8vLEV3mOjQhCVAhT0oltk1Ncgcz8MuF2A7zdkdi6GRfAwYgI8kW/DtFSbBtNJqzee5aLQIiDftct3XlS6hhuH9gRwX6eFvksrUaNeAkZRRcsJMKfmNRXam2YrVu3YteuXUrYmm+DUXCKcFsV4SaTCevXr5cy2cGdW3InE5vn4Dk50fCJfeLofAfjziGdpD147Tp5GQVlVVwEQhyU2RsPo7y6Tpp9ZycN7h/ZzSKf1T4qBG4SWjxezG66CE9s3Qy946Ok7oXXX39dCVsyAzwLThFuQZIB5ApX/pJS0ocwJZ3YAfvOyBHhgxNbwdfTjQvgIHi7u2Bsr3bS7C/ffZqLQIgDU1lTjx83JEsdw8S+cQgP9G7y5/SKEy9i6/UGXLxa3OTPeXxib6lrsGbNGhw4cEAJW/JNMApOEW5BTAB+EW00KSkJ1dXVwifbNjIYEUG+3M3Epkk+n4WKmnrhdp21Gozp2ZYL4CBM7p8AdwmRGwDIKizDYcltiggh8lm26zSyCsuk2ddq1Lh7aNMrpfeWIMLPpOdBb2jaufqBnVpK7Y5iNBrxyiuvKGErpgFYwCuSItzSCA9L19bWYuvWrVImOziRKenEttEbjNh98rIU25P6xoMtw+0frUaNKQM6SLP/845TUlsUEUKU83339Wq5UdDxvdvDrwmV0n093dAuKlj4uI9fzGma8FGr8Oj4nlJ9P2/ePJw9q4jaIG+BfcEpwq3ANgCVoo2uXr1aymSHsNUSsQO2Hr0oxW6LUD90ahnOBbBzhneNtVhBopuluk6HXw6kcBEIIQCApGMXcepSrjT7rs5aTBnYsdG/36t9pJTaGicuNU2Ej+nRFjHhAdL8Xl9fr5SK6BcBLOaVSBFulX0OYLNoo2vWrIFOJ/5oRfuoYDQP8uGOJjaNrJR0ALhtYAcugJ1z55BO0myv3nsWVbU8dkcIacBsBmau2Cs1O+b2gR0afTxHxnlwk8mMU5cb34nIxUmLh8bJjYJ/9dVXuHLlihK24OtgFJwi3JqaWLTBsrIybN++XcpkWSWd2Dp6gxE7T1ySYntoYmu+yLJjusQ2R7vIYCm2TSaz9LZEhBDlcepyLnadvCTNvreHK8b2an/Tv6fVqNE3voXw8V7ILkRNXeNfZt4zPBGh/l7S/F1ZWYkPPvhACVsvBcBSXoEU4dZkHQC9aKPLly+XMlmmpBN7IElSSrparcKdgztxAeyUqUPlrW3SsYvIKargIhBC/ofPV+2DwWiSZv/uoZ2hVt9cWnnP9pHw9nAVPtamnAf393bH34YlSl3rjz76CAUFBUrYdm+goYg1oQi3GmUA9og2unLlSkkp6SEID/DmriY2TfL5LGk9VCf0iWO7MjskMtgXfROipdlfvO0EF4EQ8qdk5pdh1d4z0uyHB3qj303eH4d1kRP0OZjS+DTuxyf2hrurszQ/FxYWYubMmUrYcmcBrOCVRxEuAuEp6aWlpdi5c6fwiapUDT2PCbFlDEYTth6REw1vKFTDs+H2xh2DO0opIAQApy7l4nR6HheBEPKXfL/uEKrr5NWMuOsm6mU4aTXo1yFG+Bh1eiOOXbzaqN+NbR6IsT3bSV3jN998E5WVlUrYbq+BUXCKcIEiXHjZC3kp6RThxPZZsfu0NNu3D+oIN0l9pInl8XJ3adSZR0uxIOk4F4EQck1KKmuxUOK9oktsc7S/wXZjvdpHwdvdRfgYj6Rmo07XuDpiT97S96ZT7i1JRkYGvv/+eyVstdMAVvOKowgXxRUAp0QbXbVqFQwG8UUH41uEIkxi0QlCLMHFq0VIuSLn3JSPhysm94vnItgJE/vENbr6b1PJKa7ATolFlwghtsPCpOPSjmIBDS+gb4ThXeWkoh8427hU9P4dYtCjXaTUtX3llVekHFP9E2aAUXCKcMEIT0kvKiqSlpI+qDOj4cT2WS3xjNx9I7vCQ+LZMWKhLzi1CrcNkHe8YMn2EzCZzFwIQsh1qa7TYe7mI9LsD+8ai0Afj2v+Gy93FwzsJKcTz74zGTf9Oxq1Go9P6i11XU+fPo0lS5YoYYsdA/ALrzSKcLsX4YC8lPShTEkndsCm5AtNakXSFHw93TB1aGcugo0zsGNLhAfKKVZZXafD2v0pXARCyA2zZMdJFJRVSbHtpNVct3r4qO5t4eqsFT62nKIKZBaU3fTv3TYwATFh/lLX9IUXXoDJpIjg82uQcDyXUIQfB5Ap2uiKFSukpKQnxIRJ7YNIiCWoqddj85FUafbvHpYIfy9WSrdl7ryJYkOWZuWeM6iq1XERCCE3jE5vxE+bjkqzf0v/BAR4u//l30/sI6e+xu5T6Tf9O17uLnhgdHep67lnzx5s3LhRCVvrEID1vMIowmVgBrBKtNGioiLs3r1b+GRVKmCQpHQhQizJqr1npdl2d3HCvSO7chFslDYRQejcKlyKbZPJjGW7TnERCCE3zep9Z1BcUSPFtquzFvcM7/Knf9cuMhixEUFSxpV07OY7pjwwurv0lqMvvviiUrbVa7yyKMJlskyGUVZJJ6TxpGTk43xmgTT7t/bvwEKHNsqdgztJs73teBpyiiq4CISQm0anN+LnnSel2b9tQAcE/cnZ8Al94qSMp6CsCqcu5d7U7zQL9MFtktuNrl69Gvv371fCltoFYAuvLIpwmewHkCXa6MqVK2E0GoVPtkPLMAT7enKHE5tHZosnZycNnrq1HxfBxvD3dsfwbrHS7C9kWzJCSBNYtvMUauv10r737v6vs+He7i4Y3bOtlPEkHb0Ik/nmjjI/eUtfOGs10tbPaDRixowZSthKZgAv8oqiCFfCRhSekp6fn489e/aIX1iVSupDKCGWYsuRVFwtKpdmf0hiK/SOi+JC2BATereX9gB28lIuzqTncREIIY2moqYe6w6ek2b/v8+GT+6fIK3VY9LRtJv6951bhWNwZ7lHMufPn4+zZ88qYSutAHCQVxRFuBKQkhsuKyV9VPc23OHE5jGZzFiy/aTUMTx7+wCpb9XJjaNSAeMlFQ8CGAUnhFiGxdtO3HQE2FK4Omvx0LieAACtRo3bBiRIGUd+aSVOp994KrpKBfxTcvZabW0tXntNEUewjeBZcIpwBbEPQI5ooytWrJCSkt4mIggx4QHc5cTmWbX3DMqqaqXZjwz2xR2DO3IhbIDubSMREeQrxXZOcQV2nrzERSCENJnMgrJG9ca2FBP7xKFleACGd41FiJ+c2ihbj1zEzbyHGN2jHdq3CJG6bh9++CGysrKUsIV+BHCOVxJFuFIwAVgp2mheXh727dsnZcIjujIlndg+dToDlu86LXUMD4zpwToLNsCkvnHSbC/ZfgImE9uwEkIsw+JtJ+QJBLUKT07ui6lDO0sbw8bkCzf8b12ctHhkfE+p65WTk4OPPvpIEY9NAN7hFUQRrjQcKiV9dM+2UKm40Ynt8/POk6jXG6TZd3dxwgt3DuRCKBh/LzcM6BgjxXZNnQ5r96dwEQghFiP5fBZSs4uk2e8dH4U2ktqSXcgqxIWswhv+9/cMT0So5G4mM2bMQHV1tRK2zmeQUIyaUIRfjz0AckUbXbZsGUwmk/DJhvl7ISE6jDud2DwllbX4Zb/czKoBHWMwukdbLoZCGdurPZwknd3/5cA5VNXquAiEEIuyZPsJh5z3mn03XtgsxM/rL/ubi+LEiROYO3euElxXBuBDXjkU4UrEBAlV0vPy8qT1CxzJAm3ETvhxQzLqdAapY3ju9gEI9mNautJQqRrOMMrAbAZ+3nmKi0AIsTibDl9ASUWNQ81Zpzdi002koj8zpR/cJFVv/+3Z4LnnpATb/oT3AZTwyqEIVyoOlZI+rEtraDVq7nZi8xSWV2P5Lrlix8vdBS/fNZiLoTC6xjZHZIivFNt7TqfjSn4pF4EQYhVBusjBouHbjqehoqb+hv5t97YRGNy5ldTxrl69GklJSUpwXS6AL3jVUIQrmd0A8kUbXbFihZS3ZH5ebujRLpK7ndgFczYdQXWd3LTfvgktMK5XOy6GgpjYN16a7SU7TnABCCFWY+mOkyiprHWY+d5oKrpGrcbTt/WXOla9Xo8XXnhBKa57E0ANrxiKcCVjhISU9OzsbOzZs0fKhJmSTuyF8uo6LNh6TPo4npkyAM0CfbggCsDTzRkDO8kpyHYppxiHz7P+DSHEetTW67Fo23GHmGt2YTmOpmbf0L+9Y3BHtGomtxXv119/jdTUVCW47iKA2bxaKMJtASm54YsWLZIy2YEdY+Au+bwMIZZi4bYT0qMCnm7OeO/BUXCWVAiM/D9Du7SGi5NWiu0l20/eVB9bQghpDEt3nESpA0TDl+64sXuqv7c7HhzTQ+pYS0tL8fbbbyvFda8A0PNKoQi3BXYBKBRtdNmyZaivrxc+WTcXJ/SX1LqHEEtTU6fDT5sOSx9H+6hgPDG5LxdEMmN7yjkaUFWrw6bDF7gAhBCrU1uvx0I7j4ZX30Srxycn94Gnm7PU8b799tsoLi5WguuOQlJwkVCENwYDJKSkl5aWYtOmTVImPLIbU9KJ/bB812nkllRKH8cdgztKLwrjyDQL9EHHluFSbG9MPo/aegYeCCFisPdo+IrdZ26o5kuHmDCM7iG3Lsvly5fx9ddfK8V1LwJgThZFuG09x8swunDhQimT7RUXCX8vN+56YhfoDEZ8umyPIsby2j1DeT5cEmN6toVKJcf2qj1nuACEEGHYczTcaDLh550nry9cVCo8M6W/tPv+f3j22WelZLb+CTsBJPHqoAi3NXZAQkr6L7/8gvLycuGT1ajVGJLYmrue2A3bj6fh0LlM6ePwdHPGhw+Nlt6n1NFQqRpEuAzOZuQjNbuIi0AIEcribSeQX1ppd/PaeuQi8m4gu21i3zjEtQiROtZdu3Zh1apVSnCbGQ1RcEIRbnMYAKwRbbSurg6rV6+WMuFRrJJO7IwPFu+EzmCUPo42EUF4677hUMt+Pe9AdGoZLi0DYSWj4IQQCdTrDfj2l0N2N68bqf7u7e6CRyf0kjpOk8mEZ599ViluWwHgEK8KinBbxaFS0hNiwpg2S+yKzIIyLNl+QhFjGdSppfQHBEdijKSCbDV1Omw9epELQAiRwroD53A+s8Bu5nM0NRspV64/n0cm9IKvp9xjlfPnz8eRI0eU4DYdgJd5NVCE2zLbAQgvbbht2zZcvXpV+GRVKmBEt1iuOrErflifjIKyKkWM5d6RXTGpbzwXxco4O2kwJFFOQbwNhy6g5gaKBxFCiDUwmc34bMVeu5nPd+uSr/tvWoYHYHI/ud+ttbW1eO2115Titq/Q0BucUITbLHpISEk3mUxYtmyZlAmP6sGUdGJf1NTrMXO5ch5InrtjADq1CufCWJGBHVvCy91Fiu01+85yAQghUjl8IRv7z16x+XmcSMvB0dTsa/4blQp48a5B0KjlypaPPvoImZmZSnBbMYC3eRVQhNsDP8swumjRIimTjQ71R2xEEFed2BVbjqQqokgbADhrNfjkkbFo1SyAC2MlZPUGv5xTjHN2lAZKCLFdPl22B0aTyabn8PXaA9f9NyO7tUFnyS+2s7Ky8OGHHyrFbW8BKOUVQBFuD2wDkC/a6OHDh5GamiplwmN6tOWqE7vjzblJqKxRRMsQeHu44uunJiMqxI8LY2H8vd3Ro32EFNvrDp7jAhBCFEF6XgnW7Eux2fEnn8/CsdRrH810d3XGPyb3kT7Wp59+GtXV1Upw2wUA33D3U4TbCwZIioYvXrxYyoRH9WgLrYbLT+yLgrIqfL5yn3LEopcbvn5qIkL9vbg4FmRsz7ZS0hJNZjM2HU7lAhBCFMOXq/ejtLLWJsf+w/rrnwV/YHR3BPt6Sh3ntm3bsHz5cqW47Xk0HKUlFOF2g5Ry5QsWLIDZbJYiDvolRHPVid2xau8Z7D+jnHNyIX5e+PrJSfD3cuPiWIhRkjJ5DqZkoqC0igtACFEMFdV1+GLVPpsb98GUTBy7eO0oeMvwANw1pJPUcRoMBvzzn/9Uitt2AFjLXU8Rbm8kA0gTbTQtLU1aq4Nxvdtz1Yld8s7CbaiqVU716sgQX8x8fAK8JRUSsyfaRAShdbNAKbY3HDrPBSCEKI5fDqRcN61bSZjN1z8Lrlap8PLUwdKzNj///HOcPn1aCW4zAXiau50i3B4xA5BSKU1Wz/A+8VEI9PHgyhO7o6C0Cp8s262oMbWPCsYPz93Ga66JjO0lpyBbdZ0OO09c4gIQQhQpaj9YshMGo20Uadtw6BxSMq5dimli3zh0bBkmdZz5+fl46623lOK2uQBOcLdThNsrUkT44sWLYTAYhNvVqNUYzQJtxE5Zuz8Fe09nKGpMMWH++OafkxBEId4otBo1RnST02Ix6ehF1OkMXARCiCK5lFOMJduVr9Fq6/X4as21o+D+3u54fJL8YmwvvPACysvLleC2agAzuMspwu2ZCwCE54YXFBRgx44dUiY8sU8cVCouPLFP3py3FQVlyjrDGx3qjx+fvw3NAn24QDdJ77goaWfr1x1gVXRCiLL5bt0h5JVUKnqM87YcvW5tjWdu6y/9+Nbhw4cxf/58pbjtQwA53OEU4faOQ6WkR4b4IiEmjKtO7JLSylrM+HGz4vqohgd449un2b7sZhkjqTf41aJynLjE5x9CiLKpqdfjrXlJkFDv94YoKK3C/K3HrvlveraPxIhusVLHaTKZ8Pjjj8OkjGeHbAAfc3dThDsCSwAYRRtduXIlampqpEx4fC8WaCP2y7GLV/HtL4cUN65Qfy/MeWEKusQ25yLdAN7uLujXQU5Hh/UHzyv2oZYQQn5P8vksrNl3VpFj+3L1/mse63HWavDc7QOkj/OHH35AcnKyUtz2CoAa7myKcEcgFw0tAIRSWVmJdevWSZnw8G6xcHdx4soTu+WnTUdwIOWK4sbl7e6CL5+YwNoMN8DQLq3hrNUIt2s2syo6IcS2+HT5HsWlpZ9Jz8PG5GvfSx8Y0116hlhpaSlmzFDM8eujABZwR1OEOxJSUtJlnT1xd3HC4MRWXHVit5jMZrw2Z4vizocDgJNWgzfvHY5/TOrD+gzXQFZ64olLOcguLOcCEEJshuo6Hd6ar6y09BNpOdccT1SIH+4elih9nDNmzEBhYaFS3PY0GlqTEYpwh2ElgDrRRjdt2oScHDnnDpmSTuyd0spavPLDJsWdDwcAlQqYNqIL3rx3OFyctFys/yLIxwOdWzeTYnvDQUbBCSG2R/K5LPxyIEUx47lzSKe/PH6lUgEv3TVISrbT7zlz5gy+++47pbhsFYDd3MkU4Y5GOYD1oo0aDAZp0fDOrZshIsiXK0/smuNpOfh0+R7Fjm90j7aY8/xtvBb/i2FdW0MtIU1Apzci6dhFLgAhxCb5ZNlu5BRXKGIsGrUa7z04CiF+Xv/zd+N7x6FrG7n1UcxmMx5//HEpLYP/7OsHwAvcwRThjoqUcuWzZ8+GWUL+kEoFjO3VjqtO7J4l209i2a5Tih1fbEQQFrxyB4bwiMhvDO8qJxV958lLqKyp5wIQQmySqlodXp29GSaTMvLS/b3c8MmjY/+Q8eXj4Yp/TOotfWyLFi3Crl27lLJ0XwLgG2A7R0MX/CXpAB4DILQpbXFxMYYNG4bIyEjhE24e5IPF20+wCjCxew6mZKJjTBiaBSmzV7ezVoOhia3h4+GK5PNZMDnwRRke6I0nJveVcl7+sxV7kcXz4IQQGya/tAoatRqJsc0UMZ5AHw+EBXhhx4lLAIBX7h4svVVuZWUlJk6ciMpKRRSzKwJwGyQciyUU4UrBCKAVAOFVIlQqFcaPHy98wh6uzjh9OY8PncTuMZvN2HM6HQM7tYSvp5six6hSAfHRoejapjmOpl512IjsLf0T0KNdhPinoPJqfLhkl5TMJEIIsSTH03LQs30kQvw8FTGe1s0DUVpZC1cXLf55a3/pRUlfffVVbNq0SSnL9TSAvQ62RZ0AhABoAaA9gC4A4gHE/clPFAAfAFo0pO0bbHXSrMV7bQZCQrsyT09P5ObmwtNT/M1y69GLeOn7jVx54hA0C/TB3BenKFaI/4c6nQFfrd6PJTscL1Nl0Yy7ENs8ULjd+VuP4bMVe3mREELs5vtu0Yw74eHqrIjxGIwmFJfXIMRf7ouB8+fPo2PHjtDpdEpwy1EA3WF/FdGDAcQAaPlff4b9+nfeTfjsKgAFv/6c+dWHRwCc+lWkU4TbKGoAVwAIrxYxZ84c3HvvvcInrDcYMerF2SirquXqE4ega5vm+PKJidBqlF8iY//ZK3h7XhIKy6sdYm1ahPph+Rt/k2L7jrcXIu1qMS8QQojdMKp7G7x9/wg64lfMZjOGDh2K7du3K2I4APoAOGDDLnVFQwS7468/nQB0QEPkWjQ6AKd/FeRHASQDOKk0kUn+GhOAxTIMz549W8qEnbQaaf14CZHBkQvZeP2nLTZx7rp3XBSWvn43Rvdo6xA9xWUVZLuQVUgBTgixOzYmX8DyXafpiF+ZN2+eUgQ4AMyzMQHug4aM4X8CmI+GKHQlgMMAfgDwDwD9JAlwAHBGQ1r7QwC+A3ACwHkAM9CQ9i4dRsKvTycAx4UvjEqFCxcuoHXr1sInnJpViLveXcyVJw7FLf0T8OKdg2xG3B5NzcYHS3bhco79isWfX78bMWH+wu1+tmIv5m89xouCEGJ3OGs1+OG529A+Ktih/VBcXIx27dqhsLBQCcOpBNAGQK5C3eWLhgh3l9/9tIVtB3OP/vryYCEaiuEJh5Hw63MCQIpoo2azGT/99JOUCcdGBKFtZDBXnjgUK3afxqfLd9vMeLvENsfiGXfi2SkD4K6QM36WpHmQjxQBbjYDSUfZGYYQYp/oDEY8/+16lFc7dvHtZ599VikCHADeUIgAd/tVYE8D8CGAjQCyAJQC2ANgJoC/oaF4mq1ryC6/zicLwFIAY9FQIE4YrI5+Y/gAGCLa6OXLl/Hkk09CrZazz/ecTufKE4fidHoeXJy06NQq3CbGq1apEB8dijE92qKwvBqXc+0nKj6ud3v0ah8l3O7JSzlYtO0ELwZCiN1SVavD5dxiDO8WC5XK8ZJid+/ejX/+859KGU4KgPshthibNxoi2wMA3I6G1PF3AHyEhvTtiWg4n94KTSuaZgto0VB1/S4AdwK4DEE92inCb4x0AE9C8FufyspK9OzZU0pKelSoH37eeQp6g5GrTxyKwxeyEOjjgXY2lKrn4eaMIYmtMLhzK5RV1+FybonNr8M/JvZBWID47/55W47ibEY+LwRCiF2TWVAGZyctOtvIS2dLodPpMHbsWCVFwe8EkGaFz/VEQ4p7XwDjAdwH4BkA7/8quKcDuBVAfwDtAPiDx5T9fxXjQwBk/PpjNZiOfmNcBbBFhmFZBdrcXZwwqkcbrjxxOMxm4P1FO7Ax+YLNjb1VswC8/+AofPPPyYiPDrXZNfD2cEXHVmHC7ZpMZiQdS+NFQAhxCL5ZewBHU7Mdas7vv/8+zp07p5ThLAewrRG/54yGzk3dAUwC8BQaUqtXATiGhjPOlWho07XiV+H9918Fdwh3/nXpB2A7gK1oSL23CizMduPcCmCZaKPOzs7Izs5GUFCQ8AlfvFqEO99exJUnDolarcIrUwdjQp84m32ZsOvkJczeeBgpVwpsauyy2ugkn8vCo5+t4uYnhDgM/t7uWPjynQjy9bD7uaalpSEhIQF1dYo4D18PoCeAil//vx8Aj1//9P3dn74AAgGE/yqgQwAEcOcKQw/gcwCvAaix5AczHf3GuQTgYQDuIo0ajUY0a9YMPXv2FD7hAG93HEzJRH5pFVefOBxmc0NdBE83FyTE2F5UWaUCWoT6Y1K/ePRoF4myqlpkFpTZxNj/Pro7WoaLf8b4ceNhXMgq5OYnhDgMtfV6nL6chzE920Gttu/Y3O23347U1FSlDEf7q6548tef6WhIGb8DDWeyR6KhBVhPNPTajgYQJFqHEGgA9AZwGxrar12lCBePEQ2pHz1EG87NzcXDDz8s5w6hUWPnictcfeKwHEi5AldnLTq2tN1zc6H+XhjRrQ2GJLZCnc6A9LxSmEzK7IvupNXg5amD4ewk9utJbzDinfnbUK9nHQxCiGORX1qFOr0BPdtH2u0cFyxYgH//+99cbNJYAtBwXrwGwEGKcPHkouGtldibY34+xo8fj7Aw8Wcko0L8sHz3adTrDVx94rAcOpeFer0BPdrZ9gOKv5c7BnZqiSkDO6JZoA/ySytRXFGjqDF2axOBSX3FHwHYdyYDa/ef42YnhDgkpy7nIirED62a2V+mc0lJCcaPH4/q6mouNGkKTmjIUNAA2EkRLlgPo6HCoHA17OTkhNGjRwufsFajRnFFDU6n53H1iUNz8lIu6nR6dG8bCVvv6OLipEW7qGDc0j/h18iHClmF5YrohnDn4E5SisrN3ngEF7OLuNEJIQ7LvjMZ6B0fhSAf+zof/sQTT2DPnj1cYGIpBgDoioY+6o0uMMDCbDfPYwC+FG3Uz88POTk5cHV1FT7hK/mluPWN+TCbufiEjOreBq/eMxTOWvt6h1lbr8e+MxnYfvwS9p7JQE2dTso4Vr89Dc2DfITaNJnMGPbc9yivruMGJ4Q4NM0CfTD/pdvh7eFqF/M5dOgQevfuDZPJxMUlluYcGiLjmY35ZUbCb55LaCigoBVptK6uDvHx8YiPjxc+YV9PN5xIy8HVogquPnF40q4W4/jFHPTvGANXZ63dzMtJq0FMeACGJLbC1KGdER8dChcnbcNZQZ2Y4yjhgd54aJz4IpTH03KwfNdpbm5CiMNTWVOPC9mFGNmtDVQ2nvZlMBgwfvx45OUxm5NYhSA0FNJLQkO2NEW4lakFEP/rj1DKyspwzz33SJm0h6szthy5yNUnBEBuSSX2nErH+N7todWo7W5+GrUaUSF+GNAxBvcM74IxPdsiJiwALs5aFFXUWK1GxNDE1ujfIVr4fJfuPIVTl3O5sQkhBEB2YTl0BqPN10F5//33sWgRW+0Sq+KFhsrpm25WiDMdvXEMB7BZtFGVSoXz588jNjZW+IRNJjMmvjYXOYyGEwK1SoV3HxiJYV1aO9zcTSYzLmQX4mRaLlKzC3E+qxCXc4phMDY91e9fD4zE8K7i72+TX5+HzPwybmxCCPntmRN474FRGGqj33NXrlxBXFwci7ERURSgoaXcDVd41dJnjSIJDfn/Ql8Rms1mfP/99/joo4/Eiw61Crf0S8AXq/Zx9YnDP5i8eNcghxTg/7kXtIsMRrvI4N/+m95gxOXcElzIKkRGXglyiiuRU1yBvOIKlFTW3rBfu7aJEP+gll9KAU4IIf/zzAm8NS8J0WH+aBluexXTH3vsMQpwIpJgAFvQ0Mo654aee+izRvMWgFdFGw0ICEB2draUAm3l1XUY/eJstisjDs2jE3rh/lHd6IgbpE5nQE5xBYrKq1FVW4/Kml9/autRWaODwdhQkd3X0w2PTuglfHzzthzD5yv3cqEIIeRPaBHqh3kv3QF3FyebGfPChQtx9913c/GIDA6joXr6dSMQFOGNJwZAmgwfzp8/X9rN5a15SVi7P4WrTxySKQM74vk7BtARdsSDHy/H8bQcOoIQQv6Ckd3b4J37R9jEWAsKChAXF4eiIracJNKYDeDv1/tHavqp0VyGBRq1N4ZZs2ZJm/Ttgzpy5YlDMrZXOzx3OwW4PVFWVYuTLMhGCCHXZFPyBazcc8YmxvrYY49RgBPZ3Afguql9FOFN4ycZRvft24fTp+W002kTEYSOLcO48sSh6N8hBq/+bQhUzB2yKw6dy4LJZKYjCCHkOnz88y6kZhUqeowrV67E8uXLuVhENioACwD4UIRbj+UAymUY/u6776RNmtFw4kh0iAnDvx4YCY2at0t7I/l8Fp1ACCE3gE5vxAvfbUR1nU6R4yspKcFjjz3GhSJKIQbAtxTh1qMGwFIZhufPny+t6uPgzq0Q5OPB1Sd2T5uIIHz+jwlwdWYjCXvkMEU4IYTcMFmFZfjXwu2KHNtTTz2FvLw8LhJRErcDmPJXf8kny6YzB8B00UbLy8uxePFiPPDAA8InrNWocdvADvh6zQGuPrFbIoN98cU/JsDTzZnOsEOyC8uRU1wBtVqFUH8vNA/yQUSQL5oF+sDTzRkuThq4ODV8RdbpDKiq1aGqth55pZXILCjDlbxSFFfU0JGEELvH1VmLXu2jMLBTDPolRCtufBs2bMD8+fO5UESJfI6G1tYl//0XPOFoGc4CaC/aaGJiIo4ePSplwuXVdRjz0mzU6diujNgfwb6e+OG5WxEe4E1n2CkpGfkoq65Dp1bhjW69U1pZi9PpuTh5KRdHU6/ibEYezDxiTgixA1yctBiS2ApDEluhZ/vI315KKo3y8nLEx8cjOzubi0aUyiwAj1CEW4fnAHwow/C+ffvQu3dvKZP+18LtNlMtk5AbxdvDFd8/cwtahgfQGeSmRfmBlCtIOnoR+89egcFoolMIITZFbPNATOwbj1Hd28DL3UXx450+fTq+//57Lpyd4ObmhoCAADg7/zELsb6+HkVFRaivr7fFaRkBdERD0JYi3MIEA8gCIDxv9Y477sDixYulTDojrxS3vTmfkR9iPzd/Fyd8/dQkJESH0hmkSZRX12HniUtYsy8Fp9gGjRCiYNxdnDC8Wywm9Y1HXIsQmxl3fX09xo4di6SkJC6iDaBWqxEdHY2WLVsiJibmtz8jIiIQHByMwMBAeHhcu+ZUZWUl8vPzkZGRgaNHj/72c/nyZaVPfw2AiRTh1mExgDtEG3VyckJ6ejqaNWsmZdJPfbUWe09ncPWJzaPVqPHJI+PQOz6KziAWJSOvFL8cSMGafSkoq6qlQwghisDb3QV3DO6EOwZ1hLeHq03OwWw244cffsBLL72E4uJiLqpCcHNzQ0JCAjp16oROnTqhY8eO6NChAzw9Pa1i78qVK1i4cCEWLlyIlJQURW5VAJ0BnKQItzwDAOyUYfj111/HG2+8IWXSyeez8OjMVVx9YtOoVSq88/cRGN41ls4gVqO2Xo8Vu09j3tZjKGFRN0KIJNxdnDBtRFfcObgj3F3to/hoSUkJPvroI3zxxRfSugc5Kt7e3ujUqRM6d+6MxMREJCYmom3bttBq5dQROHbsGGbNmoXZs2fDaDQqyVULAdxNEW55VGjI9W8n2nBwcDAyMzPh4iLn7M5d7y5GalYhdwCxWZ6Z0h93Du5ERxAh6AxGrDtwDt+vO4TCcj4sEkLEoFapMLZXOzw6oRcC7bTVbFFREb755ht8/fXXbFlmBYKCgtCxY8ffxHbnzp3RunVrqFTKk5THjh3DY489hoMHDyplSNUAogEUUoRbnicBzJRheOHChbjrrrukTPqXA+fw5tytXH1ikzw8riceGNOdjiDCqdcbsHLPGXy37hAqa+rpEEKI1WjVLACv3TMM7aOCHWK+er0e69evx5w5c7Bp0ybodDpugpvAx8cHcXFxiI+PR3x8POLi4pCQkICgoCCbmofZbMacOXPw4osvorBQEQHD6QC+pwi3PH4ArgJwE224V69e2L9/v5RJ6wxGjH/lJxQxokNsjCkDO+D5OwYqcmxfffUVli1bhn/961/SOiAQMRRX1OC9RTuw88QlOoMQYlG0GjXuHdkVfx/VDU5ajUP6oKysDOvXr8eqVauwdetWVFRUcGP8SlhYGGJjY9G6dWvExsYiISEB7du3R2RkpF3N8+rVqxg8eDBSU1NlD2U1gEkU4dZhDoB7ZRhOTk5Gt27dpEx69sbD+HrNAa4+sRlGdW+DN+8bDrUCU6jmzZuH++67DyZTQ4urcePG4d1330VCQgIXzo5JOnoR7y3agfLqOjqDENJkmgX64P3po9AuMpjO+BWDwYAjR45g+/bt2LNnD5KTk1FSUmLXcw4NDUVUVNRvQvs/ort169bw8vJymLXPzc3FoEGDcOHCBZnD0AOIAJBPEW55egCQcvhg2rRp+Omnn6RMurKmHmNenoOaOqb7EOXTN6EFPn54LLQateLGtnLlSkyZMuV/iomo1WrceuuteO6559C1a1cuop1SWFaNdxduY9cJQkiT6B0XhXfuH2GzVc9FkpaWhsOHD+PUqVM4f/48UlJScPnyZRgMBsWP3d3dHWFhYQgPD0eLFi0QFRWFqKgoREZG/va/XV25B/5DXl4eBg8ejHPnzskcxrMA/k0Rbh2OA+gk2qirqyuuXLmC4GA5bzw/W7EX87ce4+oTRdMhJgxfPzUJrs5axY1t27ZtGDNmDOrrr30+eODAgXjuuecwatQoRRZDIU3DbAa+X38I368/BLOZ/iCE3DgqFXDfyG54eFxPqNX8fmgsOp0OGRkZyMrKQlZWFq5cuYLs7GwUFhaiuLj4Dz+WqsDt6uoKX19f+Pr6ws/P7w9/BgQEIDg4GGFhYQgJCUFISAjCw8Ov21eb/C/5+fno37+/zNT0/QD68Oq0Dg8BmCXD8BtvvIHXX39dyqQLyqowYcZc6A1G7gCiSCKDffHjc7fBz8tNcWM7fPgwhgwZgsrKyhv+nbi4ODz77LO466674OzszAW2M7YcScWbc5NQrzfQGYSQ66JWq/DinYMwuV88nSGQ2tpa1NXVoaqqCnq9HuXl5b8dJ/szNBoNvL29oVar4ePjA5VKBV9fXzpSIDt37sSgQYNkmTcBCKcItw5eALIBeIs2HBQUhCtXrsDNTY7IeGteEtbuT+EOIIojyMcDs1+YgjB/5Z1/unjxIvr164f8/PxG/X54eDgefvhh3HvvvYiIiOBi2xGnLufi2Vnr2VecEHJNnLQavHnvMAzvGktnEHID3HLLLVi5cqUs8/dquARWQQegGQDhfY9qamoQHR2NxMREKRNvEeqH5btOgxmUREl4ujnj66cmo0WIn+LGlp2djUGDBuHq1auN/ozKykrs2LEDn3/+OQ4ePAgXFxe0atUKGg1v8bZOiJ8XhnRuhb2nM1BRw4JthJD/xVmrwb8fHouBnVrSGYTcIN26dcO3335rseMEN0kJn9CsRzqAxyChAv2lS5fwyCOPSDkr6uvphtTsImTklXIHEGU8nDhp8Pk/JiK+RYjixlZUVITBgwcjLS3NIp9nNpuRlpaGZcuW4dtvv0Vubi6aN28urU4EsQxe7i4Y1DkGO09eZj9xQsgfUKmA16cNw+DEVnQGITeBn58fqqursXfvXhnmPZiObl02AxguxfDmzRg+XIpppGTk4573l3L1iXTUKhXenz4Kgzsr7+GkpqYGQ4cOxYED1m/tl5iYiFtuuQWTJk1Cu3btuDFslOzCcjz48XIUllfTGYQQAMDTt/XHXUM60RGENILKykqEhISgtrZWuG1Gwq1LOYA7ZRguKirC3XffLWXSQb6eOJKajdziSu4AIpVnbx+Acb3aK25cOp0OEydOxM6dO4XYy83Nxfbt2/HVV19h6dKlyM3NhY+PD8LCwlhd3Ybw9nBF34RoJB29iFodi7UR4ujcPSwRD47pTkcQ0khcXFywY8cOpKenU4TbGWkA7gEg/CBqWloaJk+ejJAQOSm4QT6e2HDoPHcAkcb0sT0wbUQXxY3LaDRi6tSpWLt2rRT7RUVF2LNnD77//nvMmTMH6enp0Ov1CAkJYS9RG8DX0w0946Kw5UgqdHp2oiDEUenWpjneum84X6QS0kSys7Oxfft2inA7wwzACZJS0o1GI8aNGydl4s2DfHDoXCbyS6u4C4hwJvWNxz9v7ae8G4LZjIcffhjz589XxHjKy8uRnJyMJUuW4OOPP8batWtx8eJF6PV6hIWFwcXFhZtJgQR4u6NleAC2HrnIIpiEOCD+Xm748olJ8HRja0pCmopWq8WPP/4o3C5fnwm4VwLIAuAu2rCrqysyMzMRFBQkZeJ7T2fgqa/WcgcQoQzoGIOPHhoDtVp5t7eXXnoJ77//vs18KXXt2hU9e/ZEp06d0KlTJ7Rv3x5OTk7cZArhu3WH8N26Q3QEIQ6EWqXC5/+YgJ7tI+kMQiyAwWBAQEAAKioqhNplJNz61AJoAaCLjE3l5uYmrRl9ZIgv9p7JQGEZiwgRMcRHh+KTR8bC2Ul5t7YvvvgCr7zyis340mQyITs7GwcPHsTq1asxa9YsfPDBB1i9ejUOHz6MzMxM1NXVwcnJCZ6enkyJlEBi6+a4lFOEdHajIMRhmDosEbcOSKAjCLEQarUaSUlJws+F86lJDB0BnJBh2N/fH1euXIGnp6eUie88cQnPzlrPHUCsTkyYP3549lZ4eyjvXPP8+fMxbdo0mM32mTzs4uKCyMhItGjR4g8/zZs3h6+v728/3t7e3KgWpqZOh2nv/4z0vBI6gxA7J8TPC8vfuBtuLsxIIsSSjB07FuvXi9UrWrpdCCcB7AbQX7ThkpIS/PDDD3jqqaekTHxAx5aIbR6I1Owi7gJiNYJ9PfH5PyYoUoCvXbsW999/v90KcACor6/HxYsXcfHixWv+O7Va/Zsg9/Pzw6BBg/DRRx9xAzcBd1dnvH3/cEx7/2cYTSY6hBA75pkp/SjACbECarVavE26XRifyzL873//GzqdToptlQq4f1Q3rj6xGp5uzvjsH+MR6u+luLHt3LkTt99+OwwGtpMCGlLcS0pKcPnyZRw9ehTJycl0igVoGxmMe4Yn0hGE2DG92kdhcOdWdAQhVkCjEX+MkSJcHKsBXJJhODs7G0uWLJE28cGJrdAyPIA7gFgcZycNZj42Hq2bBSpubKdOncKkSZNQV1fHhfqLL7xXX32VjrAQD47tgZgwfzqCEHu8X6rVePb2/jY9hwtZhfhu3SHc9c4iPPXVWlTV6riwhCKcCMEI4AtZxj/88ENp6bBqlYrRcGKVffX2fSPQqVW44saWmpqKYcOGoaysjAv1F8ycORNDhw6lIyyEs1aDV+8ZqsiuAISQpjGiWyyiQvxsasx1OgP2ncnAh0t2YdzLczD13cX4bt0hpGYXYe/pDPztX0twOj2Pi0sUgejK6AALs4nGCw3tynxkGF+7dq20vuEmsxlT31mMi1d5NpxYhqdv64+7hnRS3LiuXr2Kvn37IiMjg4v0Fzz88MP45ptv6Agr8O+fd2Px9hN0BCF2glqtwrLX77YJEZ5TVIGdJy9j35kMHE+7Cp3eeM1/r1Gr8ffR3fD30d2gUTMuSOQRGhqK/Px8inA752MAz8gw3KNHDxw8eFDaxLcfv4Tnv2WldNJ07h6WiKdu6au4cZWVlWHgwIE4efIkF+kvGDRoEDZv3mwT/cZr6vVw1mqg1djOw2FVrQ4TZvyE8moegyDEHhjeNRb/emCkYseXkVeKLUdSsfPkZaRmFTbqM9pEBOGluwYhPjqUC06Ek5ubi/Bw8VmVFOHiiUTD2XAplen37t2LPn36SJm42Qzc+8FSnM3I5y4gjWZYl9Z494GRUCusL3VNTQ2GDx+Offv2cZH+gpYtW+LQoUMICFBmjQid3ohNhy9g65GLOHU5F9V1DWcWg3w80C4qGL3iojCwY0sE+Xoo2s/ztx7DZyv2csMRYuOoVMCSV6cqrq5Ovd6AbcfSsGrPGRxPy7HIZ6pVKkzoE4fHJ/WGjwI7nRD7ZePGjRg9erRwuxq6XjjlAOIAxMswnp+fj7vuukval0mIrxc2Jl/gLiCNIrF1M3z08BjFRSb1ej0mTpyIHTt2cJH+Ak9PT2zbtg1RUVGKG5vZDKw/eA7PzFqHDYfOI7uwHHrD/6dR1tTrcSW/DPvOZGDxthM4eC4TarUaUSF+ioySt4sMxrqD5397iUAIsU26xDbHPcO7KGY8lTX1mL/lGF7+YRM2Jl9AXkml5e7DAM5nFmDV3jMwmcxoGxkMJy1lCrE+8+bNw+7duynCHYQsAA/IMHzx4kWMHTtWStoFAEQE++LIhWzkWvDGTRyDmDB/fPnkJLgrrEeq2WzGAw88gBUrVnCR/gKVSoWFCxdi4MCBihtbYVk1nvt2PRZuO35DotUMIL+0CrtOXsayXadQWFaNluEB8HRzUcycNBo1PN2csftUOjcfITbMI+N7onVz+d0/zGZg1d4zeHbWeuw9k4E6nfXabur0Rhy+kI01+1PgpNGgVbNAmzoSRGyPhx9+GCUlJRThDsJVAMMBRMgwXlRUhNtvv13a5JsH++KX/SncBeSGCfLxwKynb0Ggt7vixvbcc8+xyNh1eOGFF/DEE08oblxHU7Px6GerkXa1uNEPi2cz8rFs12mUVtaic6twxURuYpsHIeloGsqqarkBCbFBPN2c8do9Q6UL0IKyKjw7ax2W7jhpVfH939TW67H/7BWs3HMG1XU6tAwLgJuLEzeGjaMzGFFdp4eLk1YR4zl69Cjef/99KbYpwuVRAWCKDMMXLlzApEmTEBISImXiYf5eOJGWg6tFFdwF5Lq4uzrjm6cmoUWo8irDfvXVV+x1fR2GDx+O2bNnQ62wyrebD6fi+e82oNoCvWpNJjPOZuRj8+FUtIkIQliAt/T5qVQquDprsevkZW5CQmyQcb3bY2CnllLHcOpyLh7+dBUu5RRLG0OdzoDjF3OwdMdJXC2qgK+nG0L9vbhBbIDaej1SrhRg96nLWLH7DL5ddwj7zmRgeJfWinlh/cknn+DAgQNyvqe5RaShAXABgJQ77JQpU7B06VJpkz+dnof7PviZu4BcE61Gjc8eH48e7SIVN7ZFixbh7rvvhtls5kL9BdHR0Th8+LDiCrH9vPMkPl66GyYrrJ1Wo8bzdwzE5H7x0udZrzdg9IuzWSmdEBvkpxemSK0WfuhcJp6dtR619XrF+SYqxA/jerXD6J5tEezryc2iACpr6nE+qxAXMgt+/bMQVwpKYTL9//fsyO5t8Po9QxUjwKurqxEdHY3CwkIZ5jMpwuXyCICvZRhWq9U4efIk4uPlPSg+/+16bD9+ibuA/CkqFfDaPcMwrlc7xY1t+/btGD16NOrr67lQf4G7uzv27duH+VFoWwAAbc1JREFUTp06KWpcq/aewb8Wboe1353cN7IrHpvYW/p8P1+5D/O2HOWGJMSGCPB2x6YPHoCsJiApVwrw0CcrFCnA//Asq1IhPiYUgzq1xKBOLdE8yIebx8ro9EZczi3GpZxiXMopQVpOES7nlFy3SN9dQzrjn7f2g5Ia23zyySd45plnZJn/hSJcLm4A0gFIyQufOnUqFixYIG3ymfllmPLWAhiMJu4E8j88OqEX7h/VTXHjOnr0KAYNGoTKShYXvBZz5szBvffeq6gxbTuWhpd+2PiHN/PWZPrYHpg+tofUOeeVVGL8jJ+EzZkQ0nQm9InDq38bIsV2eXUd7nxnEQpKq2zOb62bBaJXXBS6tW2Ozq2awdVZy83UBLGdWVCGjLwSpOUU43JOCdKuFiG7qPymvk+ctBo8c1t/3DogQVHzq6urQ0xMDHJzc2UN4R3uTrnUAvgCwDsyjC9ZsgSvvvoq2rRpI2XykSG+mNQ3Hst2neJOIH9gUt94RQrwy5cvY8yYMRTg1+HJJ59UnAA/dC4Tr/y4SagY/W7dIXi6ueCuIZ2kzTvU3wv9EqJ5NpwQG6JPfAtptt+Zv80mBTgAXLxahItXizBvy1E4aTVIiAlF19jmiI8ORXyLEHiz//gfMBhNyCmuQFZBGa7klyKzoAyZBWXIyi9DXmllkzPGgnw88MH00ejQMkxxc//6669lCnAAOMlIuHz8AFwBIKXKxL333os5c+ZIm3xpZS0mvjqX/WzJb/RNaIF/PzIWGoUV8iosLETfvn2RmprKRboGAwYMQFJSErRa5bzjvXi1CA98tFzKfUajVuOLJyage9sIafPfczod//zqF25OQmwAZ60GSR8/CHdXZ94rLExEkC/iokPQPioYLcMD0CLUDyF+9lvkzWgyobCsGrkllcgtrkBucSXySiqRW1KBnKIK5BRXWC0btVOrcLz/4CgE+ngozi+5ublo27YtKiqkFoiOpQhXBh8DkHIoQavV4vz582jZUl4Fzh/WJ2PWLwe5CwjiWoRg1j8nK64NSWVlJQYNGoSjR3m29poPOBEROHLkCIKDgxUzpoKyKtz7wc9SIzu+nm6Y//IdCJNU0VdnMGLYs9/zZSchNkD3thH4+qlJwu2aTGbc9uYCXMkvdSh/e7g6IyrUDzFh/mge6IOwAC+E+HkhxN8TIX5ecNYqr5GUyWRGaVUtSiprUFhajZLKGhRX1KC4ohollbXIL2kQ2wVl1TCaxB/5nDKwA56+rb9i+7tPnToVixYtkjmEEgBBTEdXBp8C+AcA4a89DQYD3nrrLcydO1fa5P82PBEr956x2fQnYhmaBfrg00fHKU6A6/V63HbbbRTg18HV1RUrVqxQlACvqdPhqa9+kX5vKauqxZtzt+KbpyZLKUrjrNWgT3wLbDnCLA5ClE5CjJyK6FuOpDqcAAeA6jodUjLykZKR/6d/H+DtDn8vd/h4usLX0w2+nq7w8XCFj4cb3F2c4OnmDCetBm7OTnBx1sLZSQN3F6drCtB6nQH1BiN0eiPqdQboDEbU6fTQG02ordejqlaHypo6VNbWo7Lm/38qaupRWVuPsspaq3T3aPJzgLMWL945CGMVWFD3PyQlJWHx4sWyh7ESgIkiXBlcBbAQwH0yjC9cuBAvvvgi2rWTc9G4OGkxfUwPvLNgG3eCg+Lr6YYvnpgAf293RY3LZDLh3nvvxebNm7lI1+Hrr79Gt27KOcdvMJrwwncbkZpVqIjxHLmQjTX7zmJi3zgp9gd1bkkRTogNENdCjgift/UYnf8nNESYa+iI69A+Khhv3z8CUSF+ih1jSUkJ7rvvPiW0ll0CAGpuG8XwEQApZcKNRiNef/11qZMf37s9YsIDuAscEGcnDf79yFhEBvsqbmzPPvus7JQlm+CZZ57Bfffdp6gxvbdoBw6kXFHUmGau2IMSSQ9zfeKi4Oyk4WYlROHEtxDfMOdcZoFiXlgS20KtUuHOwZ3w43O3KVqAA8AjjzyC7Oxs2cPIBbCTIlxZnAOwVpbx5cuX4/jx4/IuYrUKz07pz13gYKhUwIy7h6CjAitnfvjhh/j000+5SNdhxIgR+OCDDxQ1pnlbjmHNvrOK81VVrQ4/bjwsxba7q7PU4nCEkOsTHuAtJSPsl/0pdD65+f0a6I3vn70Vz0zpDyetsl/yzpo1Cz///LMShrIMgJEiXHm8J8uw2WzGa6+9JnXy3dtGYEDHGO4CB+KxCb0xukdbxY3rP0c0yLVp3749lixZAo1GOV+++89ewZer9ynWZyt2n0Z2YbkU211jm3PTEqJg4qPFp6KbzcDOE2xhSG6OoV1aY+HLdyoyiPI/zwX79+Opp55SynB+O5BOEa4skgFIO3y6bt06HDhwQKoDnr6tH1MmHYQJfeJw78iuihvXzp078fe//10JZ4YUTVhYGDZu3AhfX1/FjOlyTjFe+n6j0F7gN4vBaMJPm484zAM+IeTGiQnzF24zNbsQBWUsjEtujABvd3z40Bi8/+AoeLm7KH682dnZmDx5Murr65UwnHQAhyjClcvbMo3LjoY3C/TB1CGduQvsnK5tmuPFOwcqblxnz57FpEmTlHKzVixeXl745ZdfEBkZqZgxlVfX4Z9fr7OJNlwbD11AeXWdcLttI4OhUfNrnxClEhniK9zmvjMZdDy5LioVMLlfPJa/8TcM7tzSJsZcXV2NiRMnIj8/XylDWgDATBGuXPYB2C7LeFJSEnbs2CHVAX8f3R2hkvrpEusTEx6Ajx4ao7jzQ1evXsWoUaNQVlbGRboG7u7uWLt2Lbp06aKYMTVUQt+Aq0XlNuHDer1Bypl1V2ctWjVjAUxClEqEhAKlpy7n0vHkmkQG++Kbpybj5amDbSL6DSiyvWw1gC9+/x8owpWJ1Gj4jBkzpKbiujpr8eiEXtwFdkiQjwe++Md4xd3Ey8vLMXLkSGRlZXGRroGbmxvWrl2LgQMHKmpcH/+8C0cuZNuUL1fvlVM4jinphChYhAeJF+F/1R+bEGcnDaaP7YElr01F1za2U1PEbDZj+vTp2Lhxo5KG9R2AQopw5bMTwB5Zxvfv349Vq1ZJdcCo7m3RuVU4d4Id4eqsxcePjEWIn7KyHPR6PW699VacOXOGi3QNvLy8sHbtWgwZMkRR41q7PwXLd522OX9mFpThUk6xcLv9O0RzMxOiQPy83ODp5izUZk5xBUoqa+l88j90bxuBJa9OxfSxPeCsta1aTU8//TR++uknJQ2pDsDH//0fKcKVi9Ro+EsvvQS9Xi/NvkoFPD2lP9RqFXeCHaBWq/D+g6MRJ6H/6bUwm82YNm0akpKSuEjXICwsDDt37sTQoUMVNa4LWYX4YPFOm/XrjuOXhNtsFxXMDU2IApERBZfxIpAo/Pve3wv/emAkvnpyEiIlHI9oKs8//zxmzpyptGHNAZBDEW47bAUgrVR5amoqvvvuO6kOaBcZjNsHduROsAOendIffRNaKG5cL7zwAhYvXswFugY9e/bEoUOHkJiYqKhxlVTW4umv16Feb7BZ3+4/e0W4TT9PN5uLahDiCAT6iO8PnlVQRscTAIC7ixOmj+2BFW/eg+FdY6GywRjYjBkz8NFHHyltWHoAH/zZX1CEK5t3ZBp/8803UVFRIdUBj4zviWA/T+4EG+buYYmYosCXKd9++60Sb9aKQa1W48knn8Tu3bsRERGhqLEZTSa89P1G5JdW2rSPz2cWQGcwCrWpUqkQGxHEDU6IwvDxcJMgwsvpeAdHo1bjtgEdsOadextSz22wTbDZbMZzzz2Hd999V4nD+wnAFYpw22MDgCOyjBcWFuLjjz+W6gB3V2c8O2UAd4KN0i8hGk9M6qO4ca1btw6PPfYYF+gvSExMxJ49ezBz5kw4OTkpbnyfrdiHo6nZNu9nncGItOwi4XaVdiyEEAL4eLqKF+GFZXS8gz+jLXntLrxw50D4ebnZ5Bz0ej3uvfde6XrlLygFMOOv/pIiXPm8LtP4xx9/jOxsuQ+7gzu3RP8OMdwJNkb7qGD864GRijvXn5ycjDvuuANGo5GL9F8EBQXhu+++w+HDh9G7d29FjnFT8gUs2nbcbnx+Jb9UuM3mQT7c7IQoDF8P8SK8qLyajndA2kYG4+unJuHTx8YhOtTfZudRXV2NCRMmYN68eUod4gwABRThtssGALtlGa+trcWbb74p3QnP3zEA7i5O3A02QniAN2Y+Nh5uCluzS5cuYdy4caiu5oPH7wkLC8MHH3yAtLQ0PPjgg1CrlfnVkJpdhHcWbLMr35dV1wm36efpxk1PiNJEuITrspSV0R2KVs0C8P6DozD/pTvQvW2ETc+lpKQEw4cPV1obst9zDMC31/oHFOG2wRsyjc+ZMwdnz56V6oBQfy9MH9uDO8EG8HZ3wWf/GA9/b3dFjSs/Px/Dhw9HQUEBF+lXWrdujW+//Rbp6el4/vnn4e3trdixVlTX4blZ61GnM9jVGpRViRfhZrOZm58QhSEjHb2ypp6OdwDaRwXjk0fHYfGMqRjapbVNFl37PRkZGejduzf279+v1CGaADwK4Jopl1puTZtgB4BtAKQ06DUajXjmmWewadMmqU64c0gnbDqcivOZFFFKxUmrwUcPj1FcelNVVRXGjh2Ly5cvO/waubm54ZZbbsH999+PgQMHQmUD38Ymkxmv/LgZV4vsr4iQjOruBhNFOCGKuzc7i80cq67TCS8MScQS2zwQ94/qhiGJti+8/8PZs2cxcuRI6Udlr8MPAA5d7x8xEm47vCrT+ObNm7F27VqpDtCo1XjrvuE2WbnREVCpgBl3D0aX2OaKGpfRaMTdd9+NI0eOOPDaqNCzZ0988803yM3Nxfz58zFo0CCbEOAA8OXqfTiQcsUu10YjoWaCgfUQCFHevUAj9pG8ulZHp9sp8dGh+Ozx8Vg04y67iHz/h1WrVqF3795KF+CXADx7I/+QkXDb4QCAdQDGyhrA008/jREjRsDFxUWaE2LC/PHA6O74es0B7giF8eCYHhjTs53ixvXwww9jzZo1DrceWq0W/fv3x6RJkzBx4kQ0b97cJuexKfkC5m05Zr8P3hLO3xuNJt6wCFHaPVuwCDfwPmBXqFUq9OsQjTsHd0LXNs3tam4mkwmvvvoq3nvvPaUfpzIAmArghvqnUoTbFq8BGANAyjutS5cu4ZNPPsFLL70k1QnTRnTBzhOXkHKFaelKYXjXWDw4Rnln9t955x388MMPDrMOnp6eGDJkCCZOnIhx48YhICDApudzLrMAb8/fZtdr5ivhHKjByHR0QpSG6BdyFOH2gbeHK8b2bIcpAzvYZeeLkpISTJ06VfqR2BvkDdxAGjpFuG1yHMAKALfKFDVTp05FZGSk1C+qN+8bjqnvLoZOz7RK2bSPCsZr9wxVXLrT0qVL8dprr9n3Q5tGgy5dumDYsGEYPnw4evXqpci+3o364q2owbPfrJdyZlokQb6ewm3qmY5OiOJw0ooW4bwP2CpqlQodWoZhdI+2GN2jLVyd7VPOnTx5EpMnT7aVej67Abx/M79AEW57vA5gEgApB6NramrwyiuvYP78+VKdEB3qjwfH9MBXq/dzR0gk2NcTHz8yVnFfAHv27MG0adPssgp0y5YtMXjwYAwfPhyDBw+Gv7+/3c2xXm/A09+sQ35ppd1fQ6H+XsJtFlfU8OZFiMJgJJxcjzYRQRjRrQ2Gd20t5btDJIsWLcKDDz6Imhqb+L4qAvA3XKcaOkW47ZMCYAGAabIGsHDhQkyfPh39+vWT6ohpwxvS0s9m5HNXSMDdxQkzHx+PYAmRvGtx6dIl3HLLLaivt/3WK2q1Gu3atUOfPn3Qt29f9O/fH1FRUXa9r0xmM16dvRln0vPs/hpSqRrqXAh/Wiir5g2MEKXd7wWnk/FQim3QulkgBnVuiRHdYhEV4mf389XpdHjhhRcwc+ZMWxmyHsBtADJv9hcpwm2TVwFMAeAmw7jZbMaTTz6JI0eOQK2WV2BfrVbhnb+PwNR3l6CmjlU+RT8svPP3EYhtHqiocRUVFWHUqFEoLCy0Sb+6uLigW7du6Nu3728/Pj4+DrW3Pl+5D9uPX3KIubaJCIaHq7NwuzX1vF8SojjxIbhdmLuLE52uxOcrtQodY8IwsFNLDOwUg2aBjvMMcO7cOdx99904dsymirH+E8DOxvwiRbhtkgXgcwAvyBrA8ePH8d133+Hhhx+W6oiIIF88O6U/3pqXxF0hkKdu7Yv+HWIUNaba2lqMHz8eFy9etBk/tmrVCj169ECPHj3QvXt3dO7cGc7Ozg67r5bvOo0FW485zHxH92jjEA/7hJDrI/qMtpe7C52uEJoF+qBHuwh0b9vw4+3h6lDzN5vN+P777/H000+jutqmMrV+APBVY3+ZItx2eQ/A3wFIC0W++OKLGD9+PMLDw6U6Ynzv9kg+n4VNyRe4KwT5+64hnRV3A3/ggQdw4IByW9f5+fn9Jrb/82dgYCA31K9sOZKKD5fudJj5ero5Y3zvOCm29QaeBSVEaThrxZb6cXdxptNlPQ94uaFLbHN0bxuBnu0jER7g7bC+yM/PxwMPPIB169bZ2tD3AHisKR9AEW67lAN4B8BMaQMoL8ezzz6LRYsWSXfGi3cOwqnLucgpquDOsCKJrZvhpbsGKW5czz//vCL24X/QaDSIj49Hr1690LNnT/Ts2ROxsbFQKa2EvELYfvwSXp29BSaT45xSvG9kN3i6yXkIZnV0QpSHk2AR7qRVw8/LDaWVtXS+lQnz90J8dCgSYsLQvW0EWoYHgI8DwKpVqzB9+nQUFRXZ2tDPApgAoElnu7gFbBtnNBRqaylzEOvXr8fo0aOlOyMlIx/3f7SMFT+tRFSIH+a8MAXeCkth++GHH/Dggw9KHYOHhwf69u2Lfv36oXfv3ujWrRs8PT25aW6A3afS8cJ3G6B3oBTpNhFBmPvi7dBq5NTUuOe9JUi5UsDNR4iCWPvuvcIjouXVdfh+/SGs3HOGLV8thJe7C+JahPz6E4r4FiHw93anY35HZWUlnnrqKcyePdsWh58FoDeA7KZ+EEW47TMFwFKZA2jVqhVOnToFNzc36c74ccNhfLP2AHeFhfH2cMVPz09BZIivosa1adMmjBs3DgaD2F7SLi4u6NmzJwYPHozBgweje/fuDn2Wu7HsP3sFz36zzqHOKLu7OmPBS3dIvZbufHsRLl4t4gYkREFseO9+BPvJeXlbWlmLVXvP4Jf955BVWMbFuIlno5gwf8Q2D0J8dIPwjgz2Y5T7Gmzbtg3Tp0+3ld7f/00JgH5oCIA2Gaaj2z7LADwDoLusAaSlpeHdd9/FO++8I90Z943qiuNpV3EwJZM7w0I4aTX46KHRihPgJ06cwJQpU4QJ8KCgIIwaNQpjx47FiBEj4O3tzc3RlC/iY2l4bc4WhysS9uKdA6VfS0xHJ0R5aLXyus34ebnh/lHdcP+obkjJyEfSsTQcPJeJi9mFMLOXGXw8XNEyPAAtQv3QMjwA0WH+aBkegABGuG+YwsJCPPPMM5g/f76tTqEKwFhLCXCAkXB7oT+AXTIH4OzsjOPHj6N9+/bSnVFRU4+//WsJrhaVc2dYgJenDsbkfvGKGlNOTg569uyJrKwsq9pp3bo17rjjDowfPx5dunThmW4LMXfzUXy5ep/DPdzdOiABL94pv6bChBlzeX8kRGFs/+QhxR33Kq6owZEL2TiTnocz6Xm4kFVoty9O/bzcEBbgjTB/L4QFeCM8wLtBbIf5M528CZjNZsydOxfPPvssiouLbXUa1QBGA9htyQ/lE6X9sBoNRQKk0a9fP+zatUsRQuVCViHu/3AZ6vUG7owmcM/wRDwxua+ixlRZWYl+/frh5MmTVvn8gIAA3HLLLbjnnnvQu3dvCm8LYjKZ8fHPu/DzzlMON/fWzQLx04tT4OIkPwFt9IuzUVBWxQ1JiEJQqYADXz4urU7EjaI3GJFZUIbLuSW4lFOMjLxSXC0sR05xBcqr6xQ7bm8PV/h5usHX0xWhv4rsMH8vhPl7IzTAC+EB3nB1ZnKwpUlNTcVDDz2EnTt32vI0atAQAd9h8eueW8RuaImGan1SX6N+/fXXeOSRRxThkE3JFzBj9mbujEbSJ74FPn10HNRq5dwmjEYjJk2ahF9++cWin6vRaDBmzBg88sgjGDZsGDQaDTeApb/F6vWY8eMm7D6V7nBz93RzxvyX70BEkK8ixjPsue9ZEZkQhYnE7f+ebtNzqK7TIa+kEkXl1SiuqEFZVS2KymtQVVuPipp6VNXWo7pWh6pa3R+i6fV6A3S/C5gYTGbU1Ol+u3eqVSp4ubtCrVLB080ZGo0a7q5OcNJo4ObiBGetBt4eLvD1cIOvpxv8vNx+E9y+nm7w8XSFRq3mJhOITqfD+++/j/feew91dXW2PJVaAOMBJFnjw/nax364BOATAC/JHMRzzz2HYcOGoVWrVtIdMrJ7G5xOz8PSHSe5O26S2IggvPfgKEUJcAB44oknLCrAQ0JC8MADD2D69OmIjIzkwluJlIx8zJi9GZkFZQ43d7VahXf/PlIxAhyAQ1WiJ8QWCLSDdGcPV2e0DA9Ay/AALqgDs3v3bjz88MM4d+6crU+lEsAkANus9nzA7WJXvANAakWy6upqPPjggzCZlNEm7J+39kPnVuHcGTfzMODjgU8fHQt3FydFjeuDDz7A119/bTHx/f777yM9PR3vvPMOBbiVMJuBJdtP4u8fL3dIAQ4AT93SF33iWyhqTDqKcEIUBQt8EVsnMzMT06ZNw8CBA+1BgOcDGGhNAU4Rbn/UAHhF9iB27tyJr776ShEO0WrU+PiRsYqr7K1UXJy0+PjhMQjx81LUuJYtW4aXX365yZ8TGRmJWbNmITMzEy+88IIi2urZKwVlVXh05kp8/PMuh428TugTh7uGdFbcuAxGEzcoIQrCz4sinNgmZWVlePHFF9GmTRvMmzcPZtuvuHoJQB8Ax6xtiCLc/lgIYL/sQbz00ku4dOmSIhzi4+GKmY+Nh68nBde1UKmAN+8dhvjoUEWNa//+/bjnnnualF3h5uaG119/HefPn8dDDz3Ent5WxGQ2Y/Xes7jz7UU4fCHbYf2Q2LoZXrxzoPLWx2SGycSeQ4QoiUAfDzqB2BR6vR7fffcd2rRpgw8++MDWz37/h2O/CnAhAoYi3P4wA3gCgNRQR3V1Ne677z7FpKVHBvvik0fGwtmJBbf+ikfG98LQLq0VNab09HRMnDixSTf3iRMn4uzZs3jjjTcY+bYyJy/lYtp7S/HOgm2KrpRrbZoH+eDDh0bDSau8+43BxCg4IUqD6ejElkhKSkLnzp3x0EMPoaCgwG6mhYYU9HxRBinC7ZOjAObIHsSePXvw+eefK8YpHVqG4e37RkDNllP/K1T7xuH+Ud0UNabKykpMmDABhYWFjfp9b29vLFy4EKtWrUJ0dDQX2YoUlFXh1dmb8cDHy3Aus8ChfRHg7Y4vn5io2MwbI1PRCaEIJ6QRHDt2DIMGDcKwYcNw9uxZe5raEgBj0FCMTRgU4fbLywDKZQ/ilVdewfnz5xXjlCGJrfCPyX24O35Hv4RovHTXIEWNyWAwYMqUKTh9+nSjfr9bt244duwY7rrrLi6wFamorsN36w7hltfnY2PyBZgdPMvZy90FXz45Ec2DfBQ7RiNT0QlRngj3oQgnyuX06dO4/fbb0a1bN1vv+f1nfAZgKgCdaMNsUWa/FAB4HcBMmYOoqanBlClTkJycDFdXV0U45m/DElFZU4/ZGw87/CZp3yIE/3pgpOJ6aP7zn//Epk2bGvW7Dz30EL744gs4OTnxLmCtm0tZFRYmHceqPWdQU6+nQwC4Omsx87HxaN0sUNHjNBhZGZ0QxYlwb54JJ8rj1KlTeOutt7Bq1SrFHC+15NchgOcBfCprABTh9s2XAO4BkChzEKdPn8ZLL72ETz/9VDGOeXRCLxhNJszdfNRhN0fzIB/MfGw83BTWiuyHH37Al19+2ajfffXVV/HWW2/xyrcSV/JLMW/LMWw4dJ69pn//RapR44Ppo9GxZZjix8qibIQoj0CmoxMFcfr0aXz88cdYsGCBPYpvACgEcDuAHVKfHbjV7BojgIcAHAQgtULQZ599hsGDB2PcuHGKcc7jE/ugtl6Pn3eecriN4eflhs//MQH+Xso6t7plyxY88sgjN/17KpUKM2fOxBNPPMGr3tI3EZMJ+85cwZp9Z7HnVDpMZoq4/xbg7/59pOJ6gf8VbE9GiLJw0mrg68WioUQ+p06dwjvvvIPly5fbQ6uxv+IIgFsAZEp/fuCWs3uOAPgKDRXTpWE2m/H3v/8dJ0+eRFiYMqJFKhXw3O0DoTMYsXrvWYfZEF7uLvjiHxMQGeyrqHGlpKRgypQpMBgMN/27n376KQW4hbmSX4q1+1Ow/uB5FJVX0yF/8fD8/oOjMKBjjM2MmdXRCVEWQb4eLBhLKL7FMAfAowAU0b6FItwxeBUNb32ayRxEYWEhpk2bhk2bNkGtkDPIKhXw8tTBMJuBNfvsX4h7ujnjyycmom1ksKLGVVhYiHHjxqG8/OZrCd5333148skneZVbgOo6HbYdS8Pa/Sk4kZZDh1wDZ60GHz40Bn0TWtjUuI0U4YQoS4SzRziRgMlkwoYNG/DZZ58hKSnJ3qerA/AUgG+UNCiKcMegAg2R8BWyB7J161Z8/PHHeP755xXjHLVKhRl3D4Gflxt+2nTE7gV4XIsQRY2rvr4ekydPxuXLl2/6d3v16oVvvvmGV3hTbg7Vddh7JgNJRy/iYEomdDzrfUMC/IOHRtucAAeYjk6I0gjx86ITiDCqqqqwaNEizJw5E+fOnXOEKecCuBXAfqUNjCLccVgJYB2AsbIHMmPGDPTv3x89e/ZUjHNUKuDxib3h7+WGT5fvsbtWS76ebvjiiQlop7AIOABMnz4de/fuvenf8/Pzw4oVK+Di4sKr+ybJK6nEzhOXsePEJRxPu8piXTeBl7sLPn54DLrENrfJ8RuNXGtClCXCPekEYnUOHz6MH3/8EYsXL0ZFRYWjTHsfgNt+FeKKgyLcsXgcwCAAUnOf9Ho9Jk+ejCNHjiA8PFxRDrprSGf4ebnjzblb7SZiFOjjgS+fmIhWzQIUN7Z//etfmDdvXqN+99VXX1VMfQGlozcYcfpyHg6ey8SBs1dwPqsArK9284T6e+Hzx8cjJjzAZufAdHRClEWQL0U4sQ5lZWX4+eefMWvWLBw/ftyRpm4E8BGA1wAoto8qRbhjcQXAG79uTKnk5ubirrvuwtatWxXXz3lU9zbw83TDyz9sREVNvU0veEx4AD57fDzC/JWX7rZixQq8+uqrjfrdli1b4tFHH+UVfQ2uFpXj0LksJJ/PwsGUK6iq1dEpTaBVswB8/vgEBNt41MrIdHRCFEWwL8+EE8tRU1ODtWvXYsmSJdi0aRPq6+sdzQUZaGjPvEfpA6UIdzxmoiE1o7vsgezatQvPPfccZs6cqTgn9WwfiUUz7sLz365HypUCm1zo7u0i8MGDo+Hlrrx07WPHjmHatGmN7j/573//m2no/0VeSSWOXbyKIxeycfBcJgpKq+gUC9GrfRQ+mD4K7q7ONj8XngknRGEinOnopInU1dVhy5YtWLJkCdauXYvqaoftaDIfwD8AlNvCYNkTwTFpC+AYAEU0plywYAGmTp2qzBubzoC35ydh8+FUm1rgOwd3wlO39oVGIVXof8/Vq1fRvXt35OQ0rvp2YmIijh496tAXsNkMpOcW43haDk6k5eDYxRzkl1byzmbpL0gVcPfQRDw+qbcir6XGcOziVUz/9wouLiEKYf1797E4G7lpysrKsHXrVqxbtw6rV692pHPef0Y5gMcALLSlQTMS7picR0Na+gdKGMz06dMRHx+Pjh07Ks5Rrs5avPv3kYhrEYovV+1TfOVoNxcnzLh7CEZ0i1Xk+KqrqzF+/PhGC3AAuOOOOxzugtUbjDifVYgTaTk4fjEHJy/loLy6DsS619KrfxuC4V1j7WpeRhbhI0QxqFUqBHgzHZ1cH7PZjDNnziApKQkbN27Ezp07odfr6RggCcB9ALJtbeAU4Y7LxwDGAegreyA1NTWYMGECjhw5gsDAQEU6664hndCzXQTemJeElIx8RY6xVbMAvHP/SEUWYAMaelLefffdOHbsWKM/Q6VS4bbbbrP7i7OovBrnMgtwIi0HJy/l4tyVAtTrDbxrCSIiyBcfPTxGsddSk0Q409EJUQwB3u7QatR0BPlT8vLysGfPHiQlJWHDhg3Izs6mU/6fegCvo6HOlU1+sVGEOy4mAA9CIWnpV65cwe23346NGzfC2VmZ5y5jwgMw5/nbMHfzUfywPlkxUXGNWo1pI7rgwTHd4aTVKHbDvfzyy1i9enWTPqN79+5o0aKFXV2IVbU6nM3Iw5n0fJxJz8OZjDyUVtbyDiWJoV1a45WpgxVZS8EiIpzV0QlRDEE8D05+R1lZGXbs2IGkpCRs27YNFy5coFP+nOMApgE4bcuToAh3bM4DeBUNUXHpbN++HQ8++CB++uknqFTKLFegUatx/6huGNAxBh8t3YUjF+S+lWwXGYxX/zYEsRFBit5oP/30Ez74oOmnHyZMmGDTF5zJZMbl3BKcupyL05dzcSY9Hxn5JWwXpgDcXZ3x3O0DMK5XO7ueJwuzEaIcQtiezKHJzMzEoUOHkJycjN27d+Po0aMwGo10zF9TjYbo92cAbD49kCKcfApgEoA+ShjMvHnzEB0djTfeeEPRTmsZHoBZ/5yM5HNZmLlyL1KzCoXa9/V0wwOju2PKwA5Qq5VdX3Hv3r14+OGHLfJZsbG2dT5XZzDizOU8HEnNxom0HJzJyEdNHVuFKY2E6FC8ff8INA/ysfu5MhJOiHJgZXTHoby8HMnJyX/4ycvLo2NunPUAHkdDCzK7gCKcmADcj4bUDnclDOitt95CixYtcO+99yreed3bRWDBy3dg/cHzmLPxMDILyqxqz9/LDX8b3gW39k+Am4uT4v1z4cIFTJw40WJ9KqOjoxU/59SsQuw7ewWHL2ThZFouz3IrGGcnDR4Y3R3TRnSxm+rn1xfhTLsgRCkE+YgvynbixAnExcXBycmJC2AlqqurkZKS8gfBfeHCBZiZ9tYYcgE8BeBne5sYRTgBgFQALwD4QgmDMZvNmD59Opo3b46hQ4cq3nlqlQrjerXDmJ5tsedUOlbsOY2DKZkwWfBht01EEG4b0AGjerSBi5NtXLa5ubkYOXIkiouLLfaZSjwPrjcYkXw+C7tPpWPP6XT257YRusQ2xytTByMyxNeh5s3CbIQoBxmR8GnTpiEtLQ29e/fG0KFDMW7cOLRv356L0Qh0Oh3S0tJw9uxZpKSk/PbnuXPnYGLWUVMxAfgWwMsAyuxxguwTTn6/F1YBUMyhWx8fH+zduxfx8fE258yCsipsP3YJO09ewqlLuY0q4taqWQD6xLfAyO5t0LpZoE3Nv7KyEgMGDMDx48ct9pne3t4oLy9XxjeD2YwTF3Ow6fAFJB1LQwXbhdkM3u4uePKWvhjfOw4qB/wG3HDoPF6bs4UbgRAF8O3Tk9EltrlQmwEBASgpKfnDf4uOjkavXr3Qo0cP9OjRA507d1ZskVwZ5OfnIyMjA+fOnftNbJ87dw4ZGRmMbluH0wAeAnDA3oUXIf8hEMAJAM2UMqCIiAjs3r3bpiti1+kMOJuRhwtZhbicW4Lc4kqUVdWiqrbhbLCzVgNfT1eE+HshMtgXbSKCEB8digBvd5ucr06nw9ixY7F161aLfq6/v79Fo+qNoayqFmv3p2DlnjPILiznHcOG0KjVmNg3Dg+N6wl/LzeH9cO6A+fwxtyt3BCEKIBVb9+DiCBfYfZqamrg4XH9FHgXFxckJCQgPj4e7du3/+3PqKgou1sDk8mEvLw8pKen48qVK//zk5GRgdpadiwRtUUBvA3g3wDsvgk609HJ7ykCMBXANgCK6HWVlZWFAQMGYNeuXTYrxF2dtegS21z4224Z/OcogaUFONDQusNoNEKjkbM1a+r1eOLLtYrtE0/+mt5xUXjqlr6ICQ9weF+YGLUhRDEEC66OfvXq1Rv6d/X19Thy5AiOHDnyh//u5uaG6OhotGjR4refyMhIhIWFITg4GCEhIfDz85PuV51Oh6KiIhQVFaG4uBj5+fm//e///Pe8vDxkZ2cjMzMTOh0Lpsp+fASwHMDzsKPCaxTh5GbZBeADNJzBUASZmZkYNmwYdu3ahfDwcK6QgnnxxRcxd+5c64gHkwklJSUICpLTjs3dxQlznr8NS3ecxLe/HEI1q5wrnraRwXh0Qi/0jouiM/7zpEMRTogi8PFwFV7jJTu7aW1Va2trkZKSgpSUlL/8Ny4uLggKCoK/vz98fHzg7e0Nb29v+Pj4wMfn/ztQ+Pj4QP27gpju7u5wcXH50xcCNTU1qK2tRV1dHaqrq6HT6VBZWQmDwYDy8nKYTCaUlpairKwMhYWFqKio4AazLd3xDICjjjZxinDyZ7wOYDCAnkoZUFpaGgYNGoRdu3YhNDSUK6RAZs2ahQ8//NCqNoqLi6WJcKAhpfmuIZ0xvGssvlq9HxsOXWDLJ4WK7+lju6NfQoxDnvu+FoyEE6IMgiX0CM/JybG6jfr6emRnZzdZ8BO7JxUNke81juoANfcA+RMMAG4HUKqoqzU1FSNGjJB+Lpj8LwsXLsRjjz1mdTsZGRmKmG+gjwdenzYMy964G2N6tnOY9lZKJ65FCD55dCzmv3QH+negAP9TEc4WZYQoghB/8SI8KyuLjieyKQHwIoAOjizAKcLJtchEQ2VCRXHq1CmMGDECZWVlXCGFsHjxYkybNk1IO47t27crau6Rwb54894GMT65X7xN9G63NzRqNYZ2aY0fn7sNc1+8neL7eiKckXBCFEGov5dwmzd6JpwQK6AH8B2ANmg49lrv6A5hOjq5FsvQ0KNPUWL86NGj6NevHzZt2oRmzZpxlSSyfPly3PN/7d13nJXVgf/xz50+Qx3KIB1RehcsCGKNGkViN2pCEs1qTNaY/BITN2uy2ei6a4xGXZOXwaxxNcZsUDRWUCzogEZpUqXDIHWAgRmYPnN/f9zRoLFQ7n2eWz7v1+t5DUHynHvOee7M/c5pkyfT1NQUSHkzZ85MynboVdKen1x5Gt+9cDxPz1nG47MWUbZ9tw9IAhW3KeS8sYO45JQRdA3hw2yqck24lBy6FAf/fcsp4grjx05LnvgXYK3NYQjXgbsBGAkcn0wvasmSJUyYMIEXX3yRo446yl4KwWOPPcbkyZNpbGwMrMx3332X8vLyUNeFf5bWhXlccfpIvnzaCBau3syMd1Yyc94q9niOeFxkZUU4cUhvJp04hJOG9SE3J9tGOegQbhtIyRHCg5+O7ki4Ag7fTwK/AN61OQzhOnh1wMXAXKBLMr2wtWvXMm7cOJ5//nmOOeYYeypAv/vd7/j2t78dyBT0/TU3N/PXv/6Vb37zm8kdFiMRjunXnWP6defGy07mzWUbeG3hWuYsWU/5nn0+QAchEoEhfY7g9GOO5qxj+4eymVE6aXJNuJQUwpiOvmHDBhteCf+oBkwjdt73IpvjMz7f2AQ6QCcDLwFJt+i1devWPPHEE5x55pn2UgDuvfdevve974U2rXXIkCEsXryYSAou/I1GYdX75cxZuoH5qzbx7potHnX2CbKyIgw7Mha8Txt1dCgfVoPwm9/8JpANDff3x5fmc/cTpT5kUsievvXrdOvUNrDy6urqKCwsdEmKEhm+pwK3AktsDkO44usG4O5kfGH5+fk8+uijXHTRRfZSwgJklB//+Mfccccdob+WF154gbPPPjv1f2I1R1m9eScLV29i4eotLFq7ha27qjLy+erUrhUnDunN2CG9OX5gT9q2KkjbujY1NXH99dfz9NNPB75G8+EX53PvNEO4FKasSITZ//3tQJfUrF69mn79+tn4SkT4/r+W8L3M5jhwTkfXwbgHOBa4MtleWF1dHZdddhm33XYbN954Y0qOkiazmpoavva1rzF16tSkeD2/+tWv0iKEZ2VF6N+jE/17dOLSU0YAUFFVw/Ky7bxXtp3lG7azvGx7WgbzHp3bMeKobow6uhsjju5Kny4dMmJX83379nH55ZfzzDPP0KtXr8DLdxRMCl/HtkWB72lRVlZmwyuemoA/t4Tv92wOQ7gS7xpgKDAi6b4bNDXx4x//mNmzZ/Pwww/Trl07eysOdu7cyfnnn09pafKMnr388ss89dRTnH/++WnX3sVtCjlxSG9OHNL7w7/bvbeGtZt3sX5bBeu27GLd1l2s31qREuE8KxKha8e2DOzVmQE9OzOwZwkDe3WmQ9uijHsvbdu2jfPOO4933nkn1jYhnC/vEWVS+MJYYuMZ4YqTGuBR4A5gpc1hCFdwqoELgXeADsn4Ap9++mnGjRvHtGnT6N+/vz12GBYuXMgFF1zA+vXrk+61XX/99Zx++um0aZP+x1O1b13IMf27c0z/jx7JV13XwMbtu9m6q4otO6vYvruKrbv2sq0i9nXHnn00BbB5XlF+Lkd0aENJcWtK2remR+d29O5STK8u7eldUkxerruYv/POO1x00UUf+SAcRgh3JFwKX5cQQrgj4TpM7wO/BR4AdtgchnCFYy1wAfAikJ+ML3Dp0qWMGTOGhx56iAsvvNAeOwSPPvoo11xzDdXV1cn50+D99/npT3/K3XffnbF9VJSfy4CesRHmT9LcHKWyupaqmjr21tRTta+u5c91VFXH/tzY9OkhvaaugYK8XPJzsynIy6VVQR5FBbm0a1UQu1oX0LFNEUUFeb5hPsODDz7Id77zHWprP3pUXRgh3N3RpfA5Eq4UMhu4l9iO5402hyFc4Xsd+AaxKSlJuZKzqqqKiy++mJ/+9Kf87Gc/Izvb0bgDUV9fz/e//31++9vfJv1rvffeexk/fjwXX3yxHfcJsrIitG9dSPvWhTZGSO+lH/3oR9xzzz2f0j+OhEuZKIwzwh0J10HYQ2yztSnAPJsjQZ/RbAIdhseAnyTzC4xGo/ziF79g/PjxLF++3B77HO+99x5jx45NiQD+Qf9eddVVLFvmhpxKLps3b+aUU0751ABuCJcyOYQ7Eq6k0wy8CkwGugHXGsAN4Upu/0XsN2VJ7a233uKYY47h9ttvp6mpyV77BI888ghjxoxh/vz5KfW6q6qquOiii9ixwyVKSg4vvPACxxxzDG+++eZn/rswZue4MZsUPqejK4msB/4dOBo4DXiE2P5PMoQrBXwHeCHZX2RtbS033XQTJ510Eu+952kK+/9gnjhxIpMnT2bfvn0pWYf33nuPM844g4qKCjtUoX+PmThxItu2bfvcfx/GUYrNrgmXQhf0dPTdu3dTVVVlw+vDj37AXcBYoC/wc2CdzWIIV+ppBC4DFqbCi33zzTcZNWoUv/rVrzJ6VLy5uZn77ruPIUOG8Nxzz6V8fd59910mTpzoBw2F9vyNGTOG22+/neYD3JE+lOnodpUUqrycbDq0CfaIRteDi9ju5ncDJwK9gR8Ab/ljwRCu1FcFnEvst2tJr7a2lhtvvJERI0bw7LPPZlxnzZs3j5NOOonrr78+rULrnDlzGDduHJs2bfIdqWBCbTTKvffey/HHH8/SpUttEEmfqUtxG4KeBGMIz1iLgP9sCd69gO8Dbxq8DeFKP5uBs4DtqfKCly5dynnnncfYsWMpLS1N+w7atGkT1157Lccffzxz5sxJyzouXryYCRMmsGrVKt+RSqiVK1dy6qmncsMNN1BXV2eDSPr8EN4h+J3RXQ+eMWqJLQ/9DtAHGEFsA2WDtyFcGWA5cAawM5Ve9FtvvcWECRO49NJLWb16ddp1ys6dO/nXf/1X+vfvz5QpU9J+Gv7atWsZM2YMjz32mO9IxV1jYyO33347I0aMYNasWTaIpAPmpmyKsyXAPcB5QCfgHOC3wAabxhCuzLMYOBPYnUovOhqNMnXqVAYPHsx1112XFmG8vLycm266iT59+nDbbbdRXZ05G15WVlZyxRVXcN1111FbW+u7UnHxwUkLN910k8+VpIPmGeE6TBuAB4Erga7AMOB7wLPAPpvHEC7NB84GKlPthTc0NHD//fczYMAALrzwQt54442Ua/zFixdz7bXX0qdPH26//Xb27t2bsQ/i/fffz/HHH++O+DosFRUVXH/99YwbN47FixfbIJIOMYQHPxJuCE9ZUWIzTH8PfJ3YMWJ9gKuBPwFbbSJDuPRJ/kZss7aU/M1cc3MzTz75JBMmTGDIkCHceeedbN+evMvda2pq+POf/8ypp57K8OHDmTJlSkaNfH+WRYsWceyxx/LAAw8Q9ZxkHYSGhgbuu+8++vXrx3333XfAO59L0idxOro+QzUwG/glMAnoDAwG/gn4X2CNTZQ+IjaBAnAasWkyhalekdzcXM4880wuvPBCJk2aRKdOnUIPCC+//DJ/+tOfeOqppzye6wCMHj2a3/72txx33HE2hj7TzJkz+f73v8+SJUsScv/hw4fz7rvvBlqn+56aw0PT59q5Ukj+8rMr6dutY2DlNTc3U1hYSH19vY2fXOqBd4G5+13LiB37qwyQYxMoAK8AFwJPAfmpXJGGhgaee+45nnvuObKzs5kwYQKnn346p556Kscddxw5OYl/S61Zs4aXXnqJ6dOn88orrxi8D9K8efM48cQT+da3vsUtt9xCcXGxjaKPWLhwIT/84Q95+eWXbQxJcdUl4JHwLVu2GMDDt6slcC8hdmzYgpavDTaNIVxKtOnEpqY/CbRJhwo1NTXx6quv8uqrrwLQunVrjjvuOEaOHMnIkSMZMWIERx99NEVFRYcc+NevX8+qVatYsGABf/vb33j77bfZtm2bT1Mc+u43v/kNU6dO5T//8z/52te+RnZ2tg2T4RYtWsQvfvELpk2b5rIFSXHXpiifVgV5gZbpVPRA7QFWAu/tF7gXA5tsGhnCFaaXgVOInWFYkm6V27t3L6+88gqvvPLKR/6+c+fO9OnTh+7du9O2bVvatWtH27ZtycrK+shvpysqKigvL2fnzp1s2bKF9evX09DgL0kTafv27Vx99dXceuut3HTTTVx11VWBzGZQclmyZAl33HEHf/zjH9N+zbe/XJDCc4SbsqWDWmAdsfXZK1pC94qWy43SZAhX0poPjANmAH0zocLl5eWUl5fzzjvv2PtJat26dVx77bXceeed3HzzzVxxxRWOjGeAuXPnctttt/HUU09lTDiNRNwKRgpLSQjHkzkSftAqgfeBzcSOA1u337Ue2GITyRCuVLUaGE9sRHyEzaFksXLlSiZPnsytt97KD3/4Q6688spDXk6g5NTU1MRTTz3F3XffTWlpacYFYkfCpfB07Zi2I+EbgCagC9AqCZt+L7AdKAd27Hdtbbk27vfVY2VkCFda2wKcDPy15auUVGH8mmuu4Yc//CFf/vKX+d73vsegQYNsmBRWVVXFY489xl133cWKFStsEEnBh/AObQMvM6CR8O8T2/MHoKgljHchdsRWCdAJyGsJ6NlAW2InNLVv+f+049OPTY4Cu/cL0w1AXUtY/uC/7QWqWr5WtvxdVcu1s+XfS4ZwqcUe4GzgMeB8m0PJprKykilTpvD73/+es88+m+985zucddZZTlVPIW+99RYPPvggf/7znz1JQFK4ITx9R8L3L6Sav0/flvQpsmwChawWuBj4b5tCyaq5uZnnn3+ec889l5KSEq699lpmz57t1N4kVVFRwZQpUxg5ciRjx47lgQceSMoA7vMjZZYwNmYLaCTc3d8kQ7hSUBPwXeBKXIujJLdr1y6mTJnC+PHj6devHz/96U959913bZiQVVZW8uijj/KlL32JLl26cO211yZ9v7hJmpRZunYMdjp6TU0N5eXlCS+G2PpqSYZwpag/Eduwbb1Nkbb+QOzMzLSwZs0abr31VkaOHEmXLl342te+xtSpU9m9e7c9HYDdu3fzyCOPcOmll9KtWze+8pWv8PTTT3u0n6Skk5uTTcd2wW70WVZWFsSMmzJia7MlHQTXhCvZLADGEFsn/gWbI200AP8PuA84GngL6JhOFdy+fTsPP/wwDz/8MLm5uZx44omccsopjB8/nhNOOIHWrVv7FMTB8uXLmT59OtOnT+e1116jvr7eRpGU9LoUtyYr4NkvGzZsCCTr27uSIVzpYSdwFvAj4DacsZHqNgOXAHNa/vdq4AzgFaA4LX/j0NDArFmzmDVrVuwbbU4OI0eOZNy4cYwfP56xY8fSvXt3n4wDsGvXLmbNmsWMGTOYPn16UB8qJSmuunYIfj24IVwyhEsHKwrcDiwDHiF2fIVSTylwKbEj6fa3EDgXeBFI+yHixsZG5s6dy9y5c7nnnnsAaN++PUOHDmX06NEfXoMHD874B2bLli2UlpYye/ZsSktLWbBgAc3Nzb6TJKW0I9I3hG+0dyVDuNLPM8BY4I/AMTZHymgGfgn8FGj8lH/zJnAR8DSQn2kNtHv3bkpLSyktLf37h7QjjmDkyJEMGTKEgQMHMmjQIAYOHEjHjh3Tsg3Wr1/PggULPrzmz5/P5s2bM+YZCGN39Cw3g5NCEfSmbAGGcEfCJUO40tRy4ATgJuBmIM8mSWobgcnAawfwb18ELgP+Yr/C1q1bP1zvvL/OnTszePBgBg4cyIABA+jduzc9e/akR48edO3aNanrVF9fz+rVq1mxYgWrVq1i5cqVrFixgqVLl1JRUZHR/R3GCL87skvhOMLp6JIM4UpBDcAtwF+J7bDtqHhy+gvwLeBg0tVfiU1Nnwa0sQn/UXl5+UfWmO8vPz+fHj160KNHD3r16kWvXr3o2rUrxcXFtGvXjvbt23/4tX379nHbIG737t2Ul5ezc+fOD6/y8nI2btxIWVkZmzZtYuPGjWzdutXzsJMohGdlGcKlMDgSLskQrlS2CEfFk9Eu4HvE1u8fipnAKcDzQBeb88DV1dWxZs0a1qxZc0D/Pjs7+8Ng/oGCggIKCws/s4zq6moqKyupra1l7969NnyqhnBHwqVwQnjAI+GNjY1BLO+J4ppwyRCujPHBqPiTxEbFx9gkoXqW2Oj3psO8z3xi6/+nA/1t1sRoamr6cORamRfCJQUvKxKhpDjYPUg3bdpEY2NjoovZDtTaw9IhfF+wCZTClrSEtp8CdTZH4DYCk4Dz4hDAP7AOGA+8ZPPKEJ6YMCApWB3bFpGXkx1omQFNRd9i70qGcGWmRuBWYACxHdQdWkq8euBOYAix3evjrRw4m9hyg0abW4bwOP7Qd024FLg0Xg9eY+9KhnBltg3AV4HRxHbcVmJMawnfPwSqEplPgP8ATgPet9llCI8Pd0eXgpfGO6MbwiVDuATAQuAs4AvE1hgrPuYBJxM713t1gOW+AYwCnrMLZAiPww99Q7gUuK4dgw/hZWWBbFruenDJEC59xExiG7ZdSWydsQ7NUuBy4Djg9ZBeww5i685vJLYpn2QIP0SOhEshhPAOaTsd3RAuGcKlfxAF/gQMBL4PbLVJDtgi4BJgOPBnwl9rHwV+BUwA1ts9MoQf4g99M7gUfAjv6HR0SYZwZZ564G6gD3AVsNgm+VRzgAuAkcDjJN9Gd28BQ4H/bOlXyRB+MD/0TeFS8CE84DXh0WiUjRsDOb7bkXDJEC59rjpi54qPILZufDrupg6x32Q/SGxTu3HAU8RGnpPVPuAnxEbpPcpMhvCD4HR0KXhBb8xWXl5OdXV1UJ8fJBnCpQMSJbaD+heBI4F/IzPXja8Gfgz0BK4m9TayWwGcSWzavDuoyxB+ID/0DeFSoNq2KqCoIC/QMgOaig6OhEuGcOkQlQG/AI4GzgAeAfakcX23AvcCJwD9gF8CO1O8To8TW/d/O05RlyH8MzkSLgWra/oeT2YIlwzh0uF/HgZeBiYDJcRGyR8AtqdB3TYD/0NsCn4P4Abgb2nWf/uAm0iejeSkpAzhjoRLAYfwjmm7Mzo4HV0yhEtxVE9svfg1QDfgJODnxI7oqkuR1/8KsanmI4DuwDeJTcFvSvO+W0HsSLXhwP8ZxmUI/9gPfTdmk4IN4Y6ES/oEOTaB9JmagNKW69+BQmKbl51M7OzskcRGzsO0BXh7v+stYG+G99tS4MvALcDPgIvxl44yhONAuBSsIwzhkgzh0mGrAWa2XB/o3hLGRwIDiG321rvl7+MZ/DYDq4htqLYKWAnMBTbaLZ8Zxi8jdqzZTw3jyvQQ7nR0KVhpfEb4B5+JJBnCpVBsarme+9jf5xLbebwnUAy0A9q2fG0HZPOPG4k1AzuIbZa2c78/bwKqbepDtqQljPcFriN2XnwHm0UH+P5ubnkfx1VTU/CrQ7Ky/B2UFKQjOgS/JrysrCyoohwJlwzhUtJpANa2XEoOa4EbgZuBScD/I7ZTvPRx84F7gMeAR9MlhGe7JlwKOIQHOxJeWVlJRUVFUMU5Ei4dIn8lLikT1QFTgbHAeGI7qnu8mfYAvwOOB0YDDxP7ZVpCPmg2NjYSjUYDrWBOtj/2paAU5ufSoU1hoGUGOBUdHAmXDv3nsU0gKcPNbrmKgfOArwKn4S8pM8k8YAqxEe99n/DfEzba09TURE5OcD+Ks52OLgUmjOPJApyKDm4CKxnCJekwVRAb+XwY6EVsd/UriB3zpvSzriV0/4HPXzKSsP0YGhsbAw7hTkeXgtI9vc8IB6iylyVDuCTFSxnwy5ZrMHApcA6xKcoOJaau1cDjLde8g/j/JWwkvKGhgYKCguB+6Gdn+xRIAUnzndEN4ZIhXJISZhnw85arE3AqcAaxqetdbZ6ktw54htgeALOBQ1mEnbB1j42NjYE2Rna2I+FSULqFMBK+bt06Q7hkCJektLKjJcxNBb4NHAucDZwCHAcU2kShqwFeB6YDLwAr4nTP9AjhrgmXggvhnYIP4evXrw+yONeES4ZwSQpUE/BWywWxc+FHA+OAk4ATgc42UyDeA2a0BO9ZCQjNdYl64Q0NDcH+0Hd3dCm4EJ7eI+EJOzlCMoRLkg7mA8kHofzOlr8bSGy0fHTLNQpoZVMdlkbgXaB0v2trgstMm+noOY6ES2kbwvft28eOHTuCKs5RcMkQLklJ6b2W65GW/50NDNgvlI8mtvt6G5vqU20G5hPbSG02sV9yBL0OMWEj4cGvCTeES0EoKsijbauCQMt0PbhkCJck/aMmYhu9LdsvmAP0JDZqPqjlGkBsV/YuGdQ2DcQ2UXsXWLDftS0JXlvahHCno0vB6NHJTdkkGcIlKZltbLle+tjfF+8Xynu1hPUeLV97k3pT2xuALcTO5V7Zcq1o+bqu5b8no7RZE+7GbFIwunZM+03ZDOGSIVyS0lIFMKfl+iTFLaG8d0sw70bsGLV2QPuWa/8/FyXgNUaBnZ9w7QA2Ae+3XGXE1m43p2A/pM+acEfCpUB0M4RLMoRLUtqG9Apg8QH++7z9QvknfUJsD0Q+50NXbcvXvS1/rsyAdk6jNeGeEy4FoatnhEsyhEuSgHqgvOVSJoZwp6NLgejeyZFwSZ/On8aSJIUUwj0nXEpPGbAmvNJelgzhkiSlXAj3nHApPQW9JnzPnj1UVFQEWaQj4ZIhXJKkhEmbjdk8J1xKvLatCmhdmBdomQGvBzeES4ZwSZISyunokg5YBuyMbgiXDOGSJBnCD0Rudra9KSU8hLcxhEsyhEuSdBgSNh29vr4+0Irk5PhjX0p4CO/ULvAyQ5iOvsuelgzhkiQlSsJGwoMO4VmRiFPSpUSH8MwYCa+wpyVDuCRJCcvKQDQh6b6uLvDK5OY4JV1KpDCOJwthJHynPS0ZwiVJSpQoCRoNN4RL6ad7ZmzM5nR0yRAuSVJCpU0IzzOESwl1RMAhfOfOnVRVBbpPWtQQLhnCJUlKtJpE3DToNeEAua4JlxKmuE0hRfm5gZYZwih4JdBob0uGcEmSEikhO6SHMh0915FwKVEyZD24o+CSIVySpIRLm5Fwp6NLieN6cEmGcEmS4iNtRsIN4VLidDWESzKES5IUFwkZCQ8jhOcYwqWE6ZYZ09E9I1wyhEuSlHCOhEv6/BDeKSNGwj0jXDKES5KUcGkzEm4IlxIYwgMeCY9Go2zYsMEQLhnCJUlKOwkZCQ9jY7acbEO4lAiRSPAhfPv27ezbty/oqjodXTKES5KUcOkzEu4RZVJCdG7fOvD3VwhT0cGN2SRDuCRJAXBNuKTP1KNTu8DLNIRLhnBJktJV2oyE5xrCpYQIY1O2EHZGN4RLhnBJklI3hIexJjw3xx/9UiJ0D2EkfO3atWFU1Y3ZJEO4JEkJl0bT0XPsTSkhITxjRsK32duSIVySJEP4ASrIM4RLiQnhGTESXoe7o0uGcEmSApCQ6ejV1dWBVyQ/1xAuJUKPzsGG8MbGRsrKyoKu5nYgam9LhnBJkhItISPhNTU1gVfEkXApMe+rDm2KAi2zrKyMxsbGoKu61d6WDOGSJAUhIUPWjoRL6aF7p3ZEIsGWGdKmbK4HlwzhkiQFYl8ibupIuJQ+ITxoIYVwR8IlQ7gkSYHYm4ibhjISbgiX4q5HZ3dGl2QIlyQpnhIyEt7c3Bz4DumOhEvx162jI+GSDOGSJCV9CIfgR8NdEy7FX/cQRsIN4ZIhXJIkQ/ghCHpduCPhUgJCeOasCXc6umQIlyQpEHsTdeOgR8IL8nLtTSmOIhHo1jHYkfA9e/awa9euMKrrSLhkCJckKRBpMx29wOnoUlx1atsq8Bkma9asCau6joRLhnBJklI7hDsdXUpt3TtnzFT0GqDSHpcM4ZIkBaERSMg25oFvzGYIl+Ibwj0jXJIhXJKkhEjIaLgj4VKqh/CMOSPcEC4ZwiVJClRCNmcLeiQ8LyeHSMTOlFI5hLszumQIlyTJEJ4iITwSiQVxSfEK4RkzHb3M3pYM4ZIkBSktpqODU9KlVA7hTU1NlJWFkocN4ZIhXJKk1A/hQY+EAxTme1a4FA/5uTl0atcq0DI3btxIfX29IVwyhEuSlPbSYjo6QFFBnr0pxUG3jm0D32MhpE3ZADba45IhXJKkICVkJHzv3r2BV6TIkXApLnqEcEb4mjVrwqquI+GSIVySpEBVJuKmVVVVhnApRXXvnDHHk9XjEWWSIVySpHQI4aGMhDsdXYqLbh0zZmf0jUCzPS4ZwiVJSvkQ7ki4lLp6dM6YM8Kdii4ZwiVJCtyedAnhrRwJl+ITwj0jXJIhXJKkhEmb6egeUSbF4UN0JEL3gDdmq6qqYseOHYZwyRAuSZIhPJVCuNPRpcNXUtya/NycQMsMcWd0jyeTDOGSJAUubaajuzGbdPh6ds6YqejgSLhkCJckKQSOhEv6ewgvaR94mZ4RLhnCJUkyhB+mcEbCDeHS4erROfgQvnr16rCq63R0yRAuSVLgEjIdva6ujvr6+mBDeL7T0aXD1ask+OnoIYXwncBee1wyhEuSlBYhHIKfku5IuHT4wpiOvmrVqjCqusbelgzhkiSFoRpoTIcQ7jnh0uGJRKBHwBuz1dbWsmnTpjCqu8oelwzhkiSFJS3WhXtOuHR4Stq3CeV4subm5jCqu9oelwzhkiQZwg+DI+HS4emZOevBwZFwyRAuSVK6hfCgp6O3Kcy3J6XD0Ctz1oODI+GSIVySpBAlZHO2ysrKQCuRl5tNXm62vSkdoqDXg0OoI+GGcMkQLklSaCoScdPdu3cHXhFHw6VDF8bO6CGF8ApiR5RJMoRLkhSKhHwYDSWEFxnCpUMO4Z2DD+EhTUdfaW9LhnBJkgzh8QjhjoRLhyQSge6d2gZaZl1dHe+//34Y1XUqumQIlyTJEB6XEO5IuHRIOrdvHfgxfx5PJhnCJUnKVLsM4VJmy6Cp6ODxZJIhXJKkkDkSLmW4XpmzKRs4Ei4ZwiVJSscQXlFREXhFXBMuHZqeJRl1PJkj4ZIhXJKkUKXNdPTWhnDpkPQIYTp6SCF8V6K+50mGcEmSdKCcji5luDBGwkNaE77c3pYM4ZIkGcIN4VJoIhHo0SnYEB7i8WSL7XHJEC5JUthqgep433Tv3r3U19cHG8Kdji4dtM7tgj+ebO3atTQ1NYVR3aX2uGQIlyQpGSRkNHzPnj3BhnBHwqWD1iNzpqIDLLHHJUO4JElpG8KDnpLuSLh08DLseDJHwiVDuCRJSSEtdkhv28oQLh2snpmzM/pWoNwelwzhkiQlg7QYCW/bqoCsrIi9KR2EI7sWZ0oId1M2yRAuSVJ6h/CKiopgPwBEIrRrVWBvSgehT5cOmRLCnYouGcIlSUoa2xJx0/Ly4Gd+tm9VaG9KByg3J5vundsGWmZ9fT1lZWVhVNdN2SRDuCRJSWNLuoTw4jaGcOlA9ezcjuysYD86h3g8mSFcMoRLkpTeIXzHjh2BV6R9a6ejSweqzxHBT0Vfvnx5GFWNAsvscckQLklSstiaiJuGMh29tSPh0oGH8OA3ZXvvvffCqOo6oMoelwzhkiQlC6ejS4bwdA7hTkWXDOGSJCWVbcSma8ZVONPRDeHSgTqya8ZMRzeES4ZwSZKSSj0JOKYslJFwQ7h0QCIR6N0l+JHwFStWhFHdefa4ZAiXJCnZxH1d+I4dO4hGo4FWwpFw6cCUtG9DUX5uoGVu2rSJysrKMKr7jj0uGcIlSUo2cV8X3tjYyO7duwOthGvCpQMTxnrwkKailwMb7XHJEC5JUrJJyA7pQa8Ldzq6dGCO7Joxm7I5Ci4ZwiVJSkppsUN6e0fCpQPSp0vwm7IZwiVDuCRJSrMQnpeTTauCPHtT+rwQnjnHk821tyVDuCRJySgtpqMDdGrXyt6UkjCEh7Qm3J3RJUO4JElJKS1GwgFK2hvCpc/Spig/8F9WVVZWsmXLlqCr+n6ivrdJMoRLkpSUIXzbtm2BV6Rz+9b2pvQZ+nQJZyp60EcW4npwyRAuSVIS25SIm27evDnwijgdXfqcEO5UdEmGcEmSQreP2Hm6KR/COzsdXfqcEO7O6JIM4ZIkJYN1aRHCHQmXPieEZ8zO6I6ES4ZwSZIyL4QHvQ7UNeHSZ+vfs3PgZYYwHX0tsNPelgzhkiQls/XxvmFtbS0VFRXBhnBHwqVP1a5VAV07tAm0zIaGBtauXRt0Vd+wtyVDuCRJGRfCIfgp6Z3atyISsTOlTzIghFHw1atX09DQYAiXDOGSJOlj1iXipkGH8LycbNoWFdib0icY2Ksk8DJD2hn9dXtbMoRLkmQID0iJ68KlTxTGSHgIm7JtAVbZ25IhXJKkZLcBaI73TTdt2hR4RTymTPpkg0IYCV+wYEHQRToKLhnCJUlKCXXA1njfdMuWLYFXpKTYkXDp44ryc+lR0i4TQrjrwSVDuCRJKSPuWxiHMR29W8e29qT0MQN6diYr4F0L9+zZE8bO6I6ES4ZwSZJSxvp0COHdO7WzJ6WPCWNTtvnz5xONRoMschew1N6WDOGSJKWKuG/O9v7774cQwh0Jlz6ufwibsi1cuDDoIktJwN4WkgzhkiQlyvp433DLli3U1dUFWolujoRL/2BQSCPhAXMqumQIlyQppcR9JLy5uZkNGzYEWokObQopys+1N6UWbYvy6dutgyFckiFckqQkszohyX7dusArcoSbs0kfGnl098A3ZauurmbFihVBFrkXWGBvS4ZwSZJSyfstH2RTPoR3N4RLHxrVr1vgZS5cuJCmpqYgi3wNaLS3JUO4JEmpJAq8lw4hvJubs0kfGt2ve+BlhnA++HR7WjKES5KUiuIewkM4J9gd0qUWRfm5DOgV/M7ohnDJEC5JkkIK4aFMR3eHdAmA4Ud1JTsr+I/IAW/KthJYY29LhnBJklLR8njfMIyR8J6dDeESwDEhTEWvrKxk0aJFQRbpKLhkCJckyRD+gYqKCnbv3h1oJXp1KSYn248F0qgQQnhpaWnQm7LNsKclQ7gkSalqNVAf75uuX78+0ErkZGfRq6S9vamMlpebzZDeXQIv94033giyuFpiO6NLMoRLkpSSGkiTKel9u3W0N5XRhvftSl5uduDlvv7660EWNwuotrclQ7gkSans3XjfcM2a4PdM6tu1gz2pjHbikD6Bl1ldXc3cuXODLNKp6JIhXJIkQ/jHLVu2LPBKHOVIuDLc+KG9Ay/zzTffpL6+PsgiX7CnJUO4JEmpLu7bGi9dujTwSvTt5ki4MleX4jahLMkIeD34BhJwrKIkQ7gkSUFLyEh4c3NzoJXoVdKevJxse1MZ6aThfUIpd9asWUEW5yi4ZAiXJCktlAOb43nDffv2sWHDhkArkZ2VRU93SFeGmjCsb+Bl1tfX8/bbbwdZ5DR7WjKES5KULhbG+4ZhTEnv16OTPamM07owjzEDewRe7jvvvEN1dWAble8EXrW3JUO4JEnp4p10COHDjjzCnlTGGT/syFCWYgR8NNmTQKO9LRnCJUlKF3GfUxpKCO/b1Z5Uxjlt1FGhlPviiy8GWdwT9rRkCJckKd1CeDTVQ/iAnp0ozM+1N5UxCvNzGTs4+KPJKisrmT17dlDF7QZesbclQ7gkSelkB7A2njdcvnw5TU1NgVYiOyuLwb272JvKGKeM6BvKL55eeuklGhoagiruKaDe3pYM4ZIkpZu4Tkmvqalh3bp1gVdieF/XhStzfPG4gaGU+8ILgZ4W5lR0yRAuSVJaivvmbPPmzQs+hB/lunBlhg5tCjl+cM/Ay41Go0yfPj2o4qqAmfa2ZAiXJCkdvRXvG86ZMyf4EN63K1mRiL2ptHfWsQPIzgr+4/CCBQvYtGlTUMU9A9Ta25IhXJKkdDQX2JfqIbxdqwIG9i6xN5X2zjtxcCjlPvnkk0EWN9WelgzhkiSlqwYgrql54cKF7N27N/CKjB/ax95UWht+VFf69+gUStnTpk0Lqqi9wAx7WzKES5KUzl6P580aGxuZO3du4JU4eURfe1Jp7YLxQ0Mpd8WKFSxbtiyo4h4HauxtyRAuSVI6ey3eNwxjSvqAnp058ogO9qbSUpuifL4wul8oZQc4Cg7wkL0tGcIlSUp3bwPVqR7CASaOHWRvKi1dMH4IBXk56R7C1xDnmTmSDOGSJCWjeuK8S/qcOXNobm4OvCJfGjeYvJxse1RpJSc7i8tOHRFK2atWrQpyecn/AlF7XDKES5KUCV6O580qKipYsWJF4JVo37qQU0cdZW8qrXxhdD+6FLcJpexHHnkkqKKagYftbckQLklSpngh3jd89dVXQ6nIRROG2ZtKG5EIfOULx4RSdjQa5U9/+lNQxb0CbLDHJUO4JEmZYiGwOZ43fP7550OpyDH9unNUt472qNLCScOOZEDPzqGU/eabb7JmzZqginvI3pYM4ZIkZZIocR4Nf/XVV6mpCeekoYsmDLVHlRa+ec5xoZX96KOPBlVUJfCkvS0ZwiVJyjRxDeHV1dWhTUmfeMIgWhfm2aNKaScO7c3gPl1CKbumpibIqeh/Js4nNEgyhEuSlApeIrZTetw8+WQ4g1tFBXl8adwQe1Sp+4E3EuHbk8aGVv7UqVPZvXt3UMU9ZI9LhnBJkjJRJVAa7w/yYU1J//JpI8nKitirSklnHzeAgb1KQit/ypQpQRW1BHjTHpcM4ZIkZaqn4nmzPXv28Nxzz4VSka4d2nDKiL72qFJObk421553fGjlL1++nDlz5gRV3D32uGQIlyQpk00FmuJ5wz/+8Y+hVeby00fZo0o5l582ku6d2oVW/v333080Gg2iqB3Ao/a4ZAiXJCmTbQVej+cNn3/+ebZs2RJKZUYd3Y2hRx5hrypldCluwzfPDW9H9MrKSh566KGgipsC1NjrkiFckqRM93/xvFlDQwP/8z//E1plrvriGHtUKeMHl55EUX5uaOVPmTKFysrKIIpqAH5rj0uGcEmSBE+0fECOmwceeICmpqZQKnPSsL7079HJXlXSO3Fob04bdXRo5Tc2NnLfffcFVdxUYJO9LhnCJUlSbJ3my/G8YVlZGS+88EIolYlE4OtnOxqu5Na6MI+fXHFaqK/h8ccfZ8OGDUEV54ZskiFckiTt5//ifcP7778/tMqcMbofvbsU26tKWj+49GSO6NAm1Nfw61//Oqii3gTettclQ7gkSfq7vwL18bzh9OnTWb9+fTgfHiIRvuFouJLUhOF9OW/soFBfw4wZM3j77cBysaPgkiFckiR9TAXwUjxv2NTUxG9+85vQKnTO8QPp262jPaukUlLcmp9NPj3013HrrbcGVdQmYJo9LxnCJUnSP5oa7xsGuPPyP36AyIrwz+ePtVeVNLKzsviPq8+mfevCUF/HzJkzKS0tDaq4XxPnjR8lGcIlSUoXcZ+SXllZycMPPxxahSYM78uoo7vZs0oK35p0QlI8j7fccktQRW0D7rfnJUO4JEn6ZLuJ85R0gHvvvZfm5ubQKvXdi8YTidi5CtcXRvfj62eFv0/BSy+9xOuvvx5UcXcA++x9KfVk2wSSJAUmFzg/njfctWsXY8aMYcCAAaFUqEtxa9Zs3sm6LbvsXYViQM/O3HndRHJzwv1Y29zczGWXXcaWLVuCKG4b8FWcii6lJEfCJUkKTtynpAPcc0+4myN/5/wTQw9Aykwlxa359bfPozA/N/TX8uijjzJ//vygirsDqPYJkFKTPzElSQpOLXA80D+eN123bh0TJ06kW7dw1sO2a1VAY1Mz81dtsocVmNaFefzmhgvo1aV9+G/s2louvPBC9uzZE0RxjoJLKc6RcEmSgjU1ETe97bbbQq3UVWcfmxRhSJmhIC+He//5S/Tv0SkpXs8999xDWVlZUMU5Ci6lOLdSkSQpWO2IjWTlx/OmWVlZLFq0iCFDhoRWsbkr3ue6u6cRjdrJSpz83Bx+dd25jB3cOylez/vvv8+gQYPYu3dvEMVtA/oawqXU5nR0SZKCVQccC8R1J7VoNMqePXu48MILQ6tYt05t2byzkpXv77CXlRAFeTnc9e2JnJAkARzgm9/8JgsXLgyquJ8Dr/skSKnNkXBJkoJ3BfBovG+anZ3Ne++9x9FHHx1axXbvreHin/+R3Xtr7GXFVVF+Lnd9+zzGDOiRNK/pxRdf5KyzzgqqOEfBpTThSLgkScFbD3yP2JFlcRONRqmurmbSpEmhVawgL5eS9q15ZcEae1lx06FNIfd993xGHN0taV5TXV0dkyZNYufOnUEV+f+Av/k0SKnPjdkkSQpeFfBCIm78yCOPBLlB1Cc6+7gBnHVsf3tZcdGjczv+50eXMLhPl6R6XbfccgsrV64MqriFwIM+DVJ6cCRckqTwXBLvGzY1NbFnzx6+9KUvhVqx4wb2ZMY7K9lbU28v65CNOrob991wAUcUt0mq1/XOO+9w1VVX0dzcHFSRXwbW+URI6cE14ZIkhaMVsTWereJ94+zsbBYsWMCwYcNCreDC1Zu59q5pNAUXVJRGLpowjB9eOoHcnOQaM6qtrWX06NEsW7YsqCKfAC72iZDShyPhkiSFowEYCIyI942j0SgbNmzgyiuvDLWCR3RoQ2FeDm8tL7O3dcDycrP58eWncs3E48nOSr6Vkz/5yU/461//GlRx9cCFwC6fDMkQLkmSDl8lMDkRN161ahUnn3wyRx55ZKgVHNa3K6s37WD91gp7W5+rzxHF/Pd3z2f8sD5J+fpef/11vvWtbxGNRoMq8pfAVJ8MKb04HV2SpHB/Dq8BEpKUx4wZw9tvv00kEu6P++raeq66YyqrN+20x/WpJp04mBsvO5nC/NykfH3l5eWMGjWKTZs2BVXkNqA/sV/WSUojjoRLkhSuTsCERNx48+bNDBw4kKFDh4ZawdycbMYNO5IZ76ykpq7BHtdHdGhbxC++cSZfP2tM0q3//kA0GuXyyy9n7ty5QRZ7PR5JJqUlR8IlSQpXP2BFon4m9+3bl+XLl5OXlxd6RRet2cJ1dz9JXUOjvS4Azj1hED+4dAJti/KT+nX+13/9F//yL/8SZJFzgeMBdzWU0pAj4ZIkhWsXcCbQMxE3r6iooKioiJNOOin0inbp0Ib+PTsxc97qINfUKgn17lLMbd88m6984Rjyc3OS+rXOmjWLb3zjG0EeR9YIfAnY7JMipSdHwiVJCt81wO8SdfPCwkIWL17MUUcdlRSVfeHtFfzbH16k2SCecQrycph85mi+fvYY8nKSfyxo/fr1HHfccZSXlwdZ7C+Af/NpkQzhkiQpcdoBW4DCRBVw5plnMmPGjKSp8BOvL+a/HnsVc3hmyIpEOOeEgVw36QS6FLdJiddcVVXFiSeeyJIlS4IsdikwGqjzqZHSl9PRJUkKXx3QBzgmUQWsWbOG/v37M2zYsKSo8ODeXehS3JrSxesxh6e34wb15JfXnMNFE4bRujA/JV5zc3Mzl112GW+88UagxRI7E3y9T42U3hwJlyQpOQwFFiXyZ3NJSQnLly+nQ4cOSVPpZ95czq2PvExTs/tPpZtj+nfn2onHM7p/j5R77T/4wQ+46667gi72l8CPfXKk9OdIuCRJyWE7cCqxEfGE2LdvH7t27WLSpElJU+kBPTszvO8RvPbuWhoam3wK0sDIo7vxs6+ewbcmnUC3jm1T7vXffvvt3HLLLUEXuxL4MrFN2SSlOUfCJUlKHhcBjyf0B38kwmuvvcaECROSquJL12/j+795ml1VNT4FKSgrK8IpI47iK2eMYvhRXVO2Hg899BBXXXVV0Lv3NwOnAG/4JEmGcEmSFKxsYBVwZCILGThwIPPnz6ewsDCpKr91VxU33v8cy8u2+ySkiKL8XCaNG8zlp42ke6d2KV2XZ555hgsvvJDGxsAHo+8FbvBpkjLrh70kSUoOUaAAOCORhezYsYM9e/ZwzjnnJFXlWxfmM3HsIHbsqWbFxnKfhiTW54hivvqF0dzyjTM5ddTRtC0qSOn6zJgxg4svvpj6+vqgi15ObBp6g0+VlDkcCZckKbkUA+8DRQn9ABCJ8OyzzyZdEP/A03OW8av/m0V1ndkkWeTn5nD6MUdz0YRhjEjhKecf99xzz3HRRRdRVxf4qWC1wAnAuz5dkiFckiSF6wHgm4kupKSkhEWLFtGlS5ekbITNOyv52R9eZOHqzT4RIRrUq4RzTxjEF48fQLtWBWlVt+eff56LLrqI2traMIq/CviDT5hkCJckSeEbDiwM4uf0F7/4RZ599lmysrKSsiGampt5dOYCpjz7N2rr3Tg6KEd168gXRvfjnBMGpuQO5wfiiSee4IorrghjCjrA/wJf90mTMpNrwiVJSj7bgJHAwEQXtHr1anJycjj55JOTsiGyIhFGHNWNiWMHsWVnFeu27vLpSJC+3TpyycnD+fHlp3LNxOM5pn932hTlp2VdH3zwQb7+9a/T0BDKcoeVwAVAvU+dlJkcCZckKTkNJbZWNOFD1NnZ2UyfPp0zzjgj6RuldPF6/vvJ2azZvNMn5DBlZUUYeuQRTBh2JBNG9KVv1w5pX+doNMrPfvYzbr311rBewj7geGCpT6BkCJckScnnL8AlQRRUUlLCvHnz6NGjR9I3SnNzlOf+9h6/e+Yttu6q8ik5CK0L8zhuYC8mDD+ScUP7UNymMGPq3tjYyDXXXMMf/hDqMuyvE5uKLskQLkmSktBgYDEBjIYDjBo1ijfeeINWrVqlRqhqaubFuSt5aMY81joy/omysiIM6NGZ4wb15PiBvRjVrxu5OZm3GnHXrl1cdtllzJw5M8yX8Qdim7FJMoRLkqQk9ihwRVCFXXzxxfzlL38hEkmdjwjRKJQuWcfU1xbx1rIymqPRjH1YsrOyGNCrMyOP6saoft0Y3a87bdNsR/ODtWjRIi644ALWrl0b5sv4G3AqUOO3NEmGcEmSkls/YBmQE1SBN998M7fccktKNtbWXVU8PWcZz8xZxpYMmKpemJ/L0D5dGNWvOyOP6sbQvkdQlJ/ru6bF448/zje+8Q327t0b5stYT+w88G32iCRDuCRJqeF/gcmBfTiIRHjooYeYPHlyyjZYNArLNmzj1YVreHXBGjZsq0iLB6G4TSHD+3blmH7dGXFUVwb1LiE7SY+XC1NDQwM333wzd9xxB9FwZ0ZUAuOJLSuRJEO4JEkp4ihgORDYEGdubi7Tpk1j4sSJadGA67bu4u3lG5m38n3mr9rM7r3JPyu4pH1rBvTsTP+enRjQs4QBPTvRvVM73w2fY/369Vx++eW89dZbof8uADgXeMlekWQIlyQp9fweuDrIAgsLC3nxxRcZP358WjVkNAprNu9kybqtrHx/B6veL2fVph3srQn+2OasrAhdO7SlV0l7epa0p1dJe47sWkz/Hp0zaufyeHn88cf5p3/6J3bv3p0ML+c64H57RZIhXJKk1NSb2Gh4oMmsffv2zJo1i+HDh6d140ajsLWiii07Ktm88+/Xjj372LO3lqqaOiqr66iqruXzZjdHItCmMJ/83BwKC3Lp0KaITu1a0bFtER3b/v3PPTq3o1vHthm5W3m8VVZW8oMf/IDf//73yfKS/hP4iT0jyRAuSVJq+znwb0EXWlJSwsyZMxk2bJg9AFRV1xH9SICPsq+mntZF+RTk5pCXa6gO0owZM7jmmmsoKytLlpc0Ffgy0GzvSDKES5KU2gqJjYb3Drrg4uJiXnzxRcaMGWMvKCns2bOHH/3oRzzwwANhb762v9eALwK19pCkT+N2mpIkpY4a4IdhFFxRUcHZZ5/NggUL7AWFburUqQwZMoQpU6YkUwCfA0wygEv6PI6ES5KUemYAZ4ZRcHFxMc8//zwnnHCCvaDArVixguuvv56XXkq6DcffBM4CquwlSZ/HkXBJklLP94C6MAquqKjg1FNP5fHHH7cXFJjq6mr+/d//nREjRiRjAP8bcLYBXNKBcucQSZJSzw4gCpwWRuGNjY1MmzaNTp06ceyxx9obSpjm5mYef/xxLrjgAp566imampqS7SUuIDYCvtvekiRJktJbDjC3JYyHdv3rv/5rtLm5OSrF27PPPhsdOnRoNOxn/DOuhUBHvxVJkiRJmWMEUB92GDn//POje/bsMTUqLubMmRM95ZRTkjl8R4F3gU5+C5IkSZIyz23JEEr69+8fXbp0qQlShxW+zzvvvGQP31Fim7AZwCVJkqQMVUBsVC70cNKmTZvoE088YZrUQZk9e3aqhO8o8DRQ5LcdSZIkKbMNBvYlQ0iJRCLRG264IVpTU2O61KdqamqKTps2LXrSSSelSviOAg8S24tBkiRJkrg2mQLL4MGDowsWLDBt6iNqamqiDz/8cHTgwIGpFL6jwH/5LUaSJEnSxz2WTMElPz8/etddd7l7uqKrVq2K3njjjdHi4uJUC9+NwDV+a5EkSZL0SdoD65ItyIwfPz66ePFik2gGTjl/6aWXopdcckk0Ozs71cJ3FNgLnOu3FUmSJEmf5QSgNtkCTW5ubvQnP/lJtLq62nSaAaPeN998c7Rbt26pGLw/uDYAY/x2IkmSJOlATE7WcNO3b9/o888/b1JNM7t27Yref//90XHjxkUjkUgqh+8o8ArQxW8jkiRJkg7G3ckcdM4888zo/PnzTa8pvsnak08+Gb3kkkuiBQUFqR68o0AzsQ3Ysv32IUmSJOlgZQPPJ3PoiUQi0UsuuSS6evVqE22KqK2tjT7zzDPRyZMnR9u2bZsOwfuDaw9wgd82JEmSJB2OYmBVsgegvLy86He/+91oWVmZKTcJVVZWRqdOnRq98sor0y14f3AtAI7y24UkSZKkeBgM7EyFMJSbmxudPHmyO6kngfXr10d/97vfRc8777xofn5+OgbvD64HgUK/TUiSJEmKp+OAqlQJRpFIJDpx4sTorFmzTMMBTjOfOXNm9Ec/+lF0+PDh6Ry6P7gqgK/6rUGSJElSopxGEh5d9nnX4MGDo3feeWd0+/btJuU4W7p0afTXv/519Itf/GK0qKgoE4L3B9cLQHe/JUgKS8QmkCQpY5wPPE4K7v6cl5fHpEmTuPrqqznzzDPJysqyNw9CU1MTCxcupLS0lDfeeIPS0lK2bduWac1QCdwITPGJkGQIlyRJQbkWuD+VK9CxY0fOPfdcLrnkEr7whS+Qn59vr35MdXU1CxYsoLS0lNmzZ1NaWkpFRUUmN8lM4GqgzKdDkiFckiQF7fvAnenwOaBdu3acc845XHDBBZx++ul06NAhIzt0586dzJkz58NR7rlz59LQ0OCTDvuAHwO/JTYVXZIM4ZIkKRT/RGxEPK3mdfft25czzjiDM844g9NOO42OHTumXcdVVFSwbNky5s2b9+G1fPlympubfao/6lngn4ENNoUkQ7gkSUoGXwYeBnLTsXJZWVmMGDGCY489lhEjRjBixAiGDx9OmzZtUuL179q1i9WrV7Nq1SqWLFnCwoULWbBgQSau5T5YK4HvAjNsCkmGcEmSlGzOA/4CFGTEB59IhL59+zJy5EgGDhxI79696dOnD3369KFXr16Bri+vrq5m8+bNbNu2jY0bN7Jq1aqPXDt37vTpPDj7gF8BtwH1NockQ7gkSUpWZwPTgMKM/lAUidC1a1f69OlDcXHxJ15FRUUAFBQUUFhY+InBura2lt27d3/kzzU1NWzbto3Nmzezfft2Nm3axN69e33y4udZ4NvARptCkiRJUio4AdhC5pwV7ZUeVykwzrevJEmSpFTUHXjHYOeVAtdi4BLfspIkSZJSXQHwqCHPK0mv5cBk0mxXf0mSJEmZLULsbOUmQ59XklwbgGuAHN+ekiRJktLVpcAeA6BXiNcy4Gogz7ejJEmSpEzQG3jDMOhF8BuuXQJk+xaUJEmSlGlyiE1PrzcceiXwagKeAcb6lpMkSZIkOAlYb1j0ivO1G7gH6OtbTJIkSZI+qj3wmMHRKw7Xm8A3gCLfVpIkSZL02c4D1hokvQ7y2gP8DhjpW0iSJEmSDk4hcCtQa7j0+oyrmdjmflcBrXzbSJIkSdLhORp4wbDp9bFrKfBz4CjfIpIkSZIUf5cCGw2fGX2tA/4DGOrbQZIkSZISrwC4AdhiIM2YayXwS2JHi0V8C0iSJElS8PKBawzjaT/VfLSPuiRJkiQlj9bATcAOg2tKX/uA54HrgV4+1pIkSZKU3NoANwJrDLQpNdp9J3AmsWUGkiRJkqQUkwWcAzwHNBl0k+raCjwGfBPo6aMqSYnh5hmSJCksfYmtG78a6GRzBK4K+Bsws+Wa3xLGJUmGcEmSlMYKgUuIHXF2BrFN3RR/ZcBs4E3gdWAx0GyzSJIhXJIkZa4i4PSWUH4h0MomOSSNxI4OK20J3m8QO8NbkmQIlyRJ+kRtgYnAxcBZLQFdn2wnsRHuOS2hey5QbbNIkiFckiTpUOQBxwGnACcDJ2ZwKN8LvAssBOa1hO8VuJ5bkgzhkiRJCZLbEspPbrmOB9qlYT23toTthcCClq+rcS23JBnCJUmSQtYbGAIMA4a2/Hkwyb/RW01LsF6z37Wa2MZpW+1WSTKES5IkpYoc4GhgELGzr7sC3YFuLVd3YmvPE2U3sB0oB3a0fN1CbJO0D8L2ZrtJkgzhkiRJmaIV0ANo3fLnPGJT23NavuYTW3+eQ2zXcYity24gtg57d8vf1QH79gvcO4B6m1eStL//DwkYG0uAh+zQAAAAJXRFWHRkYXRlOmNyZWF0ZQAyMDIyLTAzLTIwVDA0OjQwOjE0KzAwOjAwHSOEhQAAACV0RVh0ZGF0ZTptb2RpZnkAMjAyMi0wMy0yMFQwNDo0MDoxNCswMDowMGx+PDkAAAAASUVORK5CYII=;" vertex="1" parent="1">
          <mxGeometry x="192.01" y="262.28" width="55.97" height="57.72" as="geometry" />
        </mxCell>
        <mxCell id="8nX6-_hQsfc3MMxlzyIy-30" value="ECR" style="outlineConnect=0;dashed=0;verticalLabelPosition=bottom;verticalAlign=top;align=center;html=1;shape=mxgraph.aws3.ecr;fillColor=#F58534;gradientColor=none;" vertex="1" parent="1">
          <mxGeometry x="1123.75" y="340" width="69" height="72" as="geometry" />
        </mxCell>
        <mxCell id="8nX6-_hQsfc3MMxlzyIy-31" style="edgeStyle=orthogonalEdgeStyle;rounded=0;orthogonalLoop=1;jettySize=auto;html=1;entryX=0;entryY=0.5;entryDx=0;entryDy=0;entryPerimeter=0;" edge="1" parent="1" source="8nX6-_hQsfc3MMxlzyIy-15" target="8nX6-_hQsfc3MMxlzyIy-30">
          <mxGeometry relative="1" as="geometry">
            <Array as="points">
              <mxPoint x="1040" y="466" />
              <mxPoint x="1040" y="376" />
            </Array>
          </mxGeometry>
        </mxCell>
      </root>
    </mxGraphModel>
  </diagram>
</mxfile>
